<?xml version="1.0" encoding="utf-8"?>
<!-- Generator: Adobe Illustrator 23.0.2, SVG Export Plug-In . SVG Version: 6.00 Build 0)  -->
<svg version="1.1" id="Layer_1" xmlns="http://www.w3.org/2000/svg" xmlns:xlink="http://www.w3.org/1999/xlink" x="0px" y="0px"
	 viewBox="0 0 539.6 420.7" style="enable-background:new 0 0 539.6 420.7;" xml:space="preserve">
<style type="text/css">
	.st0{fill:#D01E4B;}
</style>
<path class="st0" d="M271.2,57.3c64.5,0,119.8,40.1,142.3,96.7h40C429.4,76.2,356.8,19.5,271.2,19.5c-85.6,0-158.2,56.6-182.3,134.4
	H129C151.5,97.4,206.7,57.3,271.2,57.3z M271.2,363.5c-60.6,0-113.1-35.4-137.9-86.7h-41c27.1,72.6,97,124.5,178.9,124.5
	s151.9-51.8,179-124.5h-41C384.4,328,331.9,363.5,271.2,363.5z"/>
<g>
	<path class="st0" d="M72.6,246.3c0,3.7-1.5,6-5.7,6c-3.9,0-5.8-2.9-5.8-6.5v-2.1h-0.2c-3.2,5.7-8,8.6-14.7,8.6
		c-17.3,0-21.1-15.4-21.1-38v-8c0-26.8,7.1-36.3,25.1-36.3c15.7,0,22.4,10,22.4,19.2c0,5.4-2.1,8.8-7.4,8.8c-5.2,0-6.7-2.6-7.3-9.4
		c-0.3-3.4-2.4-6.9-8.3-6.9c-5.3,0-9.1,3.2-9.1,21.4v11c0,19.2,1.6,26.7,9.8,26.7c6.5,0,8.3-6.4,8.3-16v-4.5h-6
		c-4.2,0-5.9-2.9-5.9-6.3c0-4.4,2.4-6.3,6.4-6.3h12.3c5.3,0,7.4,2.3,7.4,7.2V246.3z"/>
	<path class="st0" d="M83.5,197.3c0-4.4,1.9-7.2,6.3-7.2c4.4,0,6.3,2.9,6.3,7.2v5.6h0.2c2-7.5,5.4-12.8,10-12.8
		c3.6,0,6.6,2.6,6.6,8.7c0,4.1-2.1,8-8.3,8c-4.2,0-7.6,2.9-7.6,8.1v29.4c0,5.5-2.6,8-6.7,8c-4.1,0-6.7-2.5-6.7-8V197.3z"/>
	<path class="st0" d="M117.2,215c0-15.1,2.2-24.9,20.4-24.9c13.9,0,18.7,7.8,18.7,23.4c0,5.4-0.7,9.5-7.5,9.5h-17.6v6
		c0,7.1,0.6,12.7,6,12.7c2.9,0,5-3,5.2-6.1c0.2-5.8,2.9-7.1,6.6-7.1c4,0,6.8,1.3,6.8,6.6c0,10.8-7.4,17.2-18.2,17.2
		c-18.2,0-20.4-9.8-20.4-24.9V215z M142.9,213.6v-4.9c0-4.5-1.4-8-5.8-8s-5.8,3.5-5.8,8v4.9H142.9z"/>
	<path class="st0" d="M203.1,238.2c0,3.8,0.8,7,0.8,8.9c0,3.5-2.4,5.3-6.7,5.3c-3.6,0-7-1.8-7-7.6l-0.2,0.1
		c-2.4,5.4-7.4,7.5-12.2,7.5c-7.9,0-13.8-4.7-13.8-15.9c0-9,2.5-14.2,9.5-17.9l12-6.3c3-1.5,4.3-3.7,4.3-6.3c0-3.2-1.8-5.9-5.2-5.9
		c-4.6,0-6,2.3-6.6,7c-0.3,2.6-2.9,4.3-6.4,4.3c-3,0-7-1.4-7-5.5c0-10.3,8.3-15.8,18.6-15.8c17.9,0,19.9,7.9,19.9,17.6V238.2z
		 M189.7,220.2l-4.7,3.3c-5.9,4.2-7,6.3-7,11.3c0,4.5,1.9,7,4.7,7c4.4,0,7-4.8,7-11.1V220.2z"/>
	<path class="st0" d="M215.8,201.5h-1.4c-3.9,0-5.9-1.3-5.9-4.9c0-3.7,2-5,5.9-5h1.4v-10.2c0-5.5,2.6-8,6.7-8s6.7,2.5,6.7,8v10.2
		h3.1c3.9,0,5.9,1.3,5.9,5c0,3.6-2,4.9-5.9,4.9h-3.1v34.9c0,2.5,0.6,4,3.6,4.2c3.1,0.1,4.9,1.2,4.9,4.7c0,4.5-2.7,6.3-8.4,6.3
		c-10.3,0-13.5-5.4-13.5-11V201.5z"/>
	<path class="st0" d="M243.1,179.8c0-5.5,2.5-7.9,7.9-7.9h19.2c15.1,0,21.3,10.6,21.3,34.6v10.2c0,23.7-8,34.2-21.9,34.2h-18.5
		c-5.4,0-7.9-2.4-7.9-7.9V179.8z M257.8,239.3h6.8c7.7,0,11.5-4.9,11.5-25.3v-6.4c0-17.3-2-24-11.1-24h-7.2V239.3z"/>
	<path class="st0" d="M300,215c0-15.1,2.2-24.9,20.4-24.9c13.9,0,18.6,7.8,18.6,23.4c0,5.4-0.7,9.5-7.5,9.5H314v6
		c0,7.1,0.6,12.7,6,12.7c2.9,0,5-3,5.2-6.1c0.2-5.8,2.9-7.1,6.6-7.1c4,0,6.8,1.3,6.8,6.6c0,10.8-7.4,17.2-18.2,17.2
		c-18.2,0-20.4-9.8-20.4-24.9V215z M325.7,213.6v-4.9c0-4.5-1.4-8-5.8-8c-4.4,0-5.8,3.5-5.8,8v4.9H325.7z"/>
	<path class="st0" d="M385.9,238.2c0,3.8,0.8,7,0.8,8.9c0,3.5-2.4,5.3-6.7,5.3c-3.6,0-7-1.8-7-7.6l-0.2,0.1
		c-2.4,5.4-7.4,7.5-12.2,7.5c-7.9,0-13.8-4.7-13.8-15.9c0-9,2.5-14.2,9.5-17.9l12-6.3c3-1.5,4.3-3.7,4.3-6.3c0-3.2-1.8-5.9-5.2-5.9
		c-4.6,0-6,2.3-6.6,7c-0.3,2.6-2.9,4.3-6.4,4.3c-3,0-7-1.4-7-5.5c0-10.3,8.3-15.8,18.6-15.8c17.9,0,19.9,7.9,19.9,17.6V238.2z
		 M372.5,220.2l-4.7,3.3c-5.9,4.2-7,6.3-7,11.3c0,4.5,1.9,7,4.7,7c4.4,0,7-4.8,7-11.1V220.2z"/>
	<path class="st0" d="M397.7,178.5c0-5.5,2.6-8,6.7-8s6.7,2.5,6.7,8v65.8c0,5.5-2.6,8-6.7,8s-6.7-2.5-6.7-8V178.5z"/>
	<path class="st0" d="M430.8,235.6c4.6,0,8.3,3.7,8.3,8.3s-3.7,8.3-8.3,8.3c-4.6,0-8.3-3.7-8.3-8.3S426.2,235.6,430.8,235.6z"/>
	<path class="st0" d="M457.1,170c4.3,0,7.7,3.4,7.7,7.7s-3.4,7.7-7.7,7.7s-7.7-3.4-7.7-7.7S452.8,170,457.1,170z M450.4,198.1
		c0-5.5,2.6-8,6.7-8s6.7,2.5,6.7,8v46.2c0,5.5-2.6,8-6.7,8s-6.7-2.5-6.7-8V198.1z"/>
	<path class="st0" d="M474.9,213.3c0-12.2,2.2-23.2,14.3-23.2c4.9,0,9.4,2.4,11.8,6.9h0.2v-18.5c0-5.5,2.6-8,6.7-8s6.7,2.5,6.7,8
		v65.8c0,5.5-2.6,8-6.7,8c-3.9,0-6.7-3-6.7-6.9H501c-2.4,4.7-6.8,6.9-11.8,6.9c-12.1,0-14.3-11-14.3-23.2V213.3z M488.9,225.7
		c0,9.9,0.7,15.6,5.6,15.6c5.3,0,6.7-6,6.7-14.5v-11.2c0-12-3.4-14.4-6.6-14.4c-4.5,0-5.7,3.6-5.7,16.7V225.7z"/>
</g>
</svg>
