<?xml version="1.0" encoding="utf-8"?>
<!-- Generator: Adobe Illustrator 23.0.2, SVG Export Plug-In . SVG Version: 6.00 Build 0)  -->
<svg version="1.1" id="Layer_1" xmlns="http://www.w3.org/2000/svg" xmlns:xlink="http://www.w3.org/1999/xlink" x="0px" y="0px"
	 viewBox="0 0 1561.4 174" style="enable-background:new 0 0 1561.4 174;" xml:space="preserve">
<style type="text/css">
	.st0{fill:#F9F9F9;}
</style>
<path class="st0" d="M0,112V48.4h19.3V73h27.9V48.4h19.3V112H47.2V84.5H19.3V112H0z"/>
<path class="st0" d="M79,100.4V76.4c0-7.7,4.8-11.6,14.4-11.6h25c9.6,0,14.4,3.9,14.4,11.6v24.1c0,7.7-4.8,11.6-14.4,11.6h-25
	C83.8,112,79,108.1,79,100.4z M96.3,99.9c0,1.3,0.8,1.9,2.4,1.9h14.4c1.6,0,2.4-0.6,2.4-1.9V76.8c0-1.3-0.8-1.9-2.4-1.9H98.7
	c-1.6,0-2.4,0.6-2.4,1.9V99.9z"/>
<path class="st0" d="M143.5,112v-10.1h29.4c1.6,0,2.4-0.6,2.4-1.9v-5.3c0-1.3-0.8-1.9-2.4-1.9h-14.9c-9.6,0-14.4-3.9-14.4-11.6v-4.8
	c0-7.7,4.8-11.6,14.4-11.6h30.8v10.1h-25.5c-1.6,0-2.4,0.6-2.4,1.9v3.9c0,1.3,0.8,1.9,2.4,1.9h14.9c9.6,0,14.4,3.9,14.4,11.6v6.3
	c0,7.7-4.8,11.6-14.4,11.6H143.5z"/>
<path class="st0" d="M203.2,100.4v-52h17.3v16.4h16.4v10.1h-16.4v25c0,1.3,0.8,1.9,2.4,1.9h14V112h-19.3
	C208,112,203.2,108.1,203.2,100.4z"/>
<path class="st0" d="M246.5,100.4V76.4c0-7.7,4.8-11.6,14.4-11.6h23.1c9.6,0,14.4,3.9,14.4,11.6v16.4h-34.7v7.2
	c0,1.3,0.8,1.9,2.4,1.9h30.3V112h-35.6C251.3,112,246.5,108.1,246.5,100.4z M263.8,82.6h17.3v-5.8c0-1.3-0.8-1.9-2.4-1.9h-12.5
	c-1.6,0-2.4,0.6-2.4,1.9V82.6z"/>
<path class="st0" d="M310,100.4V76.4c0-7.7,4.8-11.6,14.4-11.6h22.1V48.4H364V112h-39.5C314.9,112,310,108.1,310,100.4z M327.4,99.9
	c0,1.3,0.8,1.9,2.4,1.9h16.9v-27h-16.9c-1.6,0-2.4,0.6-2.4,1.9V99.9z"/>
<path class="st0" d="M406.3,112V48.4h17.3v16.4h22.1c9.6,0,14.4,3.9,14.4,11.6v24.1c0,7.7-4.8,11.6-14.4,11.6H406.3z M423.7,101.9
	h16.9c1.6,0,2.4-0.6,2.4-1.9V76.8c0-1.3-0.8-1.9-2.4-1.9h-16.9V101.9z"/>
<path class="st0" d="M466,64.8h17.1l14.6,32l14.6-32h17.1l-30.8,67.4h-17.1l7.6-16.7L466,64.8z"/>
<path class="st0" d="M757.8,144.6l11-43.3c0-4.1-3-6.1-9-6.1H652.9c-15.1,0-25.8-1.4-32.1-4.2c-6.4-2.8-9.5-7.1-9.5-12.9v-2.6
	c0,0.2,0.2-0.8,0.6-2.9l12.9-50c1.9-7.3,6.9-12.9,15-16.8S660.5,0,677.7,0h162.4l-5.5,22.3h-154c-6.9,0-11.1,2.4-12.6,7.1l-9.4,36.5
	c0,0.4-0.1,0.7-0.2,0.8c-0.1,0.1-0.2,0.3-0.2,0.5c0,3.9,3,5.8,9,5.8h106.9c15.1,0,25.8,1.5,32.3,4.5c6.5,3,9.7,7.3,9.7,12.9
	c0,1.5-0.3,3.2-1,5.2l-14.2,55.9c-2.2,7.5-7.3,13.2-15.3,16.9c-8.1,3.8-20.6,5.7-37.6,5.7H585.4l5.8-22.3h154
	C752.1,151.7,756.3,149.4,757.8,144.6z"/>
<path class="st0" d="M881.9,5.8C890,1.9,902.6,0,919.9,0h115.6c14.9,0,25.5,1.5,32,4.5c6.5,3,9.7,7.3,9.7,12.9
	c0,0.9-0.1,1.7-0.2,2.4c-0.1,0.8-0.3,1.7-0.5,2.7l-12.9,50c-1.9,6.9-6.2,12.2-12.9,16c-6.7,3.8-17.2,6-31.6,6.6l24.5,78.8h-44.2
	l-25.2-78.8h-81L872.7,174h-45.2l39.4-151.4C868.9,15.3,873.9,9.7,881.9,5.8z M1016.2,71c2.3-1.3,3.6-3,4-5.2l9.7-36.5
	c0-0.4,0.1-0.7,0.2-0.8c0.1-0.1,0.2-0.3,0.2-0.5c0-3.9-3-5.8-9-5.8h-98.5c-6.9,0-11.1,2.4-12.6,7.1L898.9,73H1008
	C1011.2,73,1014,72.3,1016.2,71z"/>
<path class="st0" d="M1109.1,22.6c1.9-7.3,6.9-12.9,15-16.8S1144.8,0,1162,0h115.6c14.9,0,25.5,1.5,32,4.5c6.5,3,9.7,7.3,9.7,12.9
	c0,0.9-0.1,1.7-0.2,2.4c-0.1,0.8-0.3,1.7-0.5,2.7l-12.9,50c-1.9,7.5-7,13.2-15.2,16.9c-8.2,3.8-20.8,5.7-37.8,5.7h-117.5l-20.3,78.8
	h-45.2L1109.1,22.6z M1250.1,73c3.2,0,6-0.6,8.2-1.9c2.3-1.3,3.6-3,4-5.2l9.7-36.5c0-0.4,0.1-0.7,0.2-0.8c0.1-0.1,0.2-0.3,0.2-0.5
	c0-3.9-3-5.8-9-5.8h-98.5c-6.9,0-11.1,2.4-12.6,7.1L1141,73H1250.1z"/>
<path class="st0" d="M1357,0h162.7c14.9,0,25.5,1.5,32,4.5c6.5,3,9.7,7.3,9.7,12.9c0,0.9-0.1,1.7-0.2,2.4c-0.1,0.8-0.3,1.7-0.5,2.7
	l-33.3,128.8c-1.9,7.5-7,13.2-15.2,16.9c-8.2,3.8-20.8,5.7-37.8,5.7h-162.7L1357,0z M1471.6,151.7c6.9,0,11.1-2.4,12.6-7.1l30-115.3
	c0-0.4,0.1-0.7,0.2-0.8c0.1-0.1,0.2-0.3,0.2-0.5c0-3.9-3-5.8-9-5.8h-109.1l-33.9,129.5H1471.6z"/>
</svg>
