<?xml version="1.0" encoding="utf-8"?>
<!-- Generator: Adobe Illustrator 23.0.2, SVG Export Plug-In . SVG Version: 6.00 Build 0)  -->
<svg version="1.1" id="Layer_1" xmlns="http://www.w3.org/2000/svg" xmlns:xlink="http://www.w3.org/1999/xlink" x="0px" y="0px"
	 viewBox="0 0 801 243.1" style="enable-background:new 0 0 801 243.1;" xml:space="preserve">
<style type="text/css">
	.st0{fill:#F9F9F9;}
</style>
<title>Artboard 1</title>
<path class="st0" d="M145,123.4l9-35.3c0-3.3-2.5-5-7.4-5H59.3c-12.3,0-21-1.1-26.2-3.4s-7.8-5.8-7.8-10.6V67
	c0.2-0.8,0.4-1.6,0.5-2.4l10.5-40.9c1.6-6,5.7-10.6,12.3-13.7s16.9-4.7,31-4.8h132.5l-4.5,18.2H82c-5.6,0-9,1.9-10.3,5.8l-7.6,29.8
	c0,0.2,0,0.5-0.1,0.7c-0.1,0.1-0.1,0.2-0.1,0.4c0,3.2,2.5,4.7,7.4,4.7h87.2c12.3,0,21.1,1.2,26.4,3.7c5.3,2.5,7.9,6,7.9,10.5
	c0,1.4-0.3,2.9-0.8,4.2l-11.6,45.6c-1.8,6.1-5.9,10.8-12.5,13.8s-16.8,4.6-30.7,4.6H4.3L9,129.2h125.7
	C140.3,129.2,143.8,127.2,145,123.4z"/>
<path class="st0" d="M246.3,10.1c6.6-3.2,16.9-4.8,31-4.8h94.4c12.1,0,20.8,1.2,26.1,3.7c5.3,2.5,7.9,6,7.9,10.5c0,0.7,0,1.3-0.1,2
	c-0.1,0.6-0.2,1.4-0.4,2.2l-10.6,40.8c-1.6,5.6-5.4,10.3-10.6,13.1c-5.5,3.1-14.1,4.9-25.8,5.4l20,64.3h-36.1l-20.5-64.3h-66.1
	l-16.6,64.3h-36.9l32.2-123.6C235.7,17.8,239.7,13.2,246.3,10.1z M356,63.3c1.7-0.8,2.9-2.4,3.3-4.2l7.9-29.8c0-0.2,0-0.5,0.1-0.7
	c0.1-0.1,0.1-0.3,0.1-0.4c0-3.2-2.5-4.7-7.4-4.7h-80.4c-5.6,0-9,1.9-10.3,5.8l-9.2,35.6h89.1C351.6,64.9,353.9,64.4,356,63.3z"/>
<path class="st0" d="M431.8,23.8c1.6-6,5.7-10.6,12.3-13.7s16.9-4.7,31-4.8h94.4c12.1,0,20.8,1.2,26.1,3.7c5.3,2.5,7.9,6,7.9,10.5
	c0,0.7,0,1.3-0.1,2c-0.1,0.6-0.2,1.4-0.4,2.2l-10.6,40.8c-1.6,6.2-5.7,10.8-12.4,13.8s-17,4.6-30.9,4.6h-95.9l-16.6,64.3h-36.9
	L431.8,23.8z M546.9,64.9c2.3,0.1,4.7-0.5,6.7-1.6c1.7-0.8,2.9-2.4,3.3-4.2l7.9-29.8c0-0.2,0-0.5,0.1-0.7c0.1-0.1,0.1-0.3,0.1-0.4
	c0-3.2-2.5-4.7-7.4-4.7h-80.4c-5.6,0-9,1.9-10.3,5.8l-9.2,35.6L546.9,64.9z"/>
<path class="st0" d="M634.2,5.3H767c12.1,0,20.8,1.2,26.1,3.7c5.3,2.5,7.9,6,7.9,10.5c0,0.7,0,1.3-0.1,2c-0.1,0.6-0.2,1.4-0.4,2.2
	l-27.1,105.1c-1.6,6.1-5.7,10.8-12.4,13.8c-6.7,3.1-17,4.6-30.8,4.6H597.3L634.2,5.3z M727.7,129.2c5.6,0,9-1.9,10.3-5.8l24.5-94.1
	c0-0.2,0-0.5,0.1-0.7c0.1-0.1,0.1-0.3,0.1-0.4c0-3.2-2.5-4.7-7.4-4.7h-89.1l-27.7,105.7H727.7z"/>
<path class="st0" d="M71.2,231.1l-1.8,6.9H19.7c-4.6,0-7.9-0.4-9.9-1.3s-3-2.2-3-3.9c0-0.6,0.1-1.1,0.3-1.7l10.2-39.4
	c0.7-2.3,2.4-4.2,4.6-5.1c2.5-1.2,6.3-1.8,11.6-1.8h49.7l-1.7,6.8H34.5c-2.1,0-3.4,0.7-3.9,2.2L27.1,207h36.7l-1.9,6.8H25.4
	L21.5,229c-0.1,0.1-0.1,0.2-0.1,0.5c0,1.1,0.9,1.7,2.7,1.7L71.2,231.1z"/>
<path class="st0" d="M132.6,238h-13.7l6.9-26.9c0.1-0.1,0.1-0.2,0.1-0.5c0-1.1-0.9-1.7-2.7-1.7h-22.4L93.3,238H79.4l9.4-35.9h38.7
	c4.6,0,7.9,0.5,9.8,1.4s2.9,2.2,2.9,3.9v0.8c-0.1,0.3-0.1,0.5-0.2,0.8L132.6,238z"/>
<path class="st0" d="M169.3,188l-3.7,14.1H197l-1.7,6.8h-31.5l-5.1,20c-0.2,0.6-0.1,1.2,0.4,1.6c0.6,0.4,1.4,0.7,2.2,0.6h17.3
	l-1.7,6.8h-20c-5.3,0-8.8-0.6-10.7-1.7c-1.9-1.2-2.5-2.9-1.8-5.3l11.2-43H169.3z"/>
<path class="st0" d="M252.6,231.1l-1.8,6.9h-38.8c-4.6,0-7.9-0.4-9.9-1.3c-2-0.9-3-2.2-3-3.9c0-0.6,0.1-1.1,0.3-1.7l5.6-22
	c0.6-2.1,2-3.8,3.9-4.8c2-1.1,5.2-1.9,9.5-2.1h27.2c4.6,0,7.9,0.5,9.8,1.4c1.9,0.9,2.9,2.2,2.9,3.9v0.8c-0.1,0.3-0.1,0.5-0.2,0.8
	l-1.9,7.5c-0.6,2.4-2.4,4.3-4.6,5.2c-2.5,1.2-6.4,1.7-11.6,1.7h-25l-1.4,5.5c-0.1,0.1-0.1,0.3-0.1,0.5c0,1.1,0.9,1.7,2.7,1.7
	L252.6,231.1z M221.8,208.9c-1.9,0.1-3,0.8-3.4,2.2l-1.4,5.5h25.6l1.4-5.5c0.1-0.2,0.1-0.3,0.1-0.5c0-1.1-0.9-1.7-2.7-1.7
	L221.8,208.9z"/>
<path class="st0" d="M268.2,209c0.7-2.3,2.4-4.2,4.6-5.1c2.5-1.2,6.4-1.8,11.6-1.8h30.8l-1.7,6.8h-28.3c-2.1,0-3.4,0.7-3.9,2.2
	l-6.9,26.9h-13.8L268.2,209z"/>
<path class="st0" d="M342.6,188l-3.6,14.1h31.4l-1.7,6.8h-31.5l-5.1,20.1c-0.2,0.6-0.1,1.2,0.4,1.6c0.6,0.4,1.4,0.7,2.2,0.6h17.3
	l-1.7,6.8h-20c-5.3,0-8.8-0.6-10.7-1.7c-1.9-1.2-2.5-2.9-1.8-5.3l11.2-43H342.6z"/>
<path class="st0" d="M378.6,208.9l1.8-6.8h38.7c4.6,0,7.9,0.5,9.8,1.4s2.9,2.2,2.9,3.9v0.8c-0.1,0.3-0.1,0.5-0.2,0.8l-5.7,22
	c-0.6,2-2,3.8-3.9,4.8c-2,1.2-5.2,1.9-9.5,2.1h-27.2c-4.6,0-7.9-0.4-9.9-1.3s-3-2.2-3-3.9c0-0.6,0.1-1.1,0.3-1.7l1.9-7.5
	c0.7-2.3,2.4-4.2,4.6-5.1c2.5-1.2,6.3-1.8,11.6-1.8h25l1.4-5.5c0.1-0.1,0.1-0.2,0.1-0.5c0-1.1-0.9-1.7-2.7-1.7L378.6,208.9z
	 M409.3,231.1c1.9-0.1,3.1-0.9,3.5-2.2l1.4-5.5h-25.6l-1.4,5.6c-0.1,0.1-0.1,0.2-0.1,0.5c0,1.1,0.9,1.7,2.7,1.7L409.3,231.1z"/>
<path class="st0" d="M457.2,202.1l-9.3,35.9H434l9.4-35.9L457.2,202.1z"/>
<path class="st0" d="M511,238h-13.8l6.9-26.9c0.1-0.2,0.1-0.3,0.1-0.5c0-1.1-0.9-1.7-2.7-1.7h-22.4l-7.5,29.1h-13.8l9.4-35.9h38.8
	c4.6,0,7.9,0.5,9.8,1.4c1.9,0.9,2.9,2.2,2.9,3.9v0.8c-0.1,0.3-0.1,0.5-0.2,0.8L511,238z"/>
<path class="st0" d="M586.2,238h-13.7l6.9-26.9c0.1-0.2,0.1-0.3,0.1-0.5c0-1.1-0.9-1.7-2.7-1.7H568l-7.6,29.1h-13.7l7.6-29.1h-12.1
	l-7.5,29.1h-13.8l9.4-35.9h50.9c4.6,0,7.9,0.5,9.9,1.4s3,2.2,3,3.9c0,0.5-0.1,1.1-0.3,1.6L586.2,238z"/>
<path class="st0" d="M651.1,231.1l-1.8,6.9h-38.7c-4.6,0-7.9-0.4-9.9-1.3s-3-2.2-3-3.9c0-0.6,0.1-1.2,0.3-1.8l5.6-22
	c0.6-2.1,2-3.8,3.9-4.8c2-1.1,5.2-1.9,9.5-2.1h27.2c4.6,0,7.9,0.5,9.8,1.4s2.9,2.2,2.9,3.9v0.8c-0.1,0.3-0.1,0.5-0.2,0.8l-1.8,7.5
	c-0.6,2.4-2.4,4.3-4.7,5.2c-2.5,1.2-6.4,1.7-11.6,1.7h-25l-1.4,5.6c-0.1,0.1-0.1,0.2-0.1,0.5c0,1.1,0.9,1.7,2.7,1.7L651.1,231.1z
	 M620.3,208.9c-1.8,0.1-3,0.8-3.4,2.2l-1.4,5.5h25.6l1.4-5.5c0.1-0.2,0.1-0.3,0.1-0.5c0-1.1-0.9-1.7-2.7-1.7H620.3z"/>
<path class="st0" d="M712.4,238h-13.7l6.9-26.9c0.1-0.2,0.1-0.3,0.1-0.5c0-1.1-0.9-1.7-2.7-1.7h-22.4L673,238h-13.8l9.4-35.9h38.8
	c4.6,0,7.9,0.5,9.8,1.4c1.9,0.9,2.9,2.2,2.9,3.9v0.8c-0.1,0.3-0.1,0.5-0.2,0.8L712.4,238z"/>
<path class="st0" d="M749,188l-3.7,14.1h31.4l-1.7,6.8h-31.5l-5.1,20c-0.2,0.6-0.1,1.2,0.4,1.6c0.6,0.4,1.4,0.7,2.2,0.6h17.3
	l-1.7,6.8h-20c-5.3,0-8.8-0.6-10.7-1.7c-1.9-1.2-2.5-2.9-1.8-5.3l11.2-43H749z"/>
</svg>
