<svg id="Layer_1" data-name="Layer 1" xmlns="http://www.w3.org/2000/svg" viewBox="0 0 801 243.12"><defs><style>.cls-1{fill:#f9f9f9;}</style></defs><title>Artboard 1</title><path class="cls-1" d="M145,123.38l9-35.32q0-5-7.38-5H59.34q-18.45,0-26.23-3.42T25.34,69.08V67a16.74,16.74,0,0,0,.52-2.37L36.41,23.75q2.37-9,12.25-13.7t31-4.75H212.2l-4.48,18.19H82q-8.43,0-10.28,5.8L64.08,59.07a1,1,0,0,1-.13.66.53.53,0,0,0-.13.39q0,4.74,7.38,4.75h87.24q18.44,0,26.35,3.69T192.7,79.1a13.81,13.81,0,0,1-.79,4.22l-11.6,45.59q-2.64,9.22-12.52,13.84t-30.7,4.61H4.25L9,129.18H134.71Q143.16,129.18,145,123.38Z"/><path class="cls-1" d="M246.33,10.05q9.88-4.76,31-4.75h94.36q18.18,0,26.09,3.69t7.91,10.54a13.56,13.56,0,0,1-.14,2c-.09.62-.22,1.36-.39,2.24L394.59,64.6A21.21,21.21,0,0,1,384,77.65q-8.18,4.62-25.83,5.4l20,64.31h-36.1L321.58,83.05H255.43l-16.61,64.31h-36.9L234.08,23.75Q236.45,14.8,246.33,10.05ZM356,63.28a6.21,6.21,0,0,0,3.3-4.21l7.91-29.78a1,1,0,0,1,.13-.66.58.58,0,0,0,.13-.4q0-4.74-7.38-4.74H279.67q-8.43,0-10.28,5.8l-9.22,35.58h89.08A13.26,13.26,0,0,0,356,63.28Z"/><path class="cls-1" d="M431.75,23.75q2.37-9,12.25-13.7T475,5.3h94.36q18.18,0,26.09,3.69t7.91,10.54a13.56,13.56,0,0,1-.14,2c-.09.62-.22,1.36-.39,2.24L592.26,64.6q-2.38,9.24-12.39,13.84T549,83.05H453.1l-16.61,64.31h-36.9ZM546.92,64.87a13.26,13.26,0,0,0,6.72-1.59,6.21,6.21,0,0,0,3.3-4.21l7.91-29.78a1,1,0,0,1,.13-.66.58.58,0,0,0,.13-.4q0-4.74-7.38-4.74H477.34q-8.43,0-10.28,5.8l-9.22,35.58Z"/><path class="cls-1" d="M634.16,5.3H767q18.18,0,26.09,3.69T801,19.53a13.56,13.56,0,0,1-.14,2c-.09.62-.22,1.36-.39,2.24L773.32,128.91q-2.37,9.22-12.39,13.84t-30.83,4.61H597.26Zm93.57,123.88q8.43,0,10.27-5.8l24.52-94.09a1,1,0,0,1,.13-.66.58.58,0,0,0,.13-.4q0-4.74-7.38-4.74H666.32L638.64,129.18Z"/><path class="cls-1" d="M71.23,231.14,69.46,238H19.74c-4.61,0-7.91-.43-9.88-1.29s-3-2.17-3-3.95a5.28,5.28,0,0,1,.3-1.68l10.18-39.43a7.88,7.88,0,0,1,4.6-5.14q3.71-1.78,11.61-1.78H83.29l-1.68,6.82H34.47q-3.16,0-3.86,2.17L27.15,207H63.82l-1.88,6.82H25.38L21.52,229c-.07.06-.1.23-.1.49q0,1.68,2.67,1.68Z"/><path class="cls-1" d="M132.61,238H118.87l6.92-26.88c.07-.07.1-.23.1-.5q0-1.68-2.67-1.68H100.79L93.28,238H79.44l9.39-35.88h38.74q6.92,0,9.84,1.39t2.91,3.95v.79c-.07.26-.13.53-.2.79Z"/><path class="cls-1" d="M169.28,188l-3.66,14.13h31.43l-1.68,6.82H163.84L158.7,229a1.39,1.39,0,0,0,.4,1.58,3.31,3.31,0,0,0,2.17.59h17.3L176.89,238h-20q-7.9,0-10.72-1.73T144.37,231L155.54,188Z"/><path class="cls-1" d="M252.6,231.14,250.82,238H212.07q-6.91,0-9.88-1.33t-3-3.91a5.28,5.28,0,0,1,.3-1.68l5.63-22a8,8,0,0,1,3.91-4.79q3-1.72,9.54-2.13h27.18q6.91,0,9.83,1.39c1.94.92,2.92,2.24,2.92,3.95v.79c-.07.26-.14.53-.2.79l-1.88,7.51a7.75,7.75,0,0,1-4.64,5.19q-3.76,1.74-11.57,1.73h-25L213.85,229a.8.8,0,0,0-.1.49q0,1.68,2.67,1.68ZM221.76,208.9c-1.85.07-3,.79-3.36,2.18L217,216.61h25.59l1.39-5.53a.84.84,0,0,0,.1-.5q0-1.68-2.67-1.68Z"/><path class="cls-1" d="M268.21,209a7.9,7.9,0,0,1,4.65-5.14q3.75-1.77,11.56-1.78h30.84l-1.68,6.82H285.31q-3.17,0-3.86,2.18L274.54,238H260.7Z"/><path class="cls-1" d="M342.63,188,339,202.08h31.43l-1.68,6.82H337.2L332.06,229a1.39,1.39,0,0,0,.39,1.58,3.34,3.34,0,0,0,2.18.59h17.29L350.24,238h-20q-7.9,0-10.72-1.73T317.73,231L328.9,188Z"/><path class="cls-1" d="M378.61,208.9l1.78-6.82h38.74q6.92,0,9.84,1.39t2.91,3.95v.79c-.06.26-.13.53-.2.79L426,231a8,8,0,0,1-3.85,4.79q-3,1.74-9.49,2.13H385.43c-4.61,0-7.91-.44-9.88-1.33s-3-2.19-3-3.91a5.28,5.28,0,0,1,.3-1.68l1.87-7.51a8,8,0,0,1,4.6-5.14q3.7-1.78,11.61-1.78h25l1.38-5.53c.07-.07.1-.23.1-.5q0-1.68-2.67-1.68Zm30.74,22.24c1.91-.13,3.06-.86,3.46-2.17l1.38-5.54h-25.6L387.21,229c-.07.06-.1.23-.1.49q0,1.68,2.67,1.68Z"/><path class="cls-1" d="M457.18,202.08,447.89,238H434.05l9.39-35.88Z"/><path class="cls-1" d="M511,238H497.21l6.92-26.88a.84.84,0,0,0,.1-.5q0-1.68-2.67-1.68H479.12L471.61,238H457.77l9.39-35.88h38.75q6.91,0,9.83,1.39c1.94.92,2.92,2.24,2.92,3.95v.79c-.07.26-.14.53-.2.79Z"/><path class="cls-1" d="M586.16,238H572.42l6.92-26.88a.84.84,0,0,0,.1-.5q0-1.68-2.67-1.68H568L560.36,238H546.63l7.61-29.06H542.18L534.67,238H520.83l9.39-35.88h50.9c4.61,0,7.91.46,9.88,1.39s3,2.24,3,3.95a5,5,0,0,1-.3,1.58Z"/><path class="cls-1" d="M651.09,231.14,649.31,238H610.57c-4.61,0-7.91-.44-9.88-1.33s-3-2.19-3-3.91A5.28,5.28,0,0,1,598,231l5.63-22a8,8,0,0,1,3.91-4.79q3-1.72,9.53-2.13h27.18q6.91,0,9.84,1.39t2.91,3.95v.79c-.06.26-.13.53-.19.79L655,216.51a7.77,7.77,0,0,1-4.65,5.19q-3.75,1.74-11.56,1.73h-25L612.35,229c-.07.06-.1.23-.1.49q0,1.68,2.67,1.68ZM620.26,208.9c-1.85.07-3,.79-3.36,2.18l-1.39,5.53h25.6l1.39-5.53a.86.86,0,0,0,.09-.5q0-1.68-2.67-1.68Z"/><path class="cls-1" d="M712.37,238H698.63l6.92-26.88a.84.84,0,0,0,.1-.5q0-1.68-2.67-1.68H680.54L673,238H659.2l9.38-35.88h38.75q6.92,0,9.83,1.39t2.92,3.95v.79c-.07.26-.13.53-.2.79Z"/><path class="cls-1" d="M749,188l-3.66,14.13h31.43l-1.68,6.82H743.6L738.46,229a1.38,1.38,0,0,0,.4,1.58,3.31,3.31,0,0,0,2.17.59h17.3L756.65,238h-20q-7.9,0-10.72-1.73T724.13,231L735.3,188Z"/></svg>