<?xml version="1.0" encoding="utf-8"?>
<!-- Generator: Adobe Illustrator 23.0.5, SVG Export Plug-In . SVG Version: 6.00 Build 0)  -->
<svg version="1.1" id="Layer_1" xmlns="http://www.w3.org/2000/svg" xmlns:xlink="http://www.w3.org/1999/xlink" x="0px" y="0px"
	 viewBox="0 0 796.7 142.1" style="enable-background:new 0 0 796.7 142.1;" xml:space="preserve">
<style type="text/css">
	.st0{fill:#F9F9F9;}
</style>
<title>SRPD Entertainment Logo</title>
<path class="st0" d="M140.7,118.2l9-35.3c0-3.3-2.5-5-7.4-5H55c-12.3,0-21-1.1-26.2-3.4S21,68.7,21,63.9v-2.1
	c0.2-0.8,0.4-1.6,0.5-2.4L32,18.5c1.6-6,5.7-10.6,12.3-13.7s16.9-4.7,31-4.8h132.5l-4.5,18.2H77.7c-5.6,0-9,1.9-10.3,5.8l-7.6,29.8
	c0,0.2,0,0.5-0.1,0.7c-0.1,0.1-0.1,0.2-0.1,0.4c0,3.2,2.5,4.7,7.4,4.7h87.2c12.3,0,21.1,1.2,26.4,3.7c5.3,2.5,7.9,6,7.9,10.5
	c0,1.4-0.3,2.9-0.8,4.2l-11.6,45.6c-1.8,6.1-5.9,10.8-12.5,13.8s-16.8,4.6-30.7,4.6H0l4.7-18h125.7C136,124,139.5,122,140.7,118.2z"
	/>
<path class="st0" d="M242,4.9c6.6-3.2,16.9-4.8,31-4.8h94.4c12.1,0,20.8,1.2,26.1,3.7c5.3,2.5,7.9,6,7.9,10.5c0,0.7,0,1.3-0.1,2
	c-0.1,0.6-0.2,1.4-0.4,2.2l-10.6,40.8c-1.6,5.6-5.4,10.3-10.6,13.1c-5.5,3.1-14.1,4.9-25.8,5.4l20,64.3h-36.1l-20.5-64.3h-66.1
	l-16.6,64.3h-36.9l32.2-123.6C231.4,12.6,235.4,8,242,4.9z M351.7,58.1c1.7-0.8,2.9-2.4,3.3-4.2l7.9-29.8c0-0.2,0-0.5,0.1-0.7
	c0.1-0.1,0.1-0.3,0.1-0.4c0-3.2-2.5-4.7-7.4-4.7h-80.4c-5.6,0-9,1.9-10.3,5.8l-9.2,35.6h89.1C347.3,59.7,349.6,59.2,351.7,58.1z"/>
<path class="st0" d="M427.5,18.6c1.6-6,5.7-10.6,12.3-13.7s16.9-4.7,31-4.8h94.4c12.1,0,20.8,1.2,26.1,3.7s7.9,6,7.9,10.5
	c0,0.7,0,1.3-0.1,2c-0.1,0.6-0.2,1.4-0.4,2.2l-10.6,40.8c-1.6,6.2-5.7,10.8-12.4,13.8s-17,4.6-30.9,4.6h-95.9L432.3,142h-36.9
	L427.5,18.6z M542.6,59.7c2.3,0.1,4.7-0.5,6.7-1.6c1.7-0.8,2.9-2.4,3.3-4.2l7.9-29.8c0-0.2,0-0.5,0.1-0.7c0.1-0.1,0.1-0.3,0.1-0.4
	c0-3.2-2.5-4.7-7.4-4.7h-80.4c-5.6,0-9,1.9-10.3,5.8l-9.2,35.6H542.6z"/>
<path class="st0" d="M629.9,0.1h132.8c12.1,0,20.8,1.2,26.1,3.7s7.9,6,7.9,10.5c0,0.7,0,1.3-0.1,2c-0.1,0.6-0.2,1.4-0.4,2.2
	l-27.1,105.1c-1.6,6.1-5.7,10.8-12.4,13.8c-6.7,3.1-17,4.6-30.8,4.6H593L629.9,0.1z M723.4,124c5.6,0,9-1.9,10.3-5.8l24.5-94.1
	c0-0.2,0-0.5,0.1-0.7c0.1-0.1,0.1-0.3,0.1-0.4c0-3.2-2.5-4.7-7.4-4.7h-89.1L634.2,124H723.4z"/>
</svg>
