<?xml version="1.0" encoding="utf-8"?>
<!-- Generator: Adobe Illustrator 23.0.2, SVG Export Plug-In . SVG Version: 6.00 Build 0)  -->
<svg version="1.1" id="Layer_1" xmlns="http://www.w3.org/2000/svg" xmlns:xlink="http://www.w3.org/1999/xlink" x="0px" y="0px"
	 viewBox="0 0 499.5 135.7" style="enable-background:new 0 0 499.5 135.7;" xml:space="preserve">
<style type="text/css">
	.st0{fill:#EF6A24;}
	.st1{fill:#FFFFFF;}
</style>
<g>
	<path class="st0" d="M107,123.1H27.1c-8.4,0-15.3-6.8-15.3-15.3V27.9c0-8.4,6.8-15.3,15.3-15.3H107c8.4,0,15.3,6.8,15.3,15.3v79.9
		C122.2,116.2,115.4,123.1,107,123.1"/>
	<path class="st1" d="M92.3,103v3.5c5.2,0,9.3-4.2,9.3-9.3l0-26.2l5.7,0c1.9,0,3.6-0.8,4.8-2.1c1.1-1.2,1.7-2.8,1.7-4.5
		c0-0.9-0.2-1.9-0.6-2.7c-0.4-0.9-1.1-1.7-1.9-2.3L69.3,26.1c-1.3-1-3-1-4.3,0L22.6,59.4l0,0c-0.8,0.6-1.4,1.4-1.9,2.3
		c-0.4,0.9-0.6,1.8-0.6,2.7c0,1.7,0.6,3.2,1.7,4.5c1.1,1.2,2.9,2.1,4.8,2.1h4.7l0.3,26.2l3.5,0h-3.5c0,5.2,4.2,9.3,9.3,9.3h51.3V103
		v-3.5H41c-1.3,0-2.4-1.1-2.4-2.4v0l-0.3-29.6c0-1.9-1.6-3.4-3.5-3.4h-8.2v0.5l0.3-0.3l-0.3-0.2v0.5l0.3-0.3l-0.3,0.2h0.4L27,64.2
		l-0.3,0.2h0.4h-0.5l0.5,0.2l0.1-0.2h-0.5l0.5,0.2l-0.4-0.2l0.3,0.3l0.1-0.2l-0.4-0.2l0.3,0.3l0,0l40.2-31.6l40,31.6l0.3-0.3
		l-0.4,0.2l0.1,0.2l0.3-0.3l-0.4,0.2l0.5-0.2h-0.5l0.1,0.2l0.5-0.2h-0.5h0.4l-0.3-0.2l-0.1,0.2h0.4l-0.3-0.2l0.3,0.3v-0.5l-0.3,0.2
		l0.3,0.3v-0.5h-9.1c-0.9,0-1.8,0.4-2.5,1s-1,1.5-1,2.5l0,29.6c0,1.3-1.1,2.4-2.4,2.4V103z"/>
	<path class="st1" d="M89,78.4v3c-2.2,6.6-5.9,9.9-11,10.3c-4.5,0.3-8-1.3-11.1-4.6c-0.7,0.6-1.3,1.2-1.9,1.7
		c-3.2,2.7-7,3.5-10.9,2.6c-4.4-1-7.5-3.9-8.7-8.3c-1.2-4.5-0.4-8.6,3.1-11.8c1.4-1.3,1.5-2.3,1.2-4.1c-0.4-1.8-0.4-3.9,0-5.7
		c1.3-6.6,9.5-12.2,17.5-7.3c2.7-2.1,5.7-2.3,8.8-1.4c6.4,1.9,9.8,8.2,8.2,14.8c-0.2,0.8-0.2,2.2,0.3,2.6
		C86.9,72.5,88.4,75.2,89,78.4 M67.5,72.3c2.5-2.6,5.2-5.4,7.9-8.2c1.7-1.8,2.5-3.8,1.2-6.2c-1.2-2.1-3.8-3.1-6.4-2
		c-2.3,1-4.1,0.9-6.3,0c-2.1-0.8-4.6-0.7-6.2,1.5c-1.3,1.7-1.7,3.8-0.1,5.3C60.6,66,64,68.9,67.5,72.3 M81.1,62.3
		C72.9,71.7,64.2,80.3,55,88.4c2.6,0.5,5.5,0.4,7.8-1.9c5.5-5.4,10.9-10.8,16.3-16.3C81.3,67.9,81.9,65.1,81.1,62.3 M74.1,79.7
		c1.6,1.5,2.7,2.8,4,3.8c2,1.5,4.9,1.2,6.4-0.6c1.6-1.9,1.5-4.7-0.3-6.4c-2-2-4.3-2-6.5-0.1C76.6,77.4,75.5,78.4,74.1,79.7
		 M59.9,79.8c-1.3-1.2-2.4-2.1-3.4-3c-0.3-0.2-0.5-0.5-0.7-0.7c-2-1.5-4.4-1.4-6.2,0.4c-1.7,1.7-1.9,4.3-0.4,6.2
		c1.4,1.8,4.2,2.4,6.1,1C56.9,82.7,58.2,81.3,59.9,79.8 M64.6,75.1c-4.1-4.4-7.9-8.6-11.6-12.5c-2,4.8,1.6,7.9,9.2,14.6
		C63,76.5,63.8,75.8,64.6,75.1 M79.5,88.3c-2.4-1.7-4.6-3.3-6.4-4.6c-0.9,0.7-1.7,1.3-2.7,2C72.9,88.6,76,88.8,79.5,88.3"/>
	<path class="st0" d="M144.5,61.7c0-3.8,0-7.1-0.1-8.5c-0.1-1.7-0.7-2.6-1.4-2.6h-2.1c-0.3,0-0.3-0.2-0.3-0.4v-1.4
		c0-0.3,0.1-0.4,0.3-0.4c0.5,0,2.1,0.2,7.7,0.2c2.9,0,7.4-0.2,9.6-0.2c4,0,7,1.4,9.2,3.4c1.9,1.7,2.9,3.7,2.9,5.6
		c0,6.6-4.9,9.5-9.5,9.9v0.4c1.6,0.5,2.4,1.5,3.4,2.7c0.7,0.8,3.5,5.4,3.9,6.1c0.3,0.5,3.1,4.4,4.1,5.6c0.6,0.7,2.6,1.1,3.8,1.1
		c0.4,0,0.4,0.2,0.4,0.4v1.2c0,0.3-0.1,0.5-0.4,0.5c-0.4,0-1.8-0.2-5.7-0.2c-1.5,0-3.4,0.1-4.9,0.2c-1.6-1.2-4.8-7.2-5.6-8.9
		c-1.8-3.5-3.9-7.3-6.4-7.3h-1.8v2.6c0,3.1,0.2,8.8,0.3,9.5c0.1,1.1,0.5,2,1.3,2h2.1c0.4,0,0.4,0.2,0.4,0.4v1.2
		c0,0.4-0.1,0.5-0.8,0.5c-0.1,0-1.3-0.2-6.8-0.2c-5.5,0-6.7,0.2-7.2,0.2c-0.4,0-0.4-0.2-0.4-0.5v-1.2c0-0.3,0-0.4,0.3-0.4h1.6
		c1.1,0,2.1-0.4,2.1-1.7c0.1-5.1,0.1-10,0.1-14.9V61.7z M151.7,67.3c1,0.1,1.6,0.1,2.1,0.1c6.8,0,8.4-6.5,8.4-8.9
		c0-2.4-0.8-4.7-2-5.8c-1.9-1.7-4.2-2.3-5.7-2.3c-0.9,0-1.6,0.1-2,0.5c-0.3,0.2-0.5,0.8-0.6,1.4L151.7,67.3z"/>
	<path class="st0" d="M196.9,85.7c-0.3,0.1-0.7,0.2-1.1,0.2c-0.5,0-0.8-0.3-0.9-0.6l-0.3-2.8h-0.3c-1,1.8-4,3.4-6.8,3.4
		c-2.1,0-3.6,0-5.4-2.4c-2.2-2.9-2-4.6-2-9l0.1-2.3c0-2,0-4-0.1-5.2c-0.1-1.2-1.1-1.7-1.8-1.8c-0.9-0.2-1.1-0.1-1.1-0.4v-1
		c0-0.3,0.1-0.4,0.6-0.4h7.5c0.3,0,0.5-0.1,0.7-0.1c0.2,0,0.4-0.1,0.6-0.1c0.4,0,0.6,0.3,0.6,0.6c-0.1,0.5-0.2,2.9-0.2,7v2.8
		c0,2.1-0.3,5.9,1,8c0.8,1.2,1.6,1.1,2.5,1.1c0.9,0,2-0.7,2.8-1.7c0.5-0.5,0.8-1.3,0.8-1.9L194,67.1c0-1.3-0.9-1.7-2.2-1.8
		c-0.6-0.1-0.9-0.1-0.9-0.4v-1c0-0.4,0.1-0.5,0.6-0.5h7.7c0.4,0,0.6-0.1,0.9-0.1c0.3,0,0.5-0.1,0.6-0.1c0.3,0,0.5,0.3,0.5,0.5
		c-0.1,0.5-0.3,1.8-0.3,7v3.8c0,2.5,0,5,0.1,5.9c0.2,1.6,0.7,1.8,0.9,1.8c0.3,0,1.1,0,1.7-0.2c0.4-0.1,0.6,0,0.6,0.2l0.2,1
		c0.1,0.3-0.1,0.4-0.3,0.4L196.9,85.7z"/>
	<path class="st0" d="M213,63.1c0.5-0.2,0.8-0.4,1.2-0.4c0.3,0,0.6,0.2,0.7,0.7l0.4,2.9h0.3c1.4-2,4.1-3.6,7.3-3.6
		c3.3,0,4.9,1.5,6.3,3.6h0.3c1.8-2.1,4.3-3.5,6.9-3.5c2.3,0,3.4,0.3,5,2c1.5,1.5,2.2,2,2.2,7.1v3.7c0,1.8-0.2,4.6-0.2,5.7
		c-0.1,1.4,0.7,2,1.5,2h1c0.5,0,0.6,0.1,0.6,0.5v1c0,0.4-0.1,0.5-0.4,0.5c-0.4,0-1.8-0.2-5.6-0.2c-3.1,0-5,0.2-5.3,0.2
		c-0.3,0-0.4-0.2-0.4-0.6v-0.9c0-0.4,0.2-0.5,0.3-0.5h0.5c0.4,0,1-0.3,1-1c0.1-1.2,0.3-3.1,0.3-5v-5c0-3.2-0.2-4.3-0.8-5
		c-0.8-0.9-1.3-1.2-2.5-1.2c-1.4,0-2.5,1.1-3.1,1.7c-0.8,0.9-0.8,2.5-0.8,3.3v10.2c0,1.5,0.3,2,0.9,2h0.9c0.5,0,0.6,0.1,0.6,0.5v0.9
		c0,0.4-0.1,0.6-0.4,0.6c-0.4,0-1.7-0.2-4.9-0.2c-3.8,0-5.6,0.2-5.9,0.2c-0.3,0-0.4-0.2-0.4-0.5v-0.9c0-0.4,0.1-0.5,0.5-0.5h0.7
		c0.7,0,1.2-0.7,1.2-3.7v-7.7c0-3.6-0.5-4.8-1.1-5.3c-0.5-0.5-1.3-0.6-2.4-0.6c-1,0-2.2,0.7-2.8,1.6c-0.7,1-0.9,2.2-0.8,4.2v8.3
		c0,2.6,0.5,3.2,1.1,3.2h0.5c0.5,0,0.5,0.1,0.5,0.5v0.9c0,0.4-0.1,0.6-0.4,0.6c-0.5,0-1.9-0.2-5.5-0.2c-3.5,0-5.1,0.2-5.5,0.2
		c-0.3,0-0.4-0.1-0.4-0.5v-1c0-0.4,0.1-0.5,0.6-0.5h1.4c0.5,0,0.9-0.6,1-1.3c0.1-0.9,0.1-2.2,0.1-3.5v-6.5c0-2.3-0.4-3.1-1.7-3.9
		l-1-0.6c-0.3-0.2-0.4-0.3-0.4-0.4v-0.6c0-0.2,0.1-0.4,0.3-0.5L213,63.1z"/>
	<path class="st0" d="M260.5,68.7c0-1-0.1-2.2-0.8-2.8c-0.5-0.5-1.3-0.6-2.2-0.6c-0.9,0-1.8,0.2-2.7,0.8c-0.8,0.5-0.2,1.4-0.2,3.1
		c0,1.8-1.3,2.9-3.4,2.9c-1.2,0-2.2-0.7-2.2-1.9c0-1.1,0.4-2.7,1.4-3.6c2.2-2,5.7-3.8,9.9-3.8c3.3,0,4.2,0.5,5.3,1.5
		c1.1,1,1.4,2.5,1.4,4.4l0.1,10.3c0.1,2.7,0.2,3.5,1.2,3.5c0.7,0,1.3-0.6,1.5-0.9c0.2-0.3,0.4-0.4,0.5-0.3l0.7,0.4
		c0.2,0.1,0.4,0.3,0.2,0.7c-0.5,1.1-2,3.5-5.2,3.5c-2,0-3.9-0.7-4.9-3.2H261c-1.3,1.2-2.4,1.9-4.4,2.7c-1,0.4-2.2,0.5-3.7,0.5
		c-1.8,0-3.4-2-3.4-4.8c0-2.3,1.1-4.7,4.4-6.3c4-1.9,5.3-2.5,6.7-3.4V68.7z M260.6,73.5c-2.5,1.4-4.7,2.2-4.7,5.8
		c0,2.4,1.1,3.4,2.2,3.4c1.4-0.1,2.4-1.4,2.4-1.9V73.5z"/>
	<path class="st0" d="M281.7,81.3c0,1.6,0.3,2.1,0.8,2.1h1c0.3,0,0.4,0.1,0.4,0.4v1c0,0.4-0.1,0.6-0.4,0.6c-0.4,0-2.8-0.2-5.8-0.2
		c-3.6,0-5.6,0.2-6.1,0.2c-0.2,0-0.4-0.2-0.4-0.5v-1c0-0.4,0.2-0.4,0.8-0.4h0.8c0.8,0,1.6-0.2,1.8-0.9c0.3-0.9,0.3-1.9,0.3-3.4
		l-0.1-21.5c0-2.6-0.7-4.1-2.4-4.8l-0.9-0.3c-0.3-0.2-0.4-0.3-0.4-0.5v-0.7c0-0.2,0.2-0.4,0.9-0.6c2.8-0.8,4.7-1.7,7.8-3.2
		c0.7-0.3,1.1-0.5,1.6-0.5c0.5,0,0.6,0.4,0.5,1.3c-0.1,0.9-0.2,11.4-0.2,14.4v3.1h0.4c1.2-2,3.8-3.2,6.6-3.2c2.3,0,3.7,0.7,5.3,2
		c2.4,2,2.2,4.6,2.2,7.9v3.2c0,2.6-0.1,5.7-0.1,6.7c0,0.7,1,0.8,1.7,0.8h1c0.4,0,0.6,0.1,0.6,0.4v1.1c0,0.3-0.1,0.5-0.4,0.5
		c-0.4,0-2-0.2-5.6-0.2c-3.6,0-5.4,0.2-5.9,0.2c-0.4,0-0.5-0.2-0.5-0.6v-1c0-0.3,0.1-0.4,0.4-0.4h0.7c0.5,0,1.1-0.3,1.2-1
		c0.1-0.7,0.2-3.5,0.2-5v-3.2c0-2.5,0.2-6.2-1.2-7.5c-0.7-0.7-1.3-1-2.4-1c-1.1,0-2.3,0.9-3.1,1.8c-0.4,0.5-0.9,1.2-0.9,2.5V81.3z"
		/>
	<path class="st0" d="M313.8,65.3h0.9c0.4,0,1-0.3,1.4-0.7c0.9-0.7,9.3-11.3,10-12.2c0.9-1.2,0-2-1-2h-0.9c-0.2,0-0.3-0.1-0.3-0.4
		v-1.3c0-0.3,0.1-0.4,0.3-0.4c0.6,0,2.7,0.2,6.8,0.2c2.5,0,4.3-0.2,5-0.2c0.3,0,0.4,0.1,0.4,0.4v1.4c0,0.3-0.2,0.4-0.4,0.4h-0.8
		c-0.7,0-2,0.3-3,0.9c-2.8,1.7-9.6,9.5-11.3,11.8c3.3,4.2,11.7,16,14,18.7c1,1.1,2.2,1.3,2.8,1.3h0.6c0.3,0,0.4,0.2,0.4,0.4V85
		c0,0.3-0.1,0.4-0.4,0.4c-0.5,0-2.2-0.2-7.4-0.2c-4.3,0-6.3,0.2-7,0.2c-0.2,0-0.3-0.1-0.3-0.4v-1.3c0-0.2,0.1-0.3,0.3-0.3h0.8
		c0.9,0,0.9-0.9,0.7-1.3c-0.5-1-8.5-12.9-9.4-13.9c-0.3-0.4-0.8-0.7-1.4-0.7h-0.7v3.9c0,2.6,0.1,10.2,0.2,10.9
		c0.1,0.7,0.5,1.1,1.2,1.1h1.6c0.3,0,0.4,0.1,0.4,0.3V85c0,0.2-0.1,0.4-0.3,0.4c-0.6,0-2.2-0.2-7-0.2c-4.8,0-6.4,0.2-6.9,0.2
		c-0.3,0-0.4-0.1-0.4-0.4v-1.4c0-0.3,0.2-0.3,0.4-0.3h1.6c0.9,0,1.3-0.4,1.4-0.9c0.1-0.5,0.2-9.8,0.2-16.2v-3
		c0-0.9-0.2-10.8-0.2-11.3c0-0.6-0.3-1.2-1.6-1.2h-1.3c-0.3,0-0.4-0.1-0.4-0.4v-1.4c0-0.2,0.1-0.3,0.4-0.3c0.6,0,2.2,0.2,6.8,0.2
		c4.5,0,6.2-0.2,6.9-0.2c0.3,0,0.4,0.1,0.4,0.4v1.3c0,0.3-0.1,0.4-0.4,0.4h-1.2c-1,0-1.7,0.4-1.7,1.5c0,0.8-0.2,8.8-0.2,11.4V65.3z"
		/>
	<path class="st0" d="M352.3,68.7c0-1-0.1-2.2-0.8-2.8c-0.5-0.5-1.3-0.6-2.2-0.6c-0.9,0-1.8,0.2-2.7,0.8c-0.8,0.5-0.2,1.4-0.2,3.1
		c0,1.8-1.3,2.9-3.4,2.9c-1.2,0-2.2-0.7-2.2-1.9c0-1.1,0.4-2.7,1.4-3.6c2.2-2,5.7-3.8,9.9-3.8c3.3,0,4.2,0.5,5.3,1.5
		c1.1,1,1.4,2.5,1.4,4.4l0.1,10.3c0.1,2.7,0.2,3.5,1.2,3.5c0.7,0,1.3-0.6,1.5-0.9c0.2-0.3,0.4-0.4,0.5-0.3l0.7,0.4
		c0.2,0.1,0.4,0.3,0.2,0.7c-0.5,1.1-2,3.5-5.2,3.5c-2,0-3.9-0.7-4.9-3.2h-0.3c-1.3,1.2-2.4,1.9-4.4,2.7c-1,0.4-2.2,0.5-3.7,0.5
		c-1.8,0-3.4-2-3.4-4.8c0-2.3,1.1-4.7,4.4-6.3c4-1.9,5.3-2.5,6.7-3.4V68.7z M352.4,73.5c-2.5,1.4-4.7,2.2-4.7,5.8
		c0,2.4,1.1,3.4,2.2,3.4c1.4-0.1,2.4-1.4,2.4-1.9V73.5z"/>
	<path class="st0" d="M373.7,81.3c0,1.6,0.5,2.1,1.6,2.1h2.1c0.3,0,0.4,0.2,0.4,0.5v1c0,0.3-0.1,0.5-0.3,0.5c-0.3,0-2.7-0.2-7.3-0.2
		c-4,0-6.2,0.2-6.5,0.2c-0.2,0-0.3-0.1-0.3-0.5v-1c0-0.4,0.1-0.5,0.6-0.5h1.5c0.8,0,1.2-0.3,1.3-1.2c0.1-1.4,0.1-3.3,0.1-5.8V72
		c0-2.2-0.5-3.2-2.1-4l-0.9-0.5c-0.3-0.2-0.4-0.3-0.4-0.5v-0.5c0-0.2,0.1-0.3,0.4-0.4l7.2-3.2c0.3-0.1,0.5-0.2,0.8-0.2
		c0.4,0,0.6,0.3,0.6,0.6l0.5,4h0.4c1.6-3.4,3.9-5,6.2-5c1.6,0,2.7,1.2,2.7,3c0,1.4-1.6,2.9-3.3,2.9c-0.7,0-1.4-0.2-1.9-0.5
		c-0.4-0.3-0.9-0.4-1.3-0.4c-0.5,0-1,0.3-1.3,0.9c-0.7,1.4-0.9,2.4-0.9,3.1V81.3z"/>
	<path class="st0" d="M383.3,96.3c0-1.7,1.2-2.9,2.5-2.9c0.7,0,1.4,0.2,2.2,0.6c0.6,0.4,1.2,0.5,1.7,0.2c0.5-0.4,3.2-6,3.8-7.8
		c-0.4-1.8-6.9-17.9-7.2-18.8c-0.5-1.3-1.1-2.2-1.8-2.2h-0.8c-0.4,0-0.4-0.2-0.4-0.5v-1.1c0-0.2,0.1-0.4,0.4-0.4
		c0.5,0,1.7,0.2,6.2,0.2c3.2,0,4.8-0.2,5.3-0.2c0.4,0,0.5,0.2,0.5,0.5v1.1c0,0.3-0.1,0.4-0.3,0.4h-0.7c-0.6,0-1,0.4-0.9,1.2
		c0.2,0.9,3.1,10.9,3.4,12h0.3c1.3-2.9,4.1-10.1,4.4-11.1c0.4-1.4-0.3-2.1-1.3-2.1h-0.8c-0.3,0-0.4-0.2-0.4-0.4v-1.1
		c0-0.3,0.1-0.4,0.3-0.4c0.7,0,1.8,0.2,4.7,0.2c2.2,0,3.4-0.2,3.9-0.2c0.3,0,0.3,0.2,0.3,0.5v1c0,0.3,0,0.5-0.3,0.5h-0.6
		c-0.6,0-1.3,0.2-1.9,1c-0.9,1.2-4.6,8.9-8.5,17.4c-2.6,5.6-4.9,10.4-5.8,12.1c-0.8,1.4-2,3.4-4.9,3.4
		C384.7,99.3,383.3,98.2,383.3,96.3"/>
	<path class="st0" d="M420.3,68.7c0-1-0.1-2.2-0.8-2.8c-0.5-0.5-1.3-0.6-2.2-0.6c-0.9,0-1.8,0.2-2.7,0.8c-0.8,0.5-0.2,1.4-0.2,3.1
		c0,1.8-1.3,2.9-3.4,2.9c-1.2,0-2.2-0.7-2.2-1.9c0-1.1,0.4-2.7,1.4-3.6c2.2-2,5.7-3.8,9.9-3.8c3.3,0,4.2,0.5,5.3,1.5
		c1.1,1,1.4,2.5,1.4,4.4l0.1,10.3c0.1,2.7,0.2,3.5,1.2,3.5c0.7,0,1.3-0.6,1.5-0.9c0.2-0.3,0.4-0.4,0.5-0.3l0.7,0.4
		c0.2,0.1,0.4,0.3,0.2,0.7c-0.5,1.1-2,3.5-5.2,3.5c-2,0-3.9-0.7-4.9-3.2h-0.3c-1.3,1.2-2.4,1.9-4.4,2.7c-1,0.4-2.2,0.5-3.7,0.5
		c-1.8,0-3.4-2-3.4-4.8c0-2.3,1.1-4.7,4.4-6.3c4-1.9,5.3-2.5,6.7-3.4V68.7z M420.3,73.5c-2.5,1.4-4.7,2.2-4.7,5.8
		c0,2.4,1.1,3.4,2.2,3.4c1.4-0.1,2.4-1.4,2.4-1.9V73.5z"/>
	<path class="st0" d="M433.8,81.8c0-1.6,1.2-3.9,4.2-3.9c2.2,0,4,1.7,4,4.1c0,2.3-1.7,3.9-3.9,3.9C435.7,85.9,433.8,84.2,433.8,81.8
		"/>
	<path class="st0" d="M459.1,85.4c-0.4,0-2.8-0.2-7.3-0.2c-3,0-5,0.2-5.6,0.2c-0.3,0-0.4-0.1-0.4-0.5v-1c0-0.3,0.2-0.4,0.5-0.4h1.9
		c0.6,0,0.9-0.2,1-1c0.1-1.6,0.1-3.2,0.1-4.6l-0.1-7.2c0-1.4-0.3-2.5-2.5-3.3c-0.6-0.2-0.6-0.4-0.6-0.7V66c0-0.2,0.1-0.3,0.6-0.4
		l7.7-2.5c0.6-0.2,1-0.3,1.4-0.3c0.4,0,0.6,0.3,0.5,0.6c-0.1,0.9-0.1,4.1-0.1,8.7v5.5c0,2,0,3.9,0.1,4.4c0.1,1,0.4,1.3,0.9,1.3h1.9
		c0.4,0,0.5,0.2,0.5,0.5v1C459.6,85.2,459.5,85.4,459.1,85.4 M452,58.8c-2.2,0.1-3.8-1.7-3.8-3.7c0-1.7,1.8-3.4,4-3.4
		c2.5,0,3.8,1.8,3.8,3.3C456.1,56.7,454.9,58.7,452,58.8"/>
	<path class="st0" d="M477,53c-0.1-1.4-0.6-2.3-3.4-2.9c-0.3-0.1-0.4-0.2-0.4-0.4v-1c0-0.2,0.1-0.4,0.4-0.4c3.1-0.3,7-0.6,8.7-0.9
		c0.7-0.2,0.9-0.3,1.3-0.3c0.3,0,0.5,0.4,0.5,0.9c-0.2,2.6-0.3,10.1-0.3,17.4v11.4c0,1.9,0,3.9,0.5,4.8c0.4,0.7,1.1,0.7,2.3,0.6
		c0.6-0.1,0.8,0.1,0.8,0.4l0.2,0.8c0.1,0.3-0.1,0.5-0.4,0.6l-7.8,2c-0.3,0.1-0.6-0.1-0.7-0.5l-0.8-2.6c-1.7,1.9-4.7,3.2-6.9,3.2
		c-2.7,0-3.7-0.2-6.2-2.5c-2-1.8-3.3-3.9-3.3-7.3c0-4.1,0.7-6.8,3.6-10c2-2.2,4.4-3.3,7.7-3.3c1.7,0,3.2,0.3,4.2,0.7L477,53z
		 M477.1,69.6c0-0.9-0.1-1.8-0.4-2.5c-0.8-1.4-2.5-2.3-3.9-2.3c-0.9,0-1.9,0.4-2.7,1.4c-1.2,1.7-1.7,3.5-1.7,5.9
		c0,6.1,2.6,10.3,5.8,10.3c1.4,0,2-0.5,2.5-1c0.4-0.4,0.5-1.3,0.5-2.5L477.1,69.6z"/>
</g>
</svg>
