<?xml version="1.0" encoding="utf-8"?>
<!-- Generator: Adobe Illustrator 23.0.5, SVG Export Plug-In . SVG Version: 6.00 Build 0)  -->
<svg version="1.1" id="Layer_1" xmlns="http://www.w3.org/2000/svg" xmlns:xlink="http://www.w3.org/1999/xlink" x="0px" y="0px"
	 viewBox="0 0 9126.7 3516.4" style="enable-background:new 0 0 9126.7 3516.4;" xml:space="preserve">
<style type="text/css">
	.st0{fill:#83911C;}
	.st1{fill:#F9E8A2;}
	.st2{fill:#E0BB20;}
	.st3{fill:#FFD72E;}
	.st4{fill:#DDA210;}
</style>
<polygon class="st0" points="2755.1,3059.8 2459.1,2999.5 2393.8,3294.6 2116.7,3174.1 1991.5,3449.1 1745.4,3273.6 1565.6,3516.4 
	1361.7,3293.7 1135.2,3493.8 981.8,3233.6 719.1,3382.3 623.1,3095.8 334.9,3186.8 300.7,2886.6 0,2915.4 2915.4,0 2886.6,300.7 
	3186.8,334.9 3095.8,623.1 3382.5,718.8 3233.6,981.8 3493.8,1135.2 3293.7,1361.7 3516.4,1565.6 3273.6,1745.4 3449.1,1991.5 
	3174.1,2116.7 3294.6,2393.8 2999.5,2459.1 3059.8,2755.1 2757.8,2757.5 "/>
<path class="st1" d="M2475.4,2797.7l-104.4-21.3c-36.3-7.4-71.9,15.7-79.9,51.9l-23,104.1c-9.2,41.7-54.2,64.7-93.4,47.6l-97.7-42.5
	c-34-14.8-73.6,0.4-88.9,34.1l-44.2,97.1c-17.7,38.9-66.5,52-101.2,27.2l-87-62c-30.2-21.5-72-14.9-94,14.9l-63.5,85.7
	c-25.4,34.3-75.8,37-104.7,5.5l-71.9-78.6c-25-27.3-67.3-29.6-95.1-5l-80.1,70.7c-32,28.3-81.8,20.4-103.5-16.4l-54.2-91.9
	c-18.8-31.9-59.7-42.9-92-24.6l-92.7,52.4c-37.2,21-84.3,3-97.9-37.5l-33.9-101.1c-11.8-35.1-49.5-54.4-84.9-43.2l-101.8,32.1
	c-40.7,12.9-83.1-14.6-87.9-57.1l-12.1-106c-4.2-36.8-37.1-63.5-74-59.9h0c-63.4,6.1-99.5-70.6-54.5-115.6L2558.2,357.2
	c45-45,121.7-8.9,115.6,54.5v0c-3.5,36.9,23.1,69.8,59.9,74l106,12.1c42.4,4.8,69.9,47.2,57.1,87.9l-32.1,101.7
	c-11.2,35.4,8.1,73.1,43.3,84.9l101.1,33.7c40.5,13.5,58.7,60.7,37.6,97.9l-52.5,92.8c-18.3,32.2-7.3,73.2,24.6,92l91.9,54.2
	c36.8,21.7,44.7,71.5,16.4,103.5l-70.7,80.1c-24.5,27.8-22.3,70,5,95.1l78.6,71.9c31.5,28.8,28.9,79.3-5.5,104.7l-85.7,63.5
	c-29.8,22-36.4,63.9-14.9,94l62,87c24.8,34.8,11.7,83.5-27.2,101.2l-97.1,44.2c-33.7,15.4-48.9,54.9-34.1,88.9l42.5,97.7
	c17,39.2-5.9,84.2-47.6,93.4l-104.1,23c-36.2,8-59.3,43.6-51.9,79.9l21.3,104.4c8.5,41.9-23.3,81.1-66,81.5l-106.5,0.9
	c-37.1,0.3-67,30.3-67.4,67.3l-0.9,106.8C2556.5,2774.4,2517.2,2806.2,2475.4,2797.7z"/>
<path class="st1" d="M2418.9,2419c-536.3,536.3-1400.8,544.8-1947.2,25L2444.2,471.5C2964,1018.2,2955.5,1882.7,2418.9,2419z"/>
<path class="st2" d="M2439.2,2440.5c-536.3,536.3-1421.2,523.3-1967.6,3.4L2444.2,471.5C2964,1018.2,2975.8,1904.2,2439.2,2440.5z"
	/>
<path class="st3" d="M2380.4,2380.4c-509.6,509.6-1335.9,509.6-1845.5,0c-18.5-18.5-77.4,49.3,57.9-219.8
	c107.2-213.2,455.4-565.7,746.7-694.8c276.3-122.4,462.4-762.7,675.3-870.1c269.5-135.9,324.9-101.6,365.6-60.9
	C2890.1,1044.6,2890.1,1870.8,2380.4,2380.4z"/>
<g>
	<path class="st0" d="M3941,1248.5V710.7c0-5.2,1.8-9.7,5.5-13.4c3.7-3.7,8.1-5.5,13.4-5.5h214.6c82.3,0,149.6,24.1,202.1,72.3
		c28.3,26.2,49.8,57.4,64.5,93.6c14.7,36.2,22,76.8,22,121.9c0,45.1-7.3,85.8-22,122.3c-14.7,36.4-36.2,67.7-64.5,94
		c-26.2,23.6-56.2,41.4-90,53.5c-33.8,12.1-71.2,18.1-112,18.1h-214.6c-5.2,0-9.7-1.8-13.4-5.5
		C3942.8,1258.2,3941,1253.7,3941,1248.5z M4115.5,1122.7h59c14.7,0,29.9-1.8,45.6-5.5c15.7-3.7,29.9-10.6,42.5-20.8
		c12.6-10.2,22.9-24.6,31.1-43.2c8.1-18.6,12.2-42.8,12.2-72.7s-4.1-54.1-12.2-72.7c-8.1-18.6-18.6-33-31.4-43.2
		c-12.8-10.2-27-17.2-42.5-20.8c-15.5-3.7-30.5-5.5-45.2-5.5h-59c-5.2,0-9.7,1.8-13.4,5.5c-3.7,3.7-5.5,8.1-5.5,13.4v246.9
		c0,5.2,1.8,9.7,5.5,13.4C4105.8,1120.8,4110.3,1122.7,4115.5,1122.7z"/>
	<path class="st0" d="M4557.4,711.5c0-5.2,1.8-9.7,5.5-13.4c3.6-3.7,8.1-5.5,13.3-5.5h118.1c5.2,0,9.6,1.8,13.3,5.5
		c3.6,3.7,5.5,8.1,5.5,13.4v318.4c0,20.4,3.3,37.3,9.9,50.7s14.7,23.9,24.5,31.4c9.7,7.6,20.1,13,31.2,16.1
		c11.1,3.1,21.1,4.7,30,4.7s18.9-1.6,30-4.7c11.1-3.1,21.3-8.5,30.8-16.1c9.5-7.6,17.5-18.1,24.1-31.4c6.6-13.4,9.9-30.3,9.9-50.7
		V711.5c0-5.2,1.8-9.7,5.5-13.4c3.6-3.7,8.1-5.5,13.3-5.5h118.1c5.2,0,9.6,1.8,13.3,5.5c3.6,3.7,5.5,8.1,5.5,13.4v318.4
		c0,37.2-5.9,71-17.7,101.4c-11.8,30.4-28.6,56.3-50.6,77.8c-22,21.5-48.4,38.1-79.3,49.9c-30.9,11.8-65.2,17.7-102.8,17.7
		c-37.7,0-72-5.9-102.8-17.7c-30.9-11.8-57.3-28.4-79.3-49.9c-22-21.5-39-47.4-51-77.8c-12-30.4-18-64.2-18-101.4V711.5z"/>
	<path class="st0" d="M5314.4,1267.3h-117.7c-5.3,0-9.8-1.8-13.4-5.5c-3.7-3.7-5.5-8.1-5.5-13.4V710.7c0-5.2,1.8-9.7,5.5-13.4
		c3.7-3.7,8.1-5.5,13.4-5.5H5441c30.4,0,58.4,5.1,84.1,15.3c25.7,10.2,47.6,24.5,65.6,42.8c18.1,18.4,32.2,40.1,42.5,65.3
		c10.2,25.2,15.3,52.9,15.3,83.3c0,16.8-2,33.4-5.9,49.9c-3.9,16.5-9.6,32.1-16.9,46.8c-7.3,14.7-16,27.9-25.9,39.7
		c-10,11.8-21.2,21.6-33.8,29.5c-4.2,3.1-7,7-8.3,11.4c-1.3,4.5-0.4,8.8,2.8,13c19.9,26.2,40.9,53.2,62.9,81
		c22,27.8,41.7,53.2,59,76.3c3.1,4.2,3.9,8.8,2.4,13.8c-1.6,5-5,7.5-10.2,7.5h-146.2c-5.2,0-10.9-1.4-16.9-4.3
		c-6-2.9-10.6-6.4-13.8-10.6c-16.7-22-33.3-44.3-49.7-66.8c-16.4-22.5-32.7-45.3-48.9-68.4c-3.1-4.2-7.6-7.7-13.3-10.6
		c-5.7-2.9-11.2-4.3-16.4-4.3h-17.2c-5.2,0-9.7,1.8-13.3,5.5c-3.7,3.7-5.5,8.1-5.5,13.4v127.4c0,5.2-1.9,9.7-5.5,13.4
		C5324.1,1265.5,5319.6,1267.3,5314.4,1267.3z M5352.1,957.6h82.9c6.3,0,12.8-1.2,19.6-3.5c6.8-2.4,13-6,18.8-11
		c5.7-5,10.4-11.1,14.1-18.5c3.6-7.3,5.5-16,5.5-25.9c0-5.2-0.9-11.4-2.7-18.5c-1.8-7.1-5-13.9-9.4-20.4c-4.4-6.5-10.4-12.1-18-16.5
		c-7.6-4.4-16.8-6.7-27.8-6.7h-82.9c-5.2,0-9.6,1.8-13.3,5.5c-3.7,3.7-5.5,8.1-5.5,13.4v83.3c0,5.2,1.8,9.7,5.5,13.4
		C5342.5,955.7,5346.9,957.6,5352.1,957.6z"/>
	<path class="st0" d="M5886.1,1267.3H5768c-5.7,0-10.3-1.8-13.7-5.5c-3.4-3.7-5.1-8.1-5.1-13.4v-537c0-5.2,1.7-9.7,5.1-13.4
		c3.4-3.7,7.9-5.5,13.7-5.5h118.1c5.2,0,9.6,1.8,13.3,5.5c3.6,3.7,5.5,8.1,5.5,13.4v537c0,5.2-1.8,9.7-5.5,13.4
		C5895.8,1265.5,5891.3,1267.3,5886.1,1267.3z"/>
	<path class="st0" d="M6180.1,709.9c2.1-4.7,5.6-8.8,10.6-12.2c5-3.4,10.3-5.1,16.1-5.1h110.1c5.2,0,10.3,1.7,15.3,5.1
		c5,3.4,8.5,7.5,10.6,12.2l229.6,534.6c2.1,4.7,1.7,9.7-1.2,14.9c-2.9,5.2-8.5,7.9-16.9,7.9h-134.4c-5.8,0-11.1-1.7-16.1-5.1
		c-5-3.4-8.8-7.5-11.4-12.2l-21.2-47.2c-2.6-4.7-6.4-8.8-11.4-12.2c-5-3.4-10.1-5.1-15.3-5.1h-165.9c-5.8,0-11.1,1.7-16.1,5.1
		c-5,3.4-8.5,7.5-10.6,12.2l-22,47.2c-2.1,4.7-5.6,8.8-10.6,12.2c-5,3.4-10.1,5.1-15.3,5.1h-135.2c-2.6,0-5.4-0.5-8.3-1.6
		c-2.9-1-5.2-2.6-7.1-4.7c-1.8-2.1-3-4.7-3.5-7.9c-0.5-3.1,0.3-6.8,2.4-11L6180.1,709.9z M6226.4,1051.9h70c5.2,0,9-1.7,11.4-5.1
		c2.4-3.4,2.2-7.5-0.4-12.2c-5.2-13.1-11.5-28.4-18.9-46c-7.3-17.6-14.2-33.9-20.4-49.1c-2.1-4.7-4.5-7.1-7.1-7.1
		c-2.6,0-5,2.4-7.1,7.1l-39.3,95.1c-2.1,4.7-2.1,8.8,0,12.2C6216.7,1050.2,6220.7,1051.9,6226.4,1051.9z"/>
	<path class="st0" d="M7168.3,710.7v537.8c0,5.2-1.8,9.7-5.5,13.4c-3.7,3.7-8.1,5.5-13.3,5.5h-116.1c-5.2,0-10.7-1.6-16.5-4.7
		c-5.7-3.1-10.2-6.8-13.3-11l-204.8-288.5c-3.1-4.2-6.4-5.9-9.8-5.1c-3.4,0.8-5.1,3.8-5.1,9v281.5c0,5.2-1.9,9.7-5.5,13.4
		c-3.7,3.7-8.2,5.5-13.4,5.5h-117.7c-5.3,0-9.8-1.8-13.4-5.5c-3.7-3.7-5.5-8.1-5.5-13.4V710.7c0-5.2,1.8-9.7,5.5-13.4
		c3.7-3.7,8.1-5.5,13.4-5.5H6765c5.2,0,10.7,1.4,16.5,4.3c5.8,2.9,10.2,6.4,13.4,10.6l204.4,288.5c3.1,4.2,6.4,6,9.8,5.5
		c3.4-0.5,5.1-3.4,5.1-8.6V710.7c0-5.2,1.8-9.7,5.5-13.4c3.7-3.7,8.1-5.5,13.4-5.5h116.4c5.2,0,9.7,1.8,13.4,5.5
		C7166.5,701,7168.3,705.5,7168.3,710.7z"/>
</g>
<g>
	<path class="st4" d="M4480.3,1630.9v537.8c0,5.2-1.8,9.7-5.5,13.4c-3.7,3.7-8.1,5.5-13.3,5.5h-116.1c-5.2,0-10.7-1.6-16.5-4.7
		c-5.7-3.1-10.2-6.8-13.3-11l-204.8-288.5c-3.1-4.2-6.4-5.9-9.8-5.1c-3.4,0.8-5.1,3.8-5.1,9v281.5c0,5.2-1.9,9.7-5.5,13.4
		c-3.7,3.7-8.2,5.5-13.4,5.5h-117.7c-5.3,0-9.8-1.8-13.4-5.5c-3.7-3.7-5.5-8.1-5.5-13.4v-537.8c0-5.2,1.8-9.7,5.5-13.4
		c3.7-3.7,8.1-5.5,13.4-5.5H4077c5.2,0,10.7,1.4,16.5,4.3c5.8,2.9,10.2,6.4,13.4,10.6l204.4,288.5c3.1,4.2,6.4,6,9.8,5.5
		c3.4-0.5,5.1-3.4,5.1-8.6v-281.5c0-5.2,1.8-9.7,5.5-13.4c3.7-3.7,8.1-5.5,13.4-5.5h116.4c5.2,0,9.7,1.8,13.4,5.5
		C4478.5,1621.3,4480.3,1625.7,4480.3,1630.9z"/>
	<path class="st4" d="M4598.2,1631.7c0-5.2,1.8-9.7,5.5-13.4c3.6-3.7,8.1-5.5,13.3-5.5h118.1c5.2,0,9.6,1.8,13.3,5.5
		c3.6,3.7,5.5,8.1,5.5,13.4v318.4c0,20.4,3.3,37.3,9.9,50.7c6.6,13.4,14.7,23.9,24.5,31.4c9.7,7.6,20.1,13,31.2,16.1
		c11.1,3.1,21.1,4.7,30,4.7c8.9,0,18.9-1.6,30-4.7c11.1-3.1,21.3-8.5,30.8-16.1c9.5-7.6,17.5-18.1,24.1-31.4
		c6.6-13.4,9.9-30.3,9.9-50.7v-318.4c0-5.2,1.8-9.7,5.5-13.4c3.6-3.7,8.1-5.5,13.3-5.5h118.1c5.2,0,9.6,1.8,13.3,5.5
		c3.6,3.7,5.5,8.1,5.5,13.4v318.4c0,37.2-5.9,71-17.7,101.4c-11.8,30.4-28.6,56.3-50.6,77.8c-22,21.5-48.4,38.1-79.3,49.9
		c-30.9,11.8-65.2,17.7-102.8,17.7c-37.7,0-72-5.9-102.8-17.7c-30.9-11.8-57.3-28.4-79.3-49.9c-22-21.5-39-47.4-51-77.8
		c-12-30.4-18-64.2-18-101.4V1631.7z"/>
	<path class="st4" d="M5257.8,1990.2c28.3,18.4,56.3,32.8,84.1,43.2c27.8,10.5,53.7,15.7,77.8,15.7c23.1,0,40.6-3.3,52.7-9.8
		c12.1-6.5,18.1-16.4,18.1-29.5c0-6.8-2.6-12.2-7.9-16.1c-5.2-3.9-12.2-7.2-20.8-9.8c-8.6-2.6-18.7-4.7-30.3-6.3
		c-11.5-1.6-23.3-3.7-35.4-6.3c-11.5-2.1-25-4.6-40.5-7.5c-15.5-2.9-31.3-7.1-47.6-12.6c-16.3-5.5-32.4-12.4-48.4-20.8
		c-16-8.4-30.3-19.1-42.8-32.2c-12.6-13.1-22.7-28.7-30.3-46.8c-7.6-18.1-11.4-39.4-11.4-64.1c0-36.2,7.1-66,21.2-89.6
		s32.1-42.3,53.9-56.2c21.7-13.9,46-23.6,72.7-29.1c26.7-5.5,52.7-8.3,77.8-8.3c44,0,83.5,6.4,118.3,19.3
		c34.9,12.8,68.3,31.6,100.2,56.2c4.2,3.7,6.5,8.1,7.1,13.4c0.5,5.2-0.8,10-3.9,14.2l-61.3,87.3c-3.1,4.2-7.3,6.8-12.6,7.9
		c-5.2,1.1-10,0-14.2-3.1c-26.7-16.8-51.6-28.7-74.7-35.8c-23.1-7.1-44.3-10.6-63.7-10.6c-5.8,0-12.5,0.1-20,0.4
		c-7.6,0.3-14.8,1.3-21.6,3.1c-6.8,1.8-12.5,4.9-16.9,9c-4.5,4.2-6.7,10-6.7,17.3c0,7.3,5.5,13.9,16.5,19.7
		c11,5.8,23.6,10.7,37.7,14.9c14.2,4.2,27.8,7.5,40.9,9.8c13.1,2.4,21.5,3.8,25.2,4.3c18.9,3.7,39.6,9,62.1,16.1
		c22.5,7.1,43.6,17.6,63.3,31.4c19.7,13.9,36.2,32,49.5,54.2c13.4,22.3,20,50.2,20,83.7c0,31.4-5.5,58.6-16.5,81.4
		s-26.3,41.5-46,56.2c-19.7,14.7-43.2,25.6-70.8,32.6c-27.5,7.1-58.1,10.6-91.6,10.6c-27.3,0-52.7-2.2-76.3-6.7
		c-23.6-4.4-45.6-10.6-66-18.5c-20.4-7.9-39.4-17.2-57-27.9c-17.6-10.7-33.7-22.1-48.4-34.2c-4.2-3.1-6.6-7.5-7.1-13
		c-0.5-5.5,0.8-10.3,3.9-14.5l60.5-87.3c3.1-4.2,7.3-6.8,12.6-7.9C5248.9,1986.8,5253.6,1987.6,5257.8,1990.2z"/>
	<path class="st4" d="M5878.2,1630.2c2.1-4.7,5.6-8.8,10.6-12.2c5-3.4,10.3-5.1,16.1-5.1H6015c5.2,0,10.3,1.7,15.3,5.1
		c5,3.4,8.5,7.5,10.6,12.2l229.6,534.6c2.1,4.7,1.7,9.7-1.2,14.9c-2.9,5.2-8.5,7.9-16.9,7.9H6118c-5.8,0-11.1-1.7-16.1-5.1
		c-5-3.4-8.8-7.5-11.4-12.2l-21.2-47.2c-2.6-4.7-6.4-8.8-11.4-12.2c-5-3.4-10.1-5.1-15.3-5.1h-165.9c-5.8,0-11.1,1.7-16.1,5.1
		c-5,3.4-8.5,7.5-10.6,12.2l-22,47.2c-2.1,4.7-5.6,8.8-10.6,12.2c-5,3.4-10.1,5.1-15.3,5.1h-135.2c-2.6,0-5.4-0.5-8.3-1.6
		c-2.9-1-5.2-2.6-7.1-4.7c-1.8-2.1-3-4.7-3.5-7.9c-0.5-3.1,0.3-6.8,2.4-11L5878.2,1630.2z M5924.5,1972.2h70c5.2,0,9-1.7,11.4-5.1
		c2.4-3.4,2.2-7.5-0.4-12.2c-5.2-13.1-11.5-28.4-18.9-46c-7.3-17.6-14.2-33.9-20.4-49.1c-2.1-4.7-4.5-7.1-7.1-7.1
		c-2.6,0-5,2.4-7.1,7.1l-39.3,95.1c-2.1,4.7-2.1,8.8,0,12.2C5914.8,1970.5,5918.8,1972.2,5924.5,1972.2z"/>
	<path class="st4" d="M6866.4,1630.9v537.8c0,5.2-1.8,9.7-5.5,13.4c-3.7,3.7-8.1,5.5-13.3,5.5h-116.1c-5.2,0-10.7-1.6-16.5-4.7
		c-5.7-3.1-10.2-6.8-13.3-11l-204.8-288.5c-3.1-4.2-6.4-5.9-9.8-5.1c-3.4,0.8-5.1,3.8-5.1,9v281.5c0,5.2-1.9,9.7-5.5,13.4
		c-3.7,3.7-8.2,5.5-13.4,5.5h-117.7c-5.3,0-9.8-1.8-13.4-5.5c-3.7-3.7-5.5-8.1-5.5-13.4v-537.8c0-5.2,1.8-9.7,5.5-13.4
		c3.7-3.7,8.1-5.5,13.4-5.5h117.9c5.2,0,10.7,1.4,16.5,4.3c5.8,2.9,10.2,6.4,13.4,10.6l204.4,288.5c3.1,4.2,6.4,6,9.8,5.5
		c3.4-0.5,5.1-3.4,5.1-8.6v-281.5c0-5.2,1.8-9.7,5.5-13.4c3.7-3.7,8.1-5.5,13.4-5.5h116.4c5.2,0,9.7,1.8,13.4,5.5
		C6864.6,1621.3,6866.4,1625.7,6866.4,1630.9z"/>
	<path class="st4" d="M7369.6,1756.7h-110.1c-5.2,0-9.7,1.8-13.4,5.5c-3.7,3.7-5.5,8.1-5.5,13.4v393.1c0,5.2-1.7,9.7-5.1,13.4
		c-3.4,3.7-8,5.5-13.8,5.5h-117.9c-5.2,0-9.7-1.8-13.4-5.5c-3.7-3.7-5.5-8.1-5.5-13.4v-393.1c0-5.2-1.7-9.7-5.1-13.4
		c-3.4-3.7-8-5.5-13.8-5.5h-111.6c-5.2,0-9.7-1.8-13.4-5.5c-3.7-3.7-5.5-8.1-5.5-13.4v-106.9c0-5.2,1.8-9.7,5.5-13.4
		c3.7-3.7,8.1-5.5,13.4-5.5h415.1c5.8,0,10.3,1.8,13.8,5.5c3.4,3.7,5.1,8.1,5.1,13.4v106.9c0,5.2-1.7,9.7-5.1,13.4
		C7379.9,1754.9,7375.3,1756.7,7369.6,1756.7z"/>
	<path class="st4" d="M7557.5,1630.2c2.1-4.7,5.6-8.8,10.6-12.2c5-3.4,10.3-5.1,16.1-5.1h110.1c5.2,0,10.3,1.7,15.3,5.1
		c5,3.4,8.5,7.5,10.6,12.2l229.6,534.6c2.1,4.7,1.7,9.7-1.2,14.9c-2.9,5.2-8.5,7.9-16.9,7.9h-134.4c-5.8,0-11.1-1.7-16.1-5.1
		c-5-3.4-8.8-7.5-11.4-12.2l-21.2-47.2c-2.6-4.7-6.4-8.8-11.4-12.2c-5-3.4-10.1-5.1-15.3-5.1h-165.9c-5.8,0-11.1,1.7-16.1,5.1
		c-5,3.4-8.5,7.5-10.6,12.2l-22,47.2c-2.1,4.7-5.6,8.8-10.6,12.2c-5,3.4-10.1,5.1-15.3,5.1H7346c-2.6,0-5.4-0.5-8.3-1.6
		c-2.9-1-5.2-2.6-7.1-4.7c-1.8-2.1-3-4.7-3.5-7.9c-0.5-3.1,0.3-6.8,2.4-11L7557.5,1630.2z M7603.9,1972.2h70c5.2,0,9-1.7,11.4-5.1
		c2.4-3.4,2.2-7.5-0.4-12.2c-5.2-13.1-11.5-28.4-18.9-46c-7.3-17.6-14.2-33.9-20.4-49.1c-2.1-4.7-4.5-7.1-7.1-7.1
		c-2.6,0-5,2.4-7.1,7.1l-39.3,95.1c-2.1,4.7-2.1,8.8,0,12.2C7594.2,1970.5,7598.1,1972.2,7603.9,1972.2z"/>
	<path class="st4" d="M8111.7,2187.6h-117.7c-5.3,0-9.8-1.8-13.4-5.5c-3.7-3.7-5.5-8.1-5.5-13.4v-537.8c0-5.2,1.8-9.7,5.5-13.4
		c3.7-3.7,8.1-5.5,13.4-5.5h244.5c30.4,0,58.4,5.1,84.1,15.3c25.7,10.2,47.6,24.5,65.6,42.8c18.1,18.4,32.2,40.1,42.5,65.3
		c10.2,25.2,15.3,52.9,15.3,83.3c0,16.8-2,33.4-5.9,49.9c-3.9,16.5-9.6,32.1-16.9,46.8c-7.3,14.7-16,27.9-25.9,39.7
		c-10,11.8-21.2,21.6-33.8,29.5c-4.2,3.1-7,7-8.3,11.4c-1.3,4.5-0.4,8.8,2.8,13c19.9,26.2,40.9,53.2,62.9,81
		c22,27.8,41.7,53.2,59,76.3c3.1,4.2,3.9,8.8,2.4,13.8c-1.6,5-5,7.5-10.2,7.5h-146.2c-5.2,0-10.9-1.4-16.9-4.3
		c-6-2.9-10.6-6.4-13.8-10.6c-16.7-22-33.3-44.3-49.7-66.8c-16.4-22.5-32.7-45.3-48.9-68.4c-3.1-4.2-7.6-7.7-13.3-10.6
		c-5.7-2.9-11.2-4.3-16.4-4.3h-17.2c-5.2,0-9.7,1.8-13.3,5.5c-3.7,3.7-5.5,8.1-5.5,13.4v127.4c0,5.2-1.9,9.7-5.5,13.4
		C8121.4,2185.7,8116.9,2187.6,8111.7,2187.6z M8149.4,1877.8h82.9c6.3,0,12.8-1.2,19.6-3.5c6.8-2.4,13-6,18.8-11
		c5.7-5,10.4-11.1,14.1-18.5c3.6-7.3,5.5-16,5.5-25.9c0-5.2-0.9-11.4-2.7-18.5c-1.8-7.1-5-13.9-9.4-20.4c-4.4-6.5-10.4-12.1-18-16.5
		c-7.6-4.4-16.8-6.7-27.8-6.7h-82.9c-5.2,0-9.6,1.8-13.3,5.5c-3.7,3.7-5.5,8.1-5.5,13.4v83.3c0,5.2,1.8,9.7,5.5,13.4
		C8139.7,1876,8144.2,1877.8,8149.4,1877.8z"/>
	<path class="st4" d="M8721.8,1630.2c2.1-4.7,5.6-8.8,10.6-12.2c5-3.4,10.3-5.1,16.1-5.1h110.1c5.2,0,10.3,1.7,15.3,5.1
		c5,3.4,8.5,7.5,10.6,12.2l229.6,534.6c2.1,4.7,1.7,9.7-1.2,14.9c-2.9,5.2-8.5,7.9-16.9,7.9h-134.4c-5.8,0-11.1-1.7-16.1-5.1
		c-5-3.4-8.8-7.5-11.4-12.2l-21.2-47.2c-2.6-4.7-6.4-8.8-11.4-12.2c-5-3.4-10.1-5.1-15.3-5.1h-165.9c-5.8,0-11.1,1.7-16.1,5.1
		c-5,3.4-8.5,7.5-10.6,12.2l-22,47.2c-2.1,4.7-5.6,8.8-10.6,12.2c-5,3.4-10.1,5.1-15.3,5.1h-135.2c-2.6,0-5.4-0.5-8.3-1.6
		c-2.9-1-5.2-2.6-7.1-4.7c-1.8-2.1-3-4.7-3.5-7.9c-0.5-3.1,0.3-6.8,2.4-11L8721.8,1630.2z M8768.2,1972.2h70c5.2,0,9-1.7,11.4-5.1
		c2.4-3.4,2.2-7.5-0.4-12.2c-5.2-13.1-11.5-28.4-18.9-46c-7.3-17.6-14.2-33.9-20.4-49.1c-2.1-4.7-4.5-7.1-7.1-7.1
		c-2.6,0-5,2.4-7.1,7.1l-39.3,95.1c-2.1,4.7-2.1,8.8,0,12.2C8758.5,1970.5,8762.4,1972.2,8768.2,1972.2z"/>
	<path class="st4" d="M4495.2,2932.3c-15.2,24.6-32,46.9-50.3,66.9c-18.4,20.1-38.9,37.1-61.7,51.2c-22.8,14.1-48.1,25-75.9,32.8
		c-27.8,7.8-58.4,11.7-92,11.7c-41.9,0-81.2-7.9-117.9-23.6c-36.7-15.7-68.8-37-96.3-63.7c-27.5-26.7-49.1-58.2-64.9-94.3
		c-15.7-36.2-23.6-74.7-23.6-115.6c0-40.9,7.9-79.4,23.6-115.6c15.7-36.2,37.3-67.6,64.9-94.3c27.5-26.7,59.6-48,96.3-63.7
		c36.7-15.7,76-23.6,117.9-23.6c34.6,0,65.8,3.9,93.6,11.8c27.8,7.9,52.9,18.9,75.5,33c22.5,14.2,42.8,31.3,60.9,51.5
		c18.1,20.2,34.7,42.3,49.9,66.4c2.6,4.2,3.1,8.6,1.6,13.4c-1.6,4.7-4.7,8.1-9.4,10.2l-111.6,44c-5.2,2.1-10.5,2.1-15.7,0
		c-5.2-2.1-9.2-5.2-11.8-9.4c-15.2-24.1-33.5-42.6-55-55.4c-21.5-12.8-47.4-19.3-77.8-19.3c-19.9,0-38.7,4.2-56.2,12.6
		c-17.6,8.4-32.9,19.6-46,33.5c-13.1,13.9-23.3,30.1-30.7,48.5c-7.3,18.4-11,37.3-11,56.8c0,20,3.7,39,11,57.1
		c7.3,18.1,17.6,34,30.7,47.7c13.1,13.7,28.4,24.7,46,33.1c17.6,8.4,36.3,12.6,56.2,12.6c28.8,0,54.9-6.9,78.2-20.8
		c23.3-13.9,41.8-31.8,55.4-53.9c2.6-4.2,6.4-7.3,11.4-9.4c5-2.1,10.1-2.1,15.3,0l111.6,44c4.7,2.1,7.9,5.4,9.4,9.8
		C4498.4,2923,4497.9,2927.6,4495.2,2932.3z"/>
	<path class="st4" d="M4699.7,2527.4c2.1-4.7,5.6-8.8,10.6-12.2c5-3.4,10.3-5.1,16.1-5.1h110.1c5.2,0,10.3,1.7,15.3,5.1
		c5,3.4,8.5,7.5,10.6,12.2l229.6,534.6c2.1,4.7,1.7,9.7-1.2,14.9c-2.9,5.2-8.5,7.9-16.9,7.9h-134.4c-5.8,0-11.1-1.7-16.1-5.1
		c-5-3.4-8.8-7.5-11.4-12.2l-21.2-47.2c-2.6-4.7-6.4-8.8-11.4-12.2c-5-3.4-10.1-5.1-15.3-5.1h-165.9c-5.8,0-11.1,1.7-16.1,5.1
		c-5,3.4-8.5,7.5-10.6,12.2l-22,47.2c-2.1,4.7-5.6,8.8-10.6,12.2c-5,3.4-10.1,5.1-15.3,5.1h-135.2c-2.6,0-5.4-0.5-8.3-1.6
		c-2.9-1-5.2-2.6-7.1-4.7c-1.8-2.1-3-4.7-3.5-7.9c-0.5-3.1,0.3-6.8,2.4-11L4699.7,2527.4z M4746,2869.4h70c5.2,0,9-1.7,11.4-5.1
		c2.4-3.4,2.2-7.5-0.4-12.2c-5.2-13.1-11.5-28.4-18.9-46c-7.3-17.6-14.2-33.9-20.4-49.1c-2.1-4.7-4.5-7.1-7.1-7.1
		c-2.6,0-5,2.4-7.1,7.1l-39.3,95.1c-2.1,4.7-2.1,8.8,0,12.2C4736.3,2867.7,4740.3,2869.4,4746,2869.4z"/>
	<path class="st4" d="M5389.4,2930h-68.6c-5.3,0-9.7,1.8-13.4,5.5c-3.7,3.7-5.5,8.1-5.5,13.4V3066c0,5.2-1.8,9.7-5.5,13.4
		c-3.6,3.7-8.1,5.5-13.3,5.5H5165c-5.2,0-9.7-1.8-13.3-5.5c-3.6-3.7-5.5-8.1-5.5-13.4v-537.8c0-5.2,1.8-9.7,5.5-13.4
		c3.7-3.7,8.1-5.5,13.4-5.5h240.6c29.3,0,57,5.5,82.9,16.5c25.9,11,48.5,26.2,67.6,45.6c19.1,19.4,34.3,41.9,45.6,67.6
		c11.3,25.7,16.9,53.2,16.9,82.6c0,29.4-4.7,56.7-14.2,82.2c-9.5,25.4-23.8,47.4-43,66c-19.2,18.6-43.1,33.3-71.7,44
		C5461.2,2924.6,5427.7,2930,5389.4,2930z M5395.1,2654h-74.3c-5.3,0-9.8,1.8-13.4,5.5c-3.7,3.6-5.5,8.1-5.5,13.3v92.2
		c0,5.2,1.8,9.6,5.5,13.3c3.7,3.6,8.2,5.5,13.4,5.5h84.5c20,0,34.6-6.4,43.8-19.1c9.2-12.8,13.8-27.2,13.8-43.4
		c0-8.3-1.5-16.5-4.3-24.6c-2.9-8.1-7.2-15.2-13-21.5c-5.8-6.3-12.9-11.3-21.3-15.2C5415.9,2656,5406.2,2654,5395.1,2654z"/>
	<path class="st4" d="M5823.2,3084.9h-118.1c-5.7,0-10.3-1.8-13.7-5.5c-3.4-3.7-5.1-8.1-5.1-13.4v-537c0-5.2,1.7-9.7,5.1-13.4
		c3.4-3.7,7.9-5.5,13.7-5.5h118.1c5.2,0,9.6,1.8,13.3,5.5c3.6,3.7,5.5,8.1,5.5,13.4v537c0,5.2-1.8,9.7-5.5,13.4
		C5832.9,3083,5828.4,3084.9,5823.2,3084.9z"/>
	<path class="st4" d="M6331.8,2654h-110.1c-5.2,0-9.7,1.8-13.4,5.5c-3.7,3.7-5.5,8.1-5.5,13.4V3066c0,5.2-1.7,9.7-5.1,13.4
		c-3.4,3.7-8,5.5-13.8,5.5h-117.9c-5.2,0-9.7-1.8-13.4-5.5c-3.7-3.7-5.5-8.1-5.5-13.4v-393.1c0-5.2-1.7-9.7-5.1-13.4
		c-3.4-3.7-8-5.5-13.8-5.5h-111.6c-5.2,0-9.7-1.8-13.4-5.5c-3.7-3.7-5.5-8.1-5.5-13.4v-106.9c0-5.2,1.8-9.7,5.5-13.4
		c3.7-3.7,8.1-5.5,13.4-5.5h415.1c5.8,0,10.3,1.8,13.8,5.5c3.4,3.7,5.1,8.1,5.1,13.4v106.9c0,5.2-1.7,9.7-5.1,13.4
		C6342.1,2652.2,6337.5,2654,6331.8,2654z"/>
	<path class="st4" d="M6519.7,2527.4c2.1-4.7,5.6-8.8,10.6-12.2c5-3.4,10.3-5.1,16.1-5.1h110.1c5.2,0,10.3,1.7,15.3,5.1
		c5,3.4,8.5,7.5,10.6,12.2l229.6,534.6c2.1,4.7,1.7,9.7-1.2,14.9c-2.9,5.2-8.5,7.9-16.9,7.9h-134.4c-5.8,0-11.1-1.7-16.1-5.1
		c-5-3.4-8.8-7.5-11.4-12.2l-21.2-47.2c-2.6-4.7-6.4-8.8-11.4-12.2c-5-3.4-10.1-5.1-15.3-5.1h-165.9c-5.8,0-11.1,1.7-16.1,5.1
		c-5,3.4-8.5,7.5-10.6,12.2l-22,47.2c-2.1,4.7-5.6,8.8-10.6,12.2c-5,3.4-10.1,5.1-15.3,5.1h-135.2c-2.6,0-5.4-0.5-8.3-1.6
		c-2.9-1-5.2-2.6-7.1-4.7c-1.8-2.1-3-4.7-3.5-7.9c-0.5-3.1,0.3-6.8,2.4-11L6519.7,2527.4z M6566.1,2869.4h70c5.2,0,9-1.7,11.4-5.1
		c2.4-3.4,2.2-7.5-0.4-12.2c-5.2-13.1-11.5-28.4-18.9-46c-7.3-17.6-14.2-33.9-20.4-49.1c-2.1-4.7-4.5-7.1-7.1-7.1
		c-2.6,0-5,2.4-7.1,7.1l-39.3,95.1c-2.1,4.7-2.1,8.8,0,12.2C6556.4,2867.7,6560.3,2869.4,6566.1,2869.4z"/>
	<path class="st4" d="M7377.4,2959.1V3066c0,5.2-1.8,9.7-5.5,13.4c-3.7,3.7-8.1,5.5-13.4,5.5h-392.3c-5.8,0-10.4-1.8-13.8-5.5
		c-3.4-3.7-5.1-8.1-5.1-13.4v-537.8c0-5.2,1.7-9.7,5.1-13.4c3.4-3.7,8-5.5,13.8-5.5h117.9c5.2,0,9.7,1.8,13.4,5.5
		c3.7,3.7,5.5,8.1,5.5,13.4v393.1c0,5.2,1.7,9.7,5.1,13.4c3.4,3.7,8,5.5,13.8,5.5h236.6c5.2,0,9.7,1.8,13.4,5.5
		C7375.6,2949.4,7377.4,2953.8,7377.4,2959.1z"/>
</g>
</svg>
