<?xml version="1.0" encoding="utf-8"?>
<!-- Generator: Adobe Illustrator 23.0.2, SVG Export Plug-In . SVG Version: 6.00 Build 0)  -->
<svg version="1.1" xmlns="http://www.w3.org/2000/svg" xmlns:xlink="http://www.w3.org/1999/xlink" x="0px" y="0px"
	 viewBox="0 0 2294.5 639.1" style="enable-background:new 0 0 2294.5 639.1;" xml:space="preserve">
<style type="text/css">
	.st0{fill:#0473BD;}
	.st1{fill:#03AA9E;}
	.st2{fill:#313494;}
	.st3{fill:#2CACE2;}
	.st4{fill:#8AD5EF;}
	.st5{fill:#282460;}
	.st6{fill:#2A2661;}
	.st7{fill:#FCFEFE;}
	.st8{fill:#FFFFFF;}
	.st9{fill:url(#SVGID_1_);}
	.st10{fill:#160C58;}
</style>
<g id="Layer_1">
	<path class="st0" d="M1562.4,199.7c2.7-1.3,4.7-2.2,6.7-3.2c3.6,2,5,5.3,5.4,8.9c1.4,13.3,0.2,25.9-10.8,35.6
		c-1.9,1.7-3.4,4-4.8,6.2c-4.9,7.4-9.3,15.2-14.7,22.2c-19.1,24.7-39.3,48.4-61.9,70c-3.6,3.5-7.4,6.8-9.1,12.3
		c3.4,7.6,6.7,15.5,10.5,23.3c6.8,14.3,13.5,28.6,21,42.6c3.2,6,7.8,11.5,12.5,16.6c2.6,2.9,6.5,4.6,9.1,6.3
		c13.7-3.4,23.2-11.7,33.9-19.1c1.7,3.1,3.3,5.9,5.6,9.9c1.8-5.6,3.3-10.2,5-15.5c-3.5,0-6.3,0-9.9,0c-0.6-2.7-1.5-5.1-1.6-7.5
		c-0.1-4,0.3-8.1,0.8-12.1c0.4-3.8,0.8-7.6,1.9-11.3c1.2-4,3.9-7.1,7.9-8.8c3.1-1.3,6.2-2.6,9.2-4.1c4.1-2,7.1-4.8,7.9-9.5
		c0.2-1.4,0.6-2.9,1.3-4.1c10.6-19.6,14.6-41.5,21.6-62.4c3.2-9.8,6.6-19.5,10.8-28.9c3.1-6.9,7.5-13.3,11.5-20.2
		c-1.8-3-3.7-6.3-5.8-9.8c2.6-3,5.1-5.8,7.4-8.5c4.3-1,8.2-2,12.2-3c1.3-2,2.4-3.8,3.5-5.7c3-5,6.7-9.2,11.8-12.3
		c4.3-2.6,8-6.2,12.2-8.8c2.7-1.7,6.1-3,9.2-3.1c6-0.2,9.5,4.1,7.9,9.9c-1.1,4.1-3.3,7.9-5,11.9c-1.8,4.1-4.3,8.1-2.6,14
		c8.3,4.6,17.3,9.6,27.2,15.1c1.1,4.6,2.6,9.9,3.5,15.2c1.2,6.8,2.2,13.8,2.7,20.7c0.3,4.2-0.2,8.6-1,12.8c-1.2,6-1.5,11.9,0.2,17.8
		c3.3,11.1,2.2,22.3,0.6,33.5c-0.2,1.4-0.3,2.9-0.4,4.3c0,0.4,0.3,0.9,0.5,1.6c2.3,1.2,4.8,2.4,6.9,3.5c1.6,4.3,1.4,8-1.2,10.8
		c-2.2,2.4-5.1,4.2-8.1,6.6c3.8,9.7,1.9,19.4,0.5,29.1c-0.8,5.7-0.9,11.5-1.8,17.2c-1.4,9.2-3.2,18.3-5.2,29.1
		c2.4,10.6-2,21.8-6.3,33c-1.4,3.7-4.6,6.1-8.6,7c-4.1,1-6.5-0.5-7.3-4.7c-0.3-1.6-0.3-3.3-0.3-5c0.7-16,1.6-32,2.3-48
		c0.1-2.6-0.1-5.3-0.5-7.8c-1.4-8.4-0.9-16.6,2.1-25.5c-0.7-5-1.6-10.8-2.6-17.6c-2.9,1-5,1.8-7.2,2.6c-3.2,1.1-6.3,2.7-9.5,2.9
		c-16.9,1-31.8,8.2-47.4,13.7c-6.3,2.2-12.5,4.5-19.6,5.7c-1.2,2-2.7,3.9-3.5,6.1c-6.3,17-12.6,34.1-18.8,51.2
		c-0.9,2.4-1.5,5-1.7,7.6c-1,9.2-4.3,17.7-8.5,25.8c-0.8,1.5-1.8,3-3.1,3.9c-3.7,2.6-7.9,3.8-12.2,1.9c-4.3-1.9-4.5-6.2-4-9.9
		c1-7.6,2.5-15.1,4.2-22.6c1.6-7.2,3.8-14.2,5.8-21.3c-0.4-0.3-0.8-0.6-1.3-0.9c-1.9,1.3-3.7,2.6-5.6,3.9
		c-9,5.9-17.9,12.1-27.1,17.6c-17,10.2-31.3,1.1-38.1-11.7c-2.1-3.9-5.2-7.3-7.9-10.9c-5.8-7.6-12-15-17.3-22.9
		c-8.4-12.8-16.2-26.1-24.2-39.2c-1.3-2.2-2.8-4.2-4.8-7.3c-3.6,8.3-4.2,15.9-5.5,23.3c-0.8,4.2-1.5,8.5-2.3,12.7
		c-0.3,1.6-1,3.4-0.7,4.9c1.8,10.2-0.6,20-1.5,30c-0.5,5.2-0.7,10.5-1.4,15.8c-0.3,2.5-1.4,4.8-2.2,7.5c-6.6,0-12.4,0-18.6,0
		c-3.1-2.8-3.4-6.9-2.8-10.5c1.4-7.9,0.9-15.6,0.9-23.5c-0.1-9.5,1.7-19.1,2.9-28.6c1.2-10.2,2.6-20.5,4-30.7c0.3-1.9,0.3-3.9,1-5.6
		c2.7-7.1,4.3-14.1,0.9-21.5c-0.4-1,0-2.4,0.1-3.5c4-32.1,8.2-64.2,12-96.4c1.2-10.5,6.6-17.8,15.4-22.9c5.1-3,10.5-5.6,16.3-8.7
		c5.9,7.3,10.7,14.6,8,25.1c-7.8,30.7-15.2,61.4-22.7,92.1c-1.7,6.8-1.6,7.1,0.6,12.8c1.4-0.7,3.1-1,4.2-2c5-4.5,10.3-8.7,14.6-13.8
		c18.7-22.5,37.4-45,55.6-68c5.9-7.5,10.4-16.1,15.4-24.3c3.3-5.6,3.8-10.9-0.9-16.5c-3.8-4.6-2.8-9.7,2.3-12.9
		c3.5-2.3,7.8-3.4,11.8-5.1c2.6-1.1,5.5-1.8,7.8-3.4C1553.7,199.7,1557.6,197.9,1562.4,199.7z M1661,272.3
		c-5.7,1.5-8.2,6.1-10.2,10.6c-2.5,5.7-3.8,12-6.8,17.3c-5.7,10-9.7,20.6-13.5,31.5c-3.2,9.4-8.3,18.3-12.6,27.4
		c-1.2,2.6-3,5-0.3,8.5c8.9-0.4,18.1-0.6,27.2-2.9c4.6-1.1,9.5-2.2,14.1-1.8c9.5,0.9,17.5-3.2,26-5c0.8-9.8,1.7-18.8,2.2-27.8
		c0.1-2.8-1.2-5.6-1.5-8.4c-0.3-1.9-0.1-3.8,0-5.7c0.1-10.7-0.8-21-7.9-29.8c-1.5-1.8-2.7-4-4-6C1670.8,276,1667,273,1661,272.3z"/>
	<path class="st1" d="M1187.3,367.2c-0.7,6.1,2,9.4,4.8,12.2c6.9,7,13.9,13.9,21.5,20.2c15.5,12.8,31.3,25.4,47.3,37.6
		c13.6,10.3,27.7,19.7,41.7,29.5c8.9,6.3,12.5,21.1,7,31.6c-2.2-0.7-4.7-1.2-7-2.2c-13.6-6.5-27.3-12.9-40.6-20
		c-8.2-4.3-16-9.6-23.8-14.8c-6.4-4.2-12.5-8.9-18.8-13.3c-10.4-7.3-20.9-14.4-31.3-21.7c-6-4.2-11.4-9.5-19.5-12
		c-6.7,22-8.9,44.7-13.6,66.4c-11.2,3.1-18.6-1.7-18.9-12.4c-0.4-13.5,1.4-26.8,4.1-40c1.3-6.3,2.3-12.7,3-19.2
		c0.8-6.6-1.3-12.3-6.3-16.9c-3-2.7-6.1-5.4-8.3-7.3c-1.4-8.7,1-14.1,7.3-17.9c3.5-2.1,6.8-4.5,10.4-6.9c0.3-2.2,0.7-4.3,0.7-6.4
		c0.3-22.1,0.5-44.1,0.8-66.2c0-0.7,0.1-1.5-0.1-2.1c-3.8-8.5-2.3-17.4-2.2-26.3c0-4.1-0.2-8.2-0.6-12.2c-0.8-8.3,1.6-15.7,6.6-22.2
		c9.3-11.8,21-18.7,36.5-17.9c10.1,0.5,19.8,2.1,29.7,4.3c16.8,3.8,32.2,10.8,47.6,17.8c12.4,5.6,22.7,14.1,31.2,24.9
		c10.9,13.7,10.5,40-5,53c-11.8,9.9-23.6,19.7-38.1,25.5c-1.1,0.4-2.3,0.9-3.2,1.6c-16.4,13-35.8,20.1-54.5,28.8
		C1192.8,364.2,1190,365.8,1187.3,367.2z M1178,348.1c2-0.2,2.8,0,3.4-0.3c8.8-4.3,17.7-8.5,26.3-13.2c8.5-4.6,17.8-7.7,25.4-14.4
		c5.7-5,12.7-8.5,19-12.8c5.6-3.8,10.5-8.4,13.6-14.5c3.7-7.1,3.1-13.5-2.5-19.1c-3.9-3.8-8.3-7.4-13.1-9.9
		c-16.4-8.7-33.8-14.8-52.2-17.4c-7.8-1.1-15.8-1.4-23.5,1.1c-11.8,3.8-16.1,17.6-8.5,28.1c5.4-2.6,9.3-8.7,16.7-7.4
		c4.5,2.9,6.9,7.5,8.6,13.1C1186.4,302.9,1180.8,324.8,1178,348.1z"/>
	<path class="st2" d="M765.3,331.3c-1,4.6-2.2,9.1-2.9,13.7c-5.2,34.1-10.4,68.3-15.5,102.4c-0.7,4.7-0.8,9.6-1.5,14.3
		c-0.8,5.3-3.9,8.3-9.6,9c-5.1,0.6-10.1,2-16.7,3.3c2.8-9.4-1.6-17.4,1.1-25.8c1.5-4.7,1.1-10,1.7-15c0.7-6.4,1.6-12.8,2.4-19.2
		c0.2-1.9,0.9-3.9,0.6-5.7c-2.6-15.5,1.5-30.5,3.3-45.7c1.3-11.2,3.5-22.2,1.4-33.6c-0.7-3.8,0.7-8,1.5-12c1.5-8,3.4-15.9,4.8-24
		c0.7-3.9,0.4-8,0.5-12.1c0.4-9.3,0.1-18.7,4.8-27.3c-1.1-2.2-2.1-4.3-3.2-6.4c0.9-7.3,1.4-14.5,2.9-21.5c0.7-3.3,2.5-6.8,4.8-9.3
		c6.3-6.7,13.7-12.1,22-16c3.7-1.7,7.4-3.3,11.2-5c3,0.2,4.9,2.2,5.1,5c0.4,4.2,1.1,8.7,0.1,12.7c-1.8,7.6-2.6,15.1-2,22.8
		c1,13.1,1.2,26.4,3.2,39.4c2.1,14,6.5,27.6,12.9,40.3c2.9,5.7,6.6,11.2,10.9,15.9c6,6.5,13.4,7.4,20.9,2.7c6.5-4,12.7-8.7,18.1-14
		c19.6-19.5,37.2-40.7,51.7-64.3c8.2-13.4,19.6-23.4,33.4-30.1c4.3,0.8,5.8,3.6,6.1,6.8c0.7,5.7,1.5,11.5,1.1,17.1
		c-1.9,26.4-6.8,52.3-15,77.5c-4.1,12.8-8.1,25.6-9.8,39c-0.4,3-1.4,6.1-2.8,8.8c-4.9,9.4-6,19.5-7.8,29.7
		c-2.7,15.8-6.5,31.4-9.4,44.6c-9,8.4-16.1,15-22.7,21.1c-4.3-1-4.9-3.4-4.1-5.8c7.6-21.8,7-44.9,11.2-67.3
		c5.6-29.7,11.3-59.3,16.9-89c0.4-2.3,0.4-4.6,0.5-6.6c-3.1-2.1-4.8-0.3-6.1,1.2c-4,4.5-7.7,9.2-11.7,13.6
		c-10.2,11.1-20.5,22.2-30.8,33.2c-1.6,1.7-3.9,2.7-5.8,4.2c-3.4,2.6-6.8,5.2-10,8c-14.3,12.5-31.3,15.5-45.8-0.4
		c-5.1-5.6-8.9-12.4-13.2-18.7c-2.6-3.9-4.9-8-7.4-11.9C766.3,331.1,765.8,331.2,765.3,331.3z"/>
	<path class="st3" d="M1891.4,433.3c1.1-3.1,1.8-4.4,1.9-5.8c1.7-18,8.3-34.9,10.8-52.7c1.7-11.8,3-23.8,4.3-35.7
		c1.3-11.7,2.5-23.3,3.5-35c0.4-5.5,0.6-11,0.1-16.4c-0.9-10.1-1.4-19.9,1.5-29.9c3.5-11.9,6-24.2,9.3-36.2
		c2.3-8.3,7.6-14.9,14.2-20.4c2.2-1.9,4.5-3.7,7.8-2.3c0.3,0.4,0.9,0.7,0.9,1.1c-0.3,7.1-0.5,14.1-1,21.2
		c-0.9,12.4-1.8,24.8-2.9,37.3c-2.9,34.2-5.6,68.3-9.1,102.4c-1.7,16.2-5.1,32.2-8.2,48.1c-2.5,12.9-5.8,25.7-8.8,38.5
		c-1.7,7.1-4.6,13.6-10.2,20.5c-7.3,2.6-15.8,5.6-25,8.9c-2.5-2.4-5.2-4.5-7.1-7.1c-3.5-4.8-6.9-9.8-9.7-15.1
		c-5.9-10.7-11.6-21.6-16.9-32.6c-2.7-5.6-4.6-11.6-6.7-17.4c-2-5.4-3.7-10.9-6.1-16.1c-7.1-16-14.3-31.9-21.6-47.8
		c-1.8-3.8-4-7.5-6-11.2c-0.5,0.1-1.1,0.2-1.6,0.3c-1,4.1-2,8.3-3.2,12.3c-5.3,18.2-10.7,36.3-15.8,54.5
		c-3.1,10.8-5.5,21.8-8.5,32.7c-1.1,4.1-2.8,8.1-4.2,12.2c-0.5,1.6-1.1,3.1-1.6,4.7c-3.5,12.4-6.9,24.9-10.4,37.3
		c-0.8,2.9-2.5,5.1-5.5,6.2c-3.2,1.2-6.4,2.7-9.5,4.1c-4.3-4.9-3.2-10.1-2.5-15c0.8-6.4,2.5-12.7,3.7-19.1c2.7-15.3,5.2-30.7,7.9-46
		c2.8-15.3,6.1-30.5,8.7-45.9c5.6-33.8,11.1-67.6,16.2-101.5c0.7-5-1.2-10.3-2.1-16.7c1-3.4,2.4-7.9,3.5-12.6
		c1.1-4.7,4.1-6.8,8.6-7.5c4.5-0.7,9-1.3,14.4-2c2.4,1.5,5.4,3.4,8.4,5.4c6.9-4.5,9.3-13.8,18.1-16.4c3.3,0.9,6.9,1.5,8.5,6.1
		c-0.4,1.7-0.7,3.8-1.4,5.8c-4,10.2-6,21.2-11.6,30.8c-2.1,3.6-2.8,7.7-1.4,11.8c2.4,7.5,4.5,15.1,7.2,22.6
		c9.6,26.6,19,53.3,29.1,79.7c5.9,15.4,12.9,30.4,19.6,45.6c1.4,3.3,3.4,6.4,5.4,9.3C1887.1,430,1888.9,431.1,1891.4,433.3z"/>
	<path class="st3" d="M1009.1,246.6c-1.7-3-3.5-6.1-5.6-9.8c2.5-2.9,5-5.7,7.4-8.5c4-0.9,7.7-1.8,11-2.6c0.8-0.6,1.3-0.8,1.5-1.2
		c5.5-11.7,16.2-17.9,26-25.2c3.5-2.6,7.2-4.7,11.9-4c4.6,0.8,7.5,3.9,6.6,8.5c-0.7,3.7-2.4,7.2-3.8,10.8c-1.8,4.4-3.7,8.7-5.9,13.8
		c2.2,2,3.9,3.9,6,5.2c5.6,3.3,11.2,6.6,17.1,9.2c4.9,2.2,7.4,5.8,8.2,10.9c2.3,15.1,5.9,30,2.8,45.6c-1.1,5.6,0.2,12,1.4,17.7
		c1.8,8.2,1.4,16.2,0.4,24.3c-0.4,3.5-0.6,7.1-0.9,10.7c2.6,1.2,4.7,2.2,6.9,3.2c4.9,9.2-2.7,12.8-8.1,17.3c0.1,1.8,0.3,3.4,0.4,5
		c0.3,5,1.1,10,0.7,14.9c-1,11.5-2.4,22.9-3.9,34.3c-0.5,4-1.4,8-2.6,11.9c-1.7,5.2-2.8,10.2-0.4,15.4c-1.5,6.6-2.7,13.2-4.6,19.6
		c-1,3.6-2.6,7.3-4.9,10.3c-2.8,3.8-6.9,5.9-11.8,4c-2.9-2.8-3-6.2-2.9-9.6c0.3-6.7,0.5-13.4,0.9-20c0.5-8.4,1.4-16.7,1.5-25.1
		c0.1-8.6-0.6-17.1-0.9-25.7c-0.1-1.6-0.1-3.5,0.6-4.9c4.1-7.7-0.2-14.7-0.6-22.5c-2.3,0.5-3.9,0.4-5,1c-6.9,4-14.7,3.9-22.2,5.3
		c-7.4,1.5-14.7,4.1-21.9,6.6c-6.3,2.2-12.4,5.1-18.7,7.3c-4.9,1.8-10,3.1-16.2,5c-0.3,0.3-1.7,1.4-2.3,2.9
		c-4.4,11.4-8.6,22.8-12.8,34.3c-1.9,5.2-3.7,10.4-5.4,15.6c-1.4,4.3-3,8.6-3.6,13.1c-1,8.3-4.3,15.7-7.7,23.1
		c-0.6,1.3-1.4,2.6-2.4,3.6c-3.5,3.6-7.9,4.6-12.6,3.4c-3.7-0.9-5.5-4.2-4.9-10.1c0.8-7.1,2-14.3,3.8-21.2
		c4.4-16.2,9.3-32.2,13.9-48.3c0.5-1.8,0.8-3.7,1.3-6.2c-2.9-0.2-5.4-0.4-7.9-0.6c-3.3-1.7-2.9-4.7-2.7-7.5
		c0.2-3.5,0.1-7.1,0.4-10.6c0.4-3.8,0.7-7.7,1.8-11.3c1.3-4.5,4-8.2,8.6-10c2-0.8,3.9-1.9,5.9-2.6c6-2.2,10.6-5.6,11.3-12.6
		c0.1-0.9,0.5-1.9,1-2.7c10.1-18.3,13.9-38.7,20.3-58.2c3.5-10.5,6.9-21,11.2-31.1C1000.2,261.3,1004.7,254.5,1009.1,246.6z
		 M995.1,367.8c9.1-0.7,18.4-0.6,27.5-3c5.3-1.4,10.6-1.9,16.3-1.6c8.3,0.5,16.2-2.7,23.6-5.4c0.8-9.8,1.5-18.8,2.2-27.9
		c0.1-1.2-0.3-2.4-0.4-3.5c-0.4-3.5-0.9-7.1-1-10.6c-0.5-10.3-0.9-20.6-8-29.1c-1.5-1.8-2.7-4-4-6c-3-4.6-7.1-7.8-14.1-8.3
		c-1.9,1.8-4.8,3.9-6.7,6.7c-2.1,3.1-3.7,6.7-4.8,10.4c-2.5,8.4-6.5,15.9-11,23.3c-1.4,2.4-2.2,5.2-3.1,7.9
		c-1.4,4.1-2.2,8.4-3.9,12.3c-3.8,8.8-8.1,17.3-12.2,26C994.2,361.4,992,363.8,995.1,367.8z"/>
	<path class="st3" d="M2292,231.9c0.8,2.7,2.2,5.3,2.4,8c0.5,9.9-0.4,19.6-4.2,29c-1,2.4-1.1,5.1-1.8,7.6c-1.2,4.1-2.6,8.1-3.9,12.2
		c-1.7,5.4-3.4,10.8-5,16.2c-0.8,2.5-1.2,5.2-2.2,7.5c-4.4,9.8-9,19.6-13.9,30.2c-0.6,3-1.1,7-2.2,10.9c-2.5,9.5-5.1,19-7.9,28.4
		c-4.8,16.6-0.6,31.3,9.2,44.8c3.8,5.3,9.3,6.5,15.3,3.5c2.9-1.5,5.5-3.6,8.8-5.7c2.5,5.4,4.8,10.6,7.1,15.7
		c-4.6,5.2-8.6,9.9-12.9,14.4c-1.6,1.7-3.7,3.1-5.9,4c-14.3,6-33.3-0.4-40.7-14c-2.7-5-4.2-10.7-5.9-16.1c-1.4-4.3-2.1-8.8-5.7-12.5
		c-4.9,3.4-9.3,7.1-11.8,12.3c-3.9,8.2-9.5,14.9-15.5,21.5c-6.8,7.5-13.3,15.1-20.4,22.3c-3.5,3.6-7.7,6.4-11.8,9.3
		c-1.9,1.3-4.3,2.2-6.6,2.9c-12.6,3.6-22.5-3.8-22-16.8c0.2-4.7,2.1-9.3,3.3-13.9c1-3.6,3.3-7,1.8-11.7c-2,1.4-3.6,2.6-5.3,3.8
		c-7.8,5.6-15.5,11.3-23.3,16.9c-9.4,6.7-19.6,5.6-29.7,2.5c-3.1-0.9-6-4-7.9-6.8c-2.6-4-3.8-8.8-6.1-13c-3.6-6.7-7.5-13.2-11.4-20
		c-10.3,1.3-14.6,9.6-22,15.1c-2.3-5.7-4.5-11.2-7-17.3c2-2.7,3.9-5.8,6.4-8.2c5.1-5.1,10.6-9.8,15.7-14.8c4.6-4.5,9.4-9,13.3-14.1
		c3.6-4.7,7.8-6.9,13.6-5.9c5.9,1,10.3,4.2,12.2,9.9c1.4,4.3,2.1,8.8,3.1,13.3c2,8.9,3.7,17.8,5.9,26.6c2.2,8.8,6.3,11,14.9,8.1
		c8.7-2.9,15.3-9.1,20.8-15.9c5.6-6.8,11.2-13,19.7-16.1c2.2-0.8,4.4-2.1,6-3.7c8.6-8.7,16.9-17.7,25.5-26.2
		c8.5-8.4,17.2-16.7,26.2-24.6c3.7-3.3,8-6.2,12.5-8.3c5.5-2.6,8.4-5.9,10.6-12.1c6.4-17.8,11.1-36.2,20.3-52.9
		c6.4-11.5,11.8-23.6,18-35.2C2275.7,235.3,2281.6,230.8,2292,231.9z M2224,368.6c-6.5,6.1-12.3,10.8-17.1,16.4
		c-6.1,7-11.8,14.5-17,22.3c-6.8,10.1-13,20.6-19.3,31.1c-1.1,1.9-2.6,4.1-0.6,6.7c4.7-0.6,8-3.6,10.8-6.7
		c8.6-9.7,17.4-19.2,25.1-29.5c6.1-8.2,11-17.4,16-26.3C2223.9,378.7,2225.2,374.6,2224,368.6z"/>
	<path class="st0" d="M598.2,344c3.1-2.3,5.9-4,8.1-6.3c4.9-4.8,10.6-7.7,17.1-10.1c11.6-4.4,23.6-6.2,35.8-7
		c2.8-0.2,5.7,0.3,8.5,0.2c4-0.1,8.1-0.4,13.6-0.8c6.6,1.8,10.7,7.8,10.9,15.4c0.2,8,0.6,17.1-8,21.4c-1.3,0-1.6,0.1-1.7,0
		c-8.2-4.6-16.9-3.8-25.8-2.7c-11,1.3-22,2.1-32.9,3.2c-8.5,0.8-16.5,3.1-23.9,7.3c-8.4,4.7-13.8,11.6-15.2,21.4
		c-0.9,5.9-2.2,11.8-3.3,17.6c-0.2,0.9-0.5,1.9-0.4,2.8c1.5,10.2-1.9,19.9-2.6,29.9c-0.2,3,0,6.1,0,10c4.7-0.2,8.9-0.5,13.2-0.6
		c5.5-0.1,11-0.3,16.5-0.1c8.7,0.4,17.1-0.2,25.4-3.4c4.6-1.8,9.7-2.2,14.6-3.2c6.5-1.4,13.3-2.1,19.6-4.2
		c11.3-3.9,22.3-8.6,34.2-13.2c2.2,5.2,4.6,10.9,7,16.6c-4.3,4.9-9.2,8-14.7,10.5c-8.9,4.1-17.8,8.4-26.7,12.4
		c-3.5,1.5-7.2,2.6-10.8,3.8c-6.6,2.2-13.2,4.3-19.8,6.5c-7.2,2.5-14.5,5.1-21.7,7.7c-5.3,1.9-10.7,2.5-16.2,0.6
		c-1.3-0.5-2.8-0.4-4-0.6c-12.9,4.7-27.4,3.8-33.7-2.2c0.3-2.6,0.6-5.4,0.9-8.5c-3.5-0.9-6.9-1.8-11-2.9
		c-1.6-14.6-1.1-28.7,1.6-41.6c0-5.6-0.5-10.2,0.1-14.6c2-16.2,4.5-32.3,6.6-48.4c0.8-6.4,0.9-12.9,1.4-19.3
		c0.5-5.9,0.5-12,1.7-17.8c3.8-17.8,8.2-35.5,12-53.3c2-9.3,6.4-16.9,12.9-23.6c1-1,2.3-1.9,2.8-3.2c3.2-7.6,9.6-11.5,16.1-15.7
		c8-5.2,15.5-11.3,23-17.2c5.9-4.6,12.5-6.8,19.9-7.5c8.8-0.8,17.6-2.4,26.4-2.8c6.9-0.3,13.9,0.2,20.6,1.7
		c8.7,1.9,13.4,8.5,13.1,17.4c-0.2,6.2-0.7,12.5-2.3,18.4c-2,7.5-8.1,9.8-14.6,5.4c-10.8-7.4-22.8-7.2-34.6-6.1
		c-7.6,0.7-15.9,1.1-22.3,6.7c-2.4-0.8-4.7-1.5-7.5-2.4c-8.4,6.5-13.3,15.4-15.9,25.4c-3.5,13.4-6.2,27-9.4,40.5
		c-2.1,8.6-4.5,17.1-6.7,25.7C594.7,338,594.8,338.3,598.2,344z"/>
	<path class="st1" d="M1330.3,312.2c-1.6-1.4-3.3-2.8-5-4.2c1.3-16.6,1.4-32.5,7.9-47.8c3.5-8.3,5.6-17.3,7.7-26.1
		c2.8-11.5,9.7-18.3,21-21.3c3.2-0.9,6.1-2.7,9.3-3.7c3.5-1.1,7.2-1.8,10-2.5c5.1,3.6,4.9,7.7,4.2,11.8c-1,6.1-2.1,12.3-3.3,18.4
		c-5.7,28.9-11.8,57.7-17.1,86.7c-3.6,20-6.2,40.3-9.1,60.4c-0.4,3.1-0.8,6.3-0.4,9.3c1.2,9.2-0.1,18.2-1.6,27.1
		c-2.2,13-1,25.8,2,38.5c0.5,2.1,0.9,4.2,1.4,6.5c-6.3,7.6-13.3,13.6-23.1,15.5c-7.2-5.6-10-12.1-8.9-20.5c0.3-2.3,0.9-5,0-7
		c-4.6-10.1-3.4-20.8-2.3-31.1c1.3-11.7,1-23.4,2.2-35c2-18.3,4.8-36.6,6.7-54.9c0.7-6.5-0.1-13.3-0.2-19.9
		C1331.3,312.5,1330.8,312.4,1330.3,312.2z"/>
	<path class="st4" d="M1138.2,63.8c5.5,4.3,10.7,7.4,14.7,11.7c10.1,10.8,10.5,23.6,3.8,36c-9.4,17.1-23.2,29.8-42.4,35.5
		c-6.5,1.9-13,3.1-19.8,1.1c-3.2-1-5.8-2.3-6.4-5.9c2.3-8.3,5.8-11.9,15-10.9c11.1,1.2,19.4-3.6,27.5-9.8c5.5-4.3,10.1-9.6,13.1-16
		c3.6-7.8,2.2-16.8-4-22.5c-6.7-6.2-15.7-6.8-21.9-3.4c-9,4.9-9.4,4.5-16.4,1.6c-0.4-0.8-1.1-1.8-1.4-2.9c-0.3-1.1-0.4-2.3-0.6-4.6
		c3.1-2,6.3-4.6,9.8-6.1c10.6-4.5,19.4-11.5,26.8-20.1c3.2-3.8,5.7-8.2,8.1-12.6c3.4-6.3-0.2-15-9-16.1c-14.3-1.7-28,1.1-41,8
		c-1.7,11.5-3.3,22.6-4.8,33.7c-1.9,13.7-3.9,27.4-5.3,41.2c-1,10.2-1.2,20.5-1.7,30.8c-0.3,6.8-1.5,8.5-8.2,10.8
		c-7.1-2.7-10.3-8.5-9-16.4c1.9-11.3,4.2-22.6,5.8-33.9c2.4-17.3,4.3-34.6,6.2-51.9c0.2-2-0.7-4.1-1.1-6.5c-3-0.9-5.7-1.7-8.2-2.5
		c-2.4-6.2-2-9.3,3.3-12.2c6.4-3.6,13.3-6.5,20.2-9c14.3-5.1,29.2-7.2,44.4-6.8c11.9,0.3,21.6,7.7,24.7,18.4c1.9,6.7,0.7,13-3,18.6
		c-3.8,5.7-8.4,11-12.8,16.4C1142.6,59.8,1140.3,61.8,1138.2,63.8z"/>
	<path class="st4" d="M824.1,7.1c2.3,0,4.4,0,6.1,0c3.6,2.7,4.4,6.2,4.1,9.9c-0.7,8.6-1.3,17.1-2.4,25.7c-1,8.3-3.2,16.4-1.8,24.7
		c11.8,4.8,57.6-0.1,67-7.4c1-6.7,2.5-13.9,3.2-21.2c0.9-9.3,1.3-18.6,1.5-27.9c0.1-5.4,1.9-9.3,7.3-10.8c7,2.1,8.8,3.7,8.3,10.4
		c-0.7,9.3-2.3,18.5-3.4,27.7c-1.8,15.4-3.8,30.8-5.1,46.3c-1.3,15.5-1.9,31-2.8,46.5c-0.3,5.1-3.1,8.3-6.6,11
		c-7.3,0.2-9.5-1.4-9.3-7.8c0.2-7.6,1-15.3,1.8-22.9c0.7-7.1,1.7-14.2,2.4-21.4c0.4-4.4,0.1-5.1-3.7-10c-20.2,1.5-41.1,3.1-62,4.7
		c-4.6,5.7-3.9,12.2-4.7,18.2c-1.4,10.2-1.9,20.5-3.1,30.6c-0.7,5.8-1.6,6.7-5.6,10.2c-7-1.5-11-7.8-9.7-15.6
		c1.4-8.5,3.3-16.9,4.5-25.4c2-14.2,3.6-28.4,5.3-42.7c1.4-11.9,2.6-23.8,3.9-35.6c0.3-2.9,0.4-5.7,0.4-8.6
		C820,12.4,820.9,9.5,824.1,7.1z"/>
	<path class="st4" d="M990.9,6.2c6.1-1.4,9.1,0.5,11.7,4.8c-1.7,12.5,3.7,24.3,7.6,36.3c5,15.2,9.9,30.5,15.3,45.6
		c4.6,12.9,10.3,25.3,19.8,35.5c0.8,0.9,1.4,1.9,2,3c2.4,4.2,1.4,9.4-2.2,12.3c-3.1,2.4-7.6,2.1-11-1.5c-3.1-3.3-5.9-7-7.9-11
		c-4.2-8.3-7.9-16.9-11.8-25.4c-1.6-3.5-3.2-6.9-5-10.8c-16.3,1.6-31.6,5.8-46.9,11c-2-0.8-3.9-1.6-6-2.4
		c-9.4,11.5-11.9,26.9-21.9,37.3c-6.6,0.4-9.5-2.8-11.3-9c1.7-3.3,3.5-7.5,5.8-11.3c14.8-24.6,29.1-49.6,40.7-75.9
		c4.1-9.2,8.7-18.1,13.5-27C985.5,13.3,988.6,9.6,990.9,6.2z M965.4,87.6c13.7-0.2,26.6-4.8,40.4-7.6c-5.6-16.3-9-32.4-15.2-49.4
		c-7.5,16.1-14.3,30.5-20.9,45c-1.8,3.8-2.9,8-4.4,12c-0.2,0.2-0.5,0.3-0.7,0.5c0,0.1,0.1,0.1,0.1,0.2
		C964.9,88,965.1,87.8,965.4,87.6z"/>
	<path class="st4" d="M736.8,5.3c2.3,0.8,5.1,1.9,6.6,2.4c2.2,10.1,3.2,19.2,6.1,27.7c7.7,23.1,13.3,47,23.9,69.1
		c4.1,8.5,8.8,16.4,14.7,23.7c1.8,2.2,3.1,4.7,4.5,6.8c-0.8,2.2-1.2,3.9-2,5.3c-2.8,5.1-7.5,6.5-11.8,2.6c-3.8-3.5-7.2-7.8-9.7-12.3
		c-4.2-7.8-7.4-16.1-11.1-24.1c-1.8-3.9-3.6-7.7-5.7-12.1c-7,1.3-13.6,2.3-20.1,3.8c-6.5,1.5-13,3.3-19.3,5.4
		c-4.3,1.4-8.4,1.8-13.4-0.5c-2.4,4.1-4.9,8.1-7.1,12.2c-3.1,5.9-6,12-9.1,17.9c-1.3,2.5-3,4.8-4.2,6.6c-6,2.4-8.9-0.7-11.3-4.3
		c-1.8-5.4,1.1-9.4,3.4-13.6c11.4-20.5,23.1-40.9,34.1-61.6c7.1-13.3,13.1-27.2,19.8-40.7C728.9,11.9,730.5,10.1,736.8,5.3z
		 M748.7,80c-5-16.8-9.6-32.5-14.2-48.1c-0.5,0-1,0-1.5,0c-8.5,18.3-17,36.5-25.9,55.8C721.8,87.2,734.5,83,748.7,80z"/>
	<path class="st4" d="M1288.4,144.7c-3.4,1.1-6.3,0.2-8.4-2.5c-3.1-3.9-6.6-7.7-8.8-12.1c-4.4-8.5-8-17.4-12-26.1
		c-1.4-3-2.9-6-4.5-9.4c-4.8,0.7-9.3,1.1-13.7,2.1c-9.1,2.1-18.1,4.5-27.1,7.1c-3.9,1.1-7.5,1.5-11.9-0.7
		c-8.7,11.4-12.3,25.8-20.9,36.9c-7.4,1.1-9.2-0.2-12.5-8.8c3.3-5.9,6.9-12.4,10.5-18.9c10-18.3,20.3-36.4,30-54.8
		c6.9-13.1,12.9-26.8,19.6-40c2.2-4.4,5.6-8.1,9-12.8c3.7,1.3,6.6,2.4,8.4,3c1.6,9.1,2.1,17.1,4.6,24.5
		c8.5,25.4,14.5,51.7,26.7,75.8c4.3,8.5,10,16.2,15.4,24.1C1294.6,137.3,1293.7,141.9,1288.4,144.7z M1209.2,87.8
		c15.2-0.8,28-4.9,41.6-7.8c-4.9-16.7-9.5-32.4-14.1-48.1c-0.5,0-1-0.1-1.5-0.1C1226.9,49.9,1218.5,68,1209.2,87.8z"/>
	<path class="st4" d="M644,100.4c-2.1-4.2-5.8-6.7-10.2-8.4c-8.7-3.4-17.5-6.6-26.1-10.2c-6-2.5-11.9-5.2-17.5-8.4
		c-16.3-9.4-20.1-33.1-7-46.5c17.5-18,39-24.2,63.6-19.8c3.4,0.6,6.8,2.5,9.6,4.5c7.1,5.3,8.7,14.3,3.9,21.7
		c-1.2,1.9-3.8,2.9-6.4,4.8c-1.1-3.9-1.8-6.7-2.6-9.4c-1.1-4.1-3.9-6.3-8-7.3c-11.2-2.9-21.9-0.8-32.4,2.9c-4,1.4-7.9,3.5-11.5,5.8
		c-13.1,8.3-13.4,22.6-0.2,30.7c6.3,3.8,13.4,6.2,20.2,9.2c8.8,3.8,17.9,6.8,26.3,11.3c14.4,7.8,16.8,21.5,6.9,34.4
		c-8.1,10.5-18.6,17.8-30.9,22.6c-11.9,4.7-24.1,8-37.1,6.8c-7.1-0.6-10.6-2.6-14-9.2c1-2.8,2.2-6.1,3.5-9.9
		c2.6,0.4,4.7,0.5,6.7,1.1c14.3,4.6,28.1,2.8,41-4.2c6.4-3.5,12.3-8.3,18-12.9C643.4,107,643.3,106,644,100.4z"/>
	<path class="st4" d="M1346.2,140.5c-6.6,0-9.3-1.6-10.4-6.9c-0.9-4.2-1.5-8.5-1.6-12.8c-0.5-15.3,0.6-30.6,2.5-45.8
		c1.7-14,3-28,4.3-42.1c0.1-0.9-0.3-1.8-0.6-3.6c-2.2-0.2-4.5-0.7-6.8-0.6c-6.4,0.5-12.8,1.6-19.2,2.1c-5.7,0.4-11.5,0.7-17.2,0.4
		c-2.4-0.1-4.8-1.5-7.5-2.4c0-3.1,0-5.7,0-7.9c1.7-3.2,4.5-3.7,7.5-3.8c9.1-0.4,18.2-0.5,27.2-1.3c15.2-1.4,30.4-3.1,45.6-5.1
		c12.4-1.6,24.6-3.8,36.9-0.2c5.3,5.5,5.6,6.9,2.2,13.7c-17.3,0.5-35.4-2.6-53.5,3.9c-1,6.2-2.2,12.2-2.8,18.3c-1.5,15-3.1,30-4,45
		c-0.7,11.9-1.5,24,1.2,35.8C1351.1,132.2,1349.9,136.4,1346.2,140.5z"/>
	<path class="st5" d="M1802.9,593.3c3.8-19.4,7.6-38.7,11.5-58.3c2.4-0.1,4.3-0.4,6.1-0.3c1.6,0,3.2,0.3,5.5,0.5
		c-5.2,26.2-10.3,52-15.5,78c-3.8,0-7.3,0-11.3,0c-10.7-20.6-21.4-41.3-32.9-63.4c-4.3,22-8.3,42.4-12.4,63.2c-3.6,0-7.1,0-11.6,0
		c5.2-26,10.3-51.9,15.5-78.1c4.6,0,8.9,0,13.3,0c10.2,19.6,20.3,39.2,30.4,58.7C1801.9,593.5,1802.4,593.4,1802.9,593.3z"/>
	<path class="st6" d="M784.6,609.4c-5.6,4.1-11.9,5.9-18.9,5.7c-15.2-0.4-25.7-11.4-24.6-26.6c1.6-21.6,22.9-35,43-29.6
		c3.7,1,7,3.9,11,6.3c0.6-1.4,1.3-3.2,2.2-5.3c3.1,0,6.4,0,10.5,0c-1.2,6.1-2.3,11.9-3.5,17.6c-2.4,12.2-4.7,24.4-7.3,36.6
		c-2.8,13.1-11.2,20.7-24,23.7c-6.6,1.5-13.3,2-19.9-0.1c-7.2-2.3-12.7-6.5-15.6-14.6c3.6-1.3,7.1-2.6,10.4-3.8
		c8.3,13.3,27,13.3,35.2,0.3c1.6-2.5,2.2-5.7,3.3-8.6c0.1-0.8,0.2-1.6,0.4-2.9C785.6,608.7,785.1,609.1,784.6,609.4z M775.8,567.1
		c-12.7-0.1-23,10.1-23,22.7c0,9.4,6.2,15.7,15.7,16c11.2,0.3,20.9-7.9,23-19.7C793.4,575.1,786.8,567.2,775.8,567.1z"/>
	<path class="st5" d="M1301.6,564.9c2-10.1,3.9-19.9,5.9-29.9c3.8,0,7.1,0,11.4,0c-4.7,26.2-10.2,52.1-15.2,78.2
		c-2,0.1-3.6,0.2-5.3,0.3c-1.7,0-3.3,0-5.2,0c-0.2-1.9-0.4-3.4-0.6-5.5c-6.2,4.7-12.3,7.3-19.7,7.2c-17.7-0.2-28.9-14.2-24.8-31.5
		c4-17.3,23.1-29.4,40.4-25.1C1292.9,559.6,1296.9,562.6,1301.6,564.9z M1298.2,583.6c0.2-8.4-3.7-14-11.6-15.9
		c-8.1-1.9-15.3,0.3-21.1,6.2c-5.6,5.7-7.5,12.7-5.6,20.5c1.6,6.7,6.2,10.4,13.3,11.2C1286,607.2,1297.9,596.7,1298.2,583.6z"/>
	<path class="st5" d="M1022.1,563.4c4.6-1.8,9.1-4.4,13.9-5.2c16.6-2.7,33.1,9.1,28.2,31.8c-3.7,17.1-23.9,29-40.8,24.4
		c-4.2-1.2-8-4-12.4-6.4c-0.5,1.4-1,3-1.8,5.1c-3.3,0-6.7,0-10.7,0c5.2-26.2,10.3-52,15.4-78.1c4,0,7.4,0,11.5,0
		c-1.7,9.3-3.4,18.2-5,27.1c-0.1,0.8-0.2,1.6-0.4,3C1021.1,564.2,1021.6,563.8,1022.1,563.4z M1053.2,583.9
		c0.1-10.8-6.2-17.1-17-16.8c-11.5,0.3-21.4,10.1-22,21.6c-0.5,9.9,5.4,16.4,15.3,17.1C1042.2,606.6,1053.1,596.5,1053.2,583.9z"/>
	<path class="st5" d="M1206,559.8c5.1,0,9.8,0,16.4,0c-10,7.6-18.8,14.2-27.9,21.1c6.1,10.8,11.9,21.1,18.2,32.1
		c-4.9,0-9.1,0-13.8,0c-4.4-7.9-8.9-16-13.9-24.9c-3.6,2.7-7,5.3-10.4,7.9c-1.2,5.7-2.4,11.3-3.7,17.1c-3.7,0-7.2,0-11.5,0
		c5.1-26,10.2-51.8,15.4-78c3.6,0,7.1,0,11.5,0c-2.9,15-5.7,29.9-8.5,44.7c0.4,0.2,0.8,0.5,1.2,0.7
		C1187.9,573.7,1196.8,566.9,1206,559.8z"/>
	<path class="st6" d="M2158.7,607.9c-6,4.6-12,7.8-19.4,7.2c-1.4-0.1-2.9-0.1-4.3-0.3c-8.3-1.1-14.6-6.4-15.9-13.4
		c-1.4-7.1,2.3-14.3,9.7-18.4c9-5,18.7-5.5,28.6-3.7c2.3,0.4,4.6,1.2,6.9,1.8c1.7-7.3,0-10.9-6.3-13c-6-2-11.8-1.3-17.2,2.1
		c-1.8,1.1-3.5,2.5-5.3,3.8c-2.7-1.7-5.3-3.4-8.5-5.4c3.1-4.4,7.2-6.7,11.6-8.3c7.8-2.9,16-3.2,24-1.4c10.3,2.3,15.1,9.8,13.7,21
		c-0.2,1.4-0.5,2.8-0.8,4.2c-1.9,9.6-3.8,19.2-5.8,29.1c-3.5,0-6.8,0-10.4,0C2159.1,611.6,2158.9,610.1,2158.7,607.9z M2162.5,590.1
		c-8.8-4.2-17.7-5-26.5-0.4c-3.3,1.8-5.3,4.8-4.7,8.9c0.6,4.2,3.7,6,7.3,6.9C2148.6,608.1,2159.8,601.1,2162.5,590.1z"/>
	<path class="st6" d="M1358.9,613.1c-0.2-1.6-0.4-3-0.7-5.5c-7.2,7.1-15.5,8.6-24.4,7.1c-11.2-1.9-17.5-11.4-14.2-21.4
		c1.6-4.8,5-8.1,9.4-10.4c9.1-4.9,18.7-5.3,28.6-3.4c2.1,0.4,4.2,1,6.2,1.5c2.1-6.1,0.8-9.9-4.7-12.3c-6.1-2.7-12.2-2.2-17.9,1.1
		c-1.9,1-3.5,2.5-5.8,4.2c-2.7-1.7-5.6-3.5-8.5-5.4c8.8-12.1,30.7-12.8,40.1-8.1c5.8,2.9,9.2,7.6,9.2,14.3c0,2.6-0.4,5.2-0.6,7.9
		c-0.1,0.7-0.2,1.4-0.4,2.1c-1.9,9.4-3.9,18.7-5.9,28.4C1366,613.1,1362.7,613.1,1358.9,613.1z M1362.8,590.2
		c-8.6-3.9-16.9-4.8-25.3-1.4c-4.9,2-7.2,6-6.5,10c0.6,3.8,4.4,6.6,9.6,7.1C1350.4,606.7,1358.6,601.2,1362.8,590.2z"/>
	<path class="st6" d="M1117.3,581c1.4-7.8-1-12-8-13.5c-5.6-1.2-11-0.6-15.9,2.7c-1.6,1.1-3.1,2.3-5,3.7c-2.7-1.6-5.4-3.3-8.7-5.3
		c7.3-8.9,16.7-10.6,26.7-10.8c2.9-0.1,5.8,0.3,8.6,1c9.9,2.2,15.6,9.2,14.2,19.3c-1.6,11.8-4.4,23.4-6.6,35.3c-3.7,0-6.8,0-10.1,0
		c-0.6-1.2-1.2-2.6-2.1-4.5c-6.6,5.5-13.9,7.2-21.8,6.2c-8.4-1-14.9-6-16.5-12.9c-1.7-7.4,1.9-14.8,9.7-19.1c9-5,18.7-5.4,28.6-3.6
		C1112.8,579.7,1115.1,580.4,1117.3,581z M1115.3,590.6c-7.8-4.8-20.1-5.2-26.4-0.9c-3.1,2.1-5.4,4.9-4.7,8.9c0.6,4.1,3.7,6,7.3,6.9
		C1101.6,608.2,1112.9,601,1115.3,590.6z M1111.9,608.1c-0.1-0.2-0.2-0.3-0.4-0.5c-0.1,0.1-0.3,0.3-0.4,0.4c0.2,0.2,0.4,0.3,0.6,0.5
		C1111.7,608.4,1111.8,608.3,1111.9,608.1z"/>
	<path class="st6" d="M1587.1,580.9c1.8-6.2,0.6-9.8-4.4-12.1c-6.3-2.9-12.6-2.4-18.6,1c-1.8,1.1-3.5,2.5-5.7,4.1
		c-2.6-1.6-5.4-3.3-8.7-5.3c7.6-8.9,17.1-10.7,27.4-10.8c1.4,0,2.9,0.3,4.3,0.4c13.7,1.6,19.5,8.9,17.5,22.6
		c-1.2,8.3-3.1,16.5-4.7,24.7c-0.5,2.5-1.2,5.1-1.8,7.8c-3.5,0-6.8,0-10.3,0c-0.2-1.5-0.3-2.9-0.5-4.4c-0.7,0.2-1.5,0.1-1.9,0.5
		c-6.8,5.7-14.6,6.8-23,5.4c-7.7-1.3-13.1-6.4-14.5-13.2c-1.4-6.8,1.6-13.5,8.3-17.7c9.2-5.8,19.4-6.3,29.8-4.5
		C1582.5,579.6,1584.8,580.3,1587.1,580.9z M1585.7,590.3c-8-4.2-16.3-4.8-24.7-1.7c-5.3,2-7.6,6.1-6.8,10.5
		c0.7,3.8,4.6,6.5,9.8,6.8C1573.9,606.6,1582.1,600.9,1585.7,590.3z"/>
	<path class="st5" d="M947.6,588.7c-15.7,0-31.3,0-46.7,0c-0.5,10.7,5,16.6,15.3,17c8,0.3,14.3-3.3,19.8-9.5c2.7,1.3,5.4,2.7,9,4.4
		c-2.1,2.4-3.6,4.5-5.5,6.1c-10.2,8.6-21.9,10.5-34.4,6.6c-13-4.1-19.1-16-15.8-29.8c6-24.7,32.3-30.1,47.7-23.1
		C947.3,565.1,951.4,575.9,947.6,588.7z M903.4,579.9c11.8-0.2,22.9,0.3,34.1-0.3c-1.6-8.5-5.3-11.8-13.1-12.4
		C914.8,566.4,907.2,570.7,903.4,579.9z"/>
	<path class="st6" d="M2274.8,613.1c-3.9,0-7.1,0-10.6,0c-0.1-1.7-0.3-3.1-0.4-4.8c-1,0.5-1.9,0.7-2.6,1.3c-6.7,5.4-14.3,6.4-22.4,5
		c-7.6-1.3-13.4-6.6-14.6-13.1c-1.3-6.7,1.8-13.6,8.4-17.7c9.3-5.8,19.4-6.3,29.9-4.5c2.3,0.4,4.6,1.1,6.9,1.7
		c1.6-8-1-12.2-8.5-13.7c-6.8-1.4-11.8,0.2-20.3,6.5c-2.6-1.6-5.3-3.3-8.6-5.2c4.4-6,10.2-8.8,16.6-9.8c5.8-0.9,12-1,17.8-0.2
		c10.4,1.5,16.3,8.9,15,19.2C2279.8,589.7,2277,601.3,2274.8,613.1z M2267.8,590.2c-8.4-3.9-16.7-4.8-25.1-1.4c-4.8,2-7.1,6-6.4,10
		c0.7,3.9,4.3,6.6,9.5,7.1C2255.8,606.7,2264.3,600.9,2267.8,590.2z"/>
	<path class="st6" d="M1995.7,581.1c1-8.7-1.8-12.7-9.3-13.9c-7.6-1.2-14.2,1.1-19.6,6.9c-3-2-5.8-3.7-8.8-5.8
		c7.6-8.7,17-10.7,27-10.6c4,0,8.1,0.8,11.9,2.2c7.4,2.7,11.8,9,10.7,16.8c-1.7,12.3-4.5,24.4-6.8,36.6c-3.8,0-6.9,0-10.3,0
		c-0.4-1.2-0.8-2.5-1.3-4.1c-1,0.4-1.9,0.5-2.6,1c-6.1,4.6-13.1,5.6-20.5,4.6c-8.1-1.1-14.3-6.1-15.8-12.6
		c-1.7-7.6,1.8-14.9,9.5-19.2c9-5,18.7-5.5,28.6-3.7C1990.8,579.7,1993,580.4,1995.7,581.1z M1993.8,590.1
		c-8.4-3.8-16.5-4.5-24.7-1.4c-4.8,1.8-7.5,6-7,9.7c0.5,4.1,4.5,7.1,10,7.5C1982.2,606.6,1990.7,600.6,1993.8,590.1z"/>
	<path class="st5" d="M656.2,581c1.6-7.4,0-10.9-6.3-13c-6-2-11.8-1.4-17.2,2c-1.8,1.1-3.4,2.5-5.3,3.9c-2.7-1.7-5.3-3.3-8.8-5.5
		c2.3-2.1,4-4,6.1-5.3c10-6,20.8-7,31.8-3.6c8.8,2.7,13.3,9.8,11.9,18.8c-1.9,11.5-4.4,23-6.7,34.8c-3.5,0-6.8,0-10.3,0
		c-0.3-1.1-0.7-2.3-1.2-3.9c-1,0.4-2,0.6-2.6,1.1c-6.2,4.6-13.1,5.6-20.5,4.6c-8.1-1.1-14.3-6.2-15.7-12.7
		c-1.6-7.6,1.9-14.9,9.6-19.1c9-5,18.7-5.5,28.6-3.7C651.6,579.7,653.9,580.4,656.2,581z M654.5,590.1c-8.8-4.1-17.6-5.1-26.5-0.4
		c-3.3,1.7-5.5,4.7-5,8.8c0.4,3.5,3.6,6.3,8,7.2C640.9,607.8,651.5,601.1,654.5,590.1z"/>
	<path class="st5" d="M1867.6,613.2c-0.1-1.6-0.2-2.9-0.3-4.5c-0.9,0.2-1.6,0.2-2.1,0.6c-6.6,5.3-14.2,6.7-22.4,5.6
		c-9.5-1.3-15.1-7.6-14.8-17.1c0.2-4.7,1.3-9.5,2.2-14.2c1.4-7.3,2.9-14.6,4.4-21.8c0.1-0.5,0.3-0.9,0.7-1.7c3.3,0,6.8,0,11.1,0
		c-1.6,8.3-3.2,16.4-4.8,24.5c-0.6,2.8-1.2,5.6-1.7,8.5c-1.2,7.2,1.9,11.6,9.1,12.7c9.8,1.5,19.5-5.2,21.9-15.6
		c2-8.6,3.5-17.4,5.3-26.1c0.3-1.4,0.7-2.7,1.1-4.2c3.6,0,6.9,0,11.3,0c-3.5,18-7,35.7-10.5,53.4
		C1874.3,613.2,1871,613.2,1867.6,613.2z"/>
	<path class="st5" d="M1612.2,559.8c4.1,0,7.5,0,11.6,0c-0.8,4.7-1.6,9.1-2.4,13.5c-1.2,6.6-2.8,13.1-3.8,19.7
		c-1.2,8.5,2.5,12.5,11.2,12.8c9,0.3,17-5.7,19.3-15.1c2.2-9.1,3.8-18.3,5.6-27.4c0.2-0.9,0.4-1.8,0.8-3.2c3.5,0,7,0,11.4,0
		c-3.4,17.6-6.8,35.1-10.3,53c-3.5,0-6.7,0-10.5,0c-0.1-1.4-0.3-3.2-0.5-5.7c-6.7,6.4-14.4,8.5-22.9,7.7c-11.2-1-17.7-8.3-16.1-19.4
		C1607.3,583.8,1609.9,572.1,1612.2,559.8z"/>
	<path class="st5" d="M682.7,613.1c-3.7,0-7.2,0-11.5,0c3.5-17.8,6.9-35.4,10.4-53.2c3.5,0,6.8,0,10.5,0c0.2,1.4,0.3,2.8,0.4,3.7
		c5.6-2,10.8-4.2,16.2-5.5c3.1-0.7,6.7-0.3,9.9,0.4c8.3,1.6,13.3,7.8,13.2,16.3c-0.1,3.6-0.7,7.1-1.4,10.6
		c-1.8,9.1-3.7,18.2-5.6,27.6c-3.8,0-7.3,0-11.4,0c1.6-8.3,3.2-16.5,4.7-24.6c0.6-3.1,1.4-6.1,1.8-9.1c1-6.6-2-10.6-8.4-11.9
		c-9.9-2-20.1,4.7-22.6,15.3c-2.1,8.8-3.7,17.8-5.5,26.7C683.3,610.6,683,611.7,682.7,613.1z"/>
	<path class="st5" d="M2020.9,559.8c4,0,7,0,10.4,0c0.2,1.6,0.4,3.1,0.7,5.1c7.4-5.7,15.1-8.3,23.9-6.8c10.7,1.7,16.4,8.7,15,19.7
		c-1.1,8.5-3.1,16.9-4.8,25.4c-0.6,3.3-1.4,6.5-2.1,10c-3.8,0-7.3,0-11.4,0c2-10.6,4-20.8,6-31.1c2.1-11.1-4-17.1-15.1-14.5
		c-8.5,2-13.7,7.5-15.5,16c-1.9,8.9-3.6,17.8-5.5,26.7c-0.2,0.9-0.5,1.8-0.7,2.9c-3.7,0-7.2,0-11.4,0
		C2014,595.2,2017.4,577.7,2020.9,559.8z"/>
	<path class="st5" d="M1890.5,599.7c3.4-1.3,6.5-2.4,10-3.8c0.8,1.1,1.5,2.2,2.3,3.3c4.7,6.6,14.9,8.8,21.9,4.7
		c5.2-3.1,5.3-8.4,0-11.2c-2.5-1.3-5.4-1.8-8.1-2.7c-3.9-1.2-8-2-11.6-3.8c-9.7-4.8-10.9-15.2-2.7-22.3c6.2-5.3,13.7-6.6,21.5-6.2
		c5.3,0.2,10.5,1.4,14.7,5c2.3,1.9,4.1,4.4,6.7,7.4c-4.3,1.6-7.6,2.8-10.7,4c-10.3-9.5-20.2-9.8-25.3-0.8c0.3,4.4,3.7,5.6,7.3,6.7
		c5.3,1.6,10.7,2.7,15.7,4.9c6.8,3.1,9.1,8.2,8.1,15.2c-0.7,4.6-3.2,8.1-7.1,10.3c-11,6.2-22.4,6.6-33.7,1.1
		C1895,609.3,1891.9,605.3,1890.5,599.7z"/>
	<path class="st5" d="M581.4,613.2c-4.2,0-7.5,0-11.5,0c2.4-12.3,4.7-24.2,7-36.4c-6.9-13.6-13.8-27.3-21-41.7c4.6,0,8.5,0,13.1,0
		c4.8,9.8,9.8,20.1,15.4,31.5c9.5-10.9,18.5-21.2,27.6-31.7c4.2,0,8.4,0,14,0c-13,14.6-25.2,28.3-37.4,42
		C586.3,588.9,583.9,600.9,581.4,613.2z"/>
	<path class="st3" d="M2070.1,327.8c-4.5-7.7-5.9-15.3-1-23.1c3.7-5.9,7.8-11.4,14.5-14.4c2-0.9,3.7-3,5.1-4.9
		c4.5-6.3,10.9-7.3,17.8-6.4c4.6,0.6,7,3.5,5.9,8c-2.1,8.6-4.2,17.2-7.5,25.4c-4.3,10.7-17.5,17.4-29.1,16
		C2074.3,328.2,2072.6,328.1,2070.1,327.8z"/>
	<path class="st5" d="M902.7,534.9c-0.7,3.6-1.2,6.3-1.8,9.5c-8.3,0-16.1,0-24.6,0c-4.6,23.1-9.2,45.8-13.8,68.6
		c-3.9,0-7.3,0-11.5,0c4.5-22.6,8.8-44.8,13.4-68.1c-4.4-0.2-8.3-0.3-12.2-0.4c-3.8-0.1-7.6,0-12.2,0c0.7-3.5,1.2-6.4,1.8-9.6
		C862.2,534.9,882,534.9,902.7,534.9z"/>
	<path class="st6" d="M1479.9,613c5.2-26.3,10.4-52.1,15.5-78.1c3.9,0,7.4,0,11.6,0c-4.5,22.9-8.9,45.3-13.5,68.5
		c12.9,0,25.1,0,38.1,0c-0.8,3.7-1.4,6.7-2,9.6C1513,613,1496.8,613,1479.9,613z"/>
	<path class="st5" d="M1701.5,543.1c-0.9,5.4-1.8,10.3-2.8,16.1c4.7,0,9.1,0,14.4,0c-0.7,3.7-1.3,6.4-1.9,9.4c-4.8,0-9.3,0-14.3,0
		c-2.6,11.4-5.2,22.5-6.1,33.4c4.7,3.6,4.7,3.6,11.5,3.2c0.6,2.6,1.2,5.3,1.9,8.3c-5.4,1.8-10.4,2-15.3,0.9
		c-6.5-1.4-10.4-6.3-9.7-13.1c0.8-7.8,2.6-15.6,3.9-23.4c0.5-2.8,0.9-5.6,1.4-8.8c-3.4-0.3-6.2-0.5-9.9-0.7c0.5-2.8,0.9-5.5,1.4-8.6
		c3.6-0.2,6.9-0.4,10.5-0.6c1.2-5.3,2.5-10.6,3.8-16.2C1693.8,543.1,1697,543.1,1701.5,543.1z"/>
	<path class="st5" d="M2117.9,559.2c-0.9,4-1.5,6.5-2.2,9.4c-4.6,0-9.1,0-14.2,0c-2.7,11.6-5.4,22.8-6.2,33.3
		c3.6,4.7,7.2,3.8,11.3,3c0.7,2.8,1.4,5.5,2.2,8.4c-5.7,2.5-11.1,2.4-16.4,1c-6.2-1.7-9.7-7-8.7-13.8c1.1-7.8,2.8-15.5,4.2-23.3
		c0.5-2.5,0.7-5.1,1.1-8c-3.5-0.2-6.3-0.4-9.9-0.6c0.5-2.9,0.9-5.6,1.4-8.6c3.7-0.2,7-0.4,10.6-0.6c1.2-5.4,2.5-10.7,3.8-16.2
		c3.5,0,6.8,0,11,0c-0.8,5.2-1.7,10.2-2.6,16.1C2107.9,559.2,2112.3,559.2,2117.9,559.2z"/>
	<path class="st3" d="M1995.5,480.8c-5.2,2.2-9.8,0.7-13.5-2.4c-3.3-2.9-6.4-6.6-8.2-10.5c-2-4.2-2.4-9-3.5-13.3
		c1.1-4.1,1.9-7.8,3.1-11.4c1.9-5.8,5.7-7.7,11.7-6.3c4.3,1.1,8.2,3.3,10.5,7c2.9,4.9,5.7,10,7.3,15.3c1.8,5.8,1.5,11.8-3.8,16.4
		C1997.6,477,1996.7,479.1,1995.5,480.8z"/>
	<path class="st5" d="M953.2,613.1c3.5-18,7-35.5,10.4-53.2c3.5,0,6.5,0,10,0c0.5,1.1,1,2.5,1.8,4.4c7.6-4.9,15.2-8.7,25.3-5
		c-1.5,3.1-2.9,6-4.4,9.2c-1.9,0-3.8,0-5.6,0c-10.2,0-17.4,5.2-19.9,15.2c-2.2,8.8-3.7,17.8-5.5,26.7c-0.2,0.9-0.5,1.8-0.8,2.9
		C960.9,613.1,957.5,613.1,953.2,613.1z M974.1,564.7c0,0.1,0,0.3,0,0.4c0.4,0,0.9,0,1.3,0c0-0.1,0-0.3,0-0.4
		C975,564.7,974.6,564.7,974.1,564.7z"/>
	<path class="st6" d="M2190.8,613.2c-4.1,0-7.4,0-11.6,0c3.5-17.9,7-35.4,10.5-53.3c3.5,0,6.7,0,10.4,0c0.2,1.4,0.5,2.9,0.8,5
		c7.7-5.5,15.6-9.5,26-5.6c-1.6,3.3-3.1,6.2-4.6,9.1c-1.9,0-3.6,0-5.2,0c-10.7-0.1-18.2,5.8-20.6,16.3c-1.1,4.7-1.9,9.4-2.8,14.1
		C2192.8,603.5,2191.9,608.1,2190.8,613.2z"/>
	<path class="st6" d="M1389.6,559.7c3.9,0,7,0,10.5,0c0.1,1.9,0.2,3.7,0.3,6.2c7.5-6.7,15.5-10.1,25.6-7.1c-0.3,3.9-2.4,6.6-4.1,9.6
		c-1.4,0-2.6,0.1-3.8,0c-10.1-1.3-20,5.5-22.2,17.8c-1.6,8.9-3.4,17.7-5.2,26.9c-3.9,0-7.4,0-11.6,0
		C1382.7,595.2,1386.1,577.7,1389.6,559.7z"/>
	<path class="st6" d="M1436.3,613.2c-4.3,0-7.6,0-11.6,0c3.5-17.8,6.9-35.3,10.4-53.2c3.6,0,7,0,11.3,0
		C1443.7,577.8,1439.6,595.3,1436.3,613.2z"/>
	<path class="st5" d="M1143.6,559.9c4.4,0,7.7,0,11.6,0c-3.5,18-7,35.5-10.5,53.2c-3.8,0-7.3,0-11.6,0
		C1136.7,595.1,1140.1,577.5,1143.6,559.9z"/>
	<path class="st6" d="M1444.5,548.3c-4.5-0.1-8-3.5-7.9-7.4c0.1-4,3.9-7.1,8.3-7c4.5,0.1,8,3.4,7.8,7.4
		C1452.7,545.3,1449,548.4,1444.5,548.3z"/>
	<path class="st6" d="M1153.1,548.2c-4.6,0-8-3.1-7.9-7.3c0-4.1,3.5-7.2,8.1-7.2c4.5,0,8,3.3,8,7.3
		C1161.2,545.1,1157.6,548.3,1153.1,548.2z"/>
	<path class="st7" d="M965.4,87.6c-0.2,0.2-0.4,0.4-0.7,0.6c0-0.1-0.1-0.1-0.1-0.2c0.2-0.2,0.5-0.3,0.7-0.5
		C965.3,87.5,965.4,87.6,965.4,87.6z"/>
	<path class="st8" d="M784.6,609.4c0.5-0.3,1-0.6,2.1-1.3c-0.2,1.3-0.3,2.1-0.4,2.9C785.7,610.5,785.2,609.9,784.6,609.4z"/>
	<path class="st8" d="M1022.1,563.4c-0.5,0.4-1,0.8-2.1,1.7c0.2-1.5,0.3-2.3,0.4-3C1020.9,562.5,1021.5,562.9,1022.1,563.4z"/>
	<path class="st8" d="M1111.9,608.1c-0.1,0.1-0.2,0.3-0.2,0.4c-0.2-0.2-0.4-0.3-0.6-0.5c0.1-0.1,0.3-0.3,0.4-0.4
		C1111.6,607.8,1111.7,608,1111.9,608.1z"/>
	<path class="st8" d="M974.1,564.7c0.4,0,0.9,0,1.3,0c0,0.1,0,0.3,0,0.4c-0.4,0-0.9,0-1.3,0C974.1,565,974.1,564.8,974.1,564.7z"/>
</g>
<g id="Layer_2">
	<linearGradient id="SVGID_1_" gradientUnits="userSpaceOnUse" x1="-9.094947e-13" y1="317.2286" x2="482.4941" y2="317.2286">
		<stop  offset="0.1341" style="stop-color:#040EE0"/>
		<stop  offset="0.2156" style="stop-color:#061DC6"/>
		<stop  offset="0.3886" style="stop-color:#093995"/>
		<stop  offset="0.5521" style="stop-color:#0C506E"/>
		<stop  offset="0.7018" style="stop-color:#0E6052"/>
		<stop  offset="0.8328" style="stop-color:#106A41"/>
		<stop  offset="0.9307" style="stop-color:#106D3B"/>
	</linearGradient>
	<path class="st9" d="M475.7,396.6c-1.5,1.9-2.9,3.5-4.1,5.2c-3.6,5.4-6.9,11-10.8,16.2c-3.7,4.9-4.1,8.9-0.8,14.8
		c16.8,30.2,11.3,61.7-14.8,84.5c-7,6.1-14.8,11.5-22.8,16.2c-22.5,13.2-47.3,20.9-72.4,27.6c-21.1,5.6-42.3,6.1-63.5,2.2
		c-55.6-10.2-103.4-35.9-144-75c-14.3-13.8-26.4-29.3-33.9-47.8C93.8,403.9,87.5,366.1,92,326.9c5.9-50.9,26.8-95.2,60.2-133.7
		c1.5-1.7,3.3-3.3,4.8-4.7c1.1,0.6,1.7,0.7,1.9,1c16.9,33.4,34.5,66.4,56.6,96.8c0.4,0.5,0.4,1.3,0.7,2.8c-2.9,1.4-5.8,2.9-8.7,4.3
		c-3,1.4-6.1,2.8-9.2,4.2c-3.1,1.4-6.2,2.6-9.2,4.2c-2.7,1.4-6,2-9.1,5.5c3.1-0.5,4.8-0.7,6.4-1c9.9-2.1,19.8-3.9,29.5-6.3
		c5.9-1.5,10.3-0.5,14.8,4c7.1,7.1,14.9,13.6,22.5,20.1c6.8,5.8,14.1,10.9,22.5,14c14.2,5.4,26.7,1.1,34.7-11.9
		c1.4-2.2,2.7-4.6,3.4-7.1c5.3-18.1,8.7-36.5,5.3-55.3c-0.9-5.1,0.4-7.9,4.3-10.8c17.6-13.1,33.5-28,47.5-44.9
		c10.6-12.7,21.3-25.3,31.7-38.2c5.5-6.9,10.6-14.3,15.4-21.7c2.5-3.8,4.4-8,5.9-12.3c3.1-8.7,1.8-12.2-6.4-16.4
		c-5.1-2.6-10.5-4.8-15.9-6.6c-37.1-12.2-75.2-19.7-114.1-22.3c-38.3-2.5-76.2,1.2-113.4,10.9c-5.1,1.3-10.1,2.7-16.2,4.4
		c-4.3-28.9-5.9-57.7-10.6-86c-0.9,1.1-2.5,19.1-3,27c-1.4,22-2.9,44-4.2,66c-0.2,3.5-1.7,5.7-4.6,7.5c-4.1,2.5-8.1,5.1-12,7.9
		C53.7,179.5,9.9,246.1,1.2,333.7c-3.4,34.5,0.6,68,13.1,100.3c19.4,50.1,51.4,90.7,93.3,123.8c32.3,25.4,68.2,43.8,108.7,52.1
		c28.5,5.9,57.1,5.9,85.9,2.5c53.7-6.3,98.4-29,132.7-71.3c16.9-20.8,31.6-42.9,40.3-68.5c7.2-21.3,9.4-43,5.1-65.2
		C479.6,403.8,479.4,399.8,475.7,396.6z M289.9,310.8c-2.9,5.3-6.8,6.7-12.8,5.4c-1.4-0.3-2.8-0.7-4.1-1.3
		c-10-4.8-17.1-12.7-23.8-21c5.6-4.9,43.8-22.4,49.4-22.9c0.1,0.2,0.4,0.4,0.4,0.6C299,285.4,296.6,298.7,289.9,310.8z M181,172.5
		c4.8-4,9.4-8.3,14.4-11.9c23.3-16.9,49.4-27.5,77.8-31.9c15.7-2.4,31.5-2.5,47.1,2c10.4,3,20.8,5.5,31.2,8.5c3,0.8,5.8,2.4,8.5,3.8
		c3.9,2,6.2,5.2,6.5,9.7c0.9,14.8-1.4,29.4-11.4,40.5c-11.7,12.9-25.2,24.3-37.9,36.2c-0.6,0.6-1.7,0.8-3.3,1.6
		c-2.6-9.2-5-18-7.5-26.8c-0.6,0-1.2,0.1-1.9,0.1c-0.6,5.8-1.2,11.5-1.6,17.3c-0.5,6.2-1,12.4-1.3,18.6c-0.1,2.9-1.3,4.9-3.8,6.4
		c-18.1,10.8-36.2,21.7-54.3,32.6c-0.4,0.2-0.9,0.2-2.4,0.6c-2.2-2.4-5-4.9-7.3-7.8c-18.6-23.6-35.4-48.3-47.2-76.2
		c-2.2-5.3-4.6-10.6-7.1-15.7C177.9,176.9,178.4,174.6,181,172.5z"/>
	<path class="st10" d="M298,381.9c9.4,12.5,19.1,25.3,29.1,38.7c-1.8,1.9-3.2,3.8-5,5.2c-7.2,5.6-14.3,11.3-21.7,16.6
		c-2.4,1.7-5.6,3-8.5,3.1c-33.5,1.3-67,2.4-100.6,3.5c-1.4,0-2.8-0.2-4.3-0.4C194.5,435.3,275.7,386.5,298,381.9z"/>
	<path class="st10" d="M346,517.4c-2.8-3.3-4.3-5.4-6.2-7.2c-3.4-3.5-6.4-4.2-9.6-2.7c-3.9,1.9-6.4,6.3-5.5,10.7
		c0.5,2.3,1.5,4.6,2.6,6.6c1.1,2.1,0.8,3.6-1.6,5c-18.6-10.7-34.8-23.4-39.2-46.3c-1.9-9.9-0.5-19,6.1-27c6.5-7.9,13.3-9.5,22.1-4.3
		c10.6,6.3,18.8,15.3,23.2,26.6c4.1,10.6,6.2,22.1,9,33.2C347.2,513.2,346.5,514.6,346,517.4z"/>
	<path class="st10" d="M389.6,522.9c1.7-6.2,3.5-12.3,5.1-18.5c2.5-9.5,4.7-19,7.2-28.5c2.9-11.1,2.8-22.2,0-33.4
		c-2.1-8.1-4.1-16.2-6.1-24.4c-0.4-1.4-0.8-2.8-1.2-4.1c-1.3-5.7,0.4-7.9,6-7.2c9.4,1,17.1,5.2,21.4,13.8c2.6,5.3,4.7,11.1,5.4,16.9
		c2.2,18.2,0,35.8-9.4,52.1c-6.7,11.7-14.8,22.3-24.3,31.9c-0.8,0.8-1.8,1.4-2.7,2.2C390.6,523.4,390.1,523.1,389.6,522.9z"/>
	<path class="st10" d="M395.4,532.1c2.4-2.3,4.8-4.5,7.2-6.8c13.5-13.1,24.1-28.1,27.8-46.8c3.3-16.5,4.9-33.1,3-50
		c-0.3-2.9-1.9-6.2,1.1-8.7c11.5,2.6,23.4,15.2,26.5,27.6c2.1,8.3,0.7,16.2-2.1,23.9c-3.8,10.3-10,19.1-17.2,27.2
		C429.9,511.7,410.3,526.5,395.4,532.1z"/>
	<path class="st10" d="M372.1,532.5c10.2-40.3,5.1-78-17.5-113c8.4-11.5,20.2-12.2,28.6-1.1c9.6,12.7,13.9,27.3,12.6,43.2
		C393.7,487.1,384.2,510.2,372.1,532.5z"/>
	<path class="st10" d="M377.9,398.6c-1.9,0.9-3.9,2.2-6,2.7c-11.4,2.7-22.9,5.2-34.3,7.9c-3.2,0.8-5.5,0.3-7.7-2.1
		c-7.5-8.1-15.2-16-22.7-24c-0.6-0.7-0.9-1.6-1.6-2.6c1.2-1,2.1-2.3,3.3-2.8c14.1-6.6,28.5-12.5,44.4-13.7c3-0.2,5,0.3,6.6,2.9
		c5.8,9.7,11.6,19.3,17.4,28.9C377.6,396.2,377.6,397,377.9,398.6z"/>
	<path class="st10" d="M318.1,439.2c7.4-7.8,15.2-14.3,26-15.5c6.4-0.7,10.9,2.9,14.1,8.2c5,8.2,7,17.2,7.7,26.7
		c1.2,15.5-2.3,30.5-5.2,45.5c-0.5,2.7-1.2,5.4-2.5,8.2C357.1,481.4,339.5,459.7,318.1,439.2z"/>
	<path class="st10" d="M396.4,359c7,0.6,13.9,1.3,20.8,1.9c3.7,0.3,5.6,2.1,5.6,5.9c0,10.3,0.2,20.6-0.1,30.9
		c-0.1,5.6-1.9,6.8-7.3,5.9c-7.8-1.3-15.5-2.9-23.3-4.3c-3-0.5-5.2-1.9-6.7-4.7c-4.7-8.9-9.6-17.6-14.3-26.5
		c-2.5-4.8-1.8-6.2,3.9-6.9C382.2,360.2,389.4,359.7,396.4,359z"/>
	<path class="st10" d="M470.5,391c-1.3,1.7-2.6,3.7-4.1,5.4c-5.3,6.2-10.7,12.4-15.8,18.7c-2.7,3.3-5.5,3.7-9.5,2.3
		c-6.4-2.2-9.6-5.8-9.7-13.1c-0.1-9.6-1.5-19.1-2.3-28.7c-0.1-1.7-0.3-3.4-0.3-5c0.1-3,1.6-4.2,4.7-3.8
		C446.2,368.9,462,379.1,470.5,391z"/>
	<path class="st10" d="M245.3,184.1c-0.2-11.6,9.5-21.4,21.3-21.5c11.4-0.1,20.1,8.4,20.3,19.6c0.1,11.5-9.7,21.4-21.4,21.6
		C254.2,204,245.4,195.5,245.3,184.1z"/>
</g>
</svg>
