<?xml version="1.0" encoding="utf-8"?>
<!-- Generator: Adobe Illustrator 23.0.5, SVG Export Plug-In . SVG Version: 6.00 Build 0)  -->
<svg version="1.1" id="Layer_1" xmlns="http://www.w3.org/2000/svg" xmlns:xlink="http://www.w3.org/1999/xlink" x="0px" y="0px"
	 viewBox="0 0 312.2 300.7" style="enable-background:new 0 0 312.2 300.7;" xml:space="preserve">
<style type="text/css">
	.st0{fill:#3979A8;}
	.st1{fill:#B41B41;}
	.st2{fill:#F47528;}
	.st3{fill:#007548;}
	.st4{fill:#003797;}
	.st5{fill:#FBB000;}
	.st6{fill:#F4B74F;}
	.st7{fill:#2B3990;}
</style>
<g>
	<path class="st0" d="M58.4,129.6c0,0,12-46.7,99.8-65C226.5,50.4,242,0,242,0s35.6,24,13.9,59.3c-24.6,40-77.2,36.9-98.7,35.2
		c-21.5-1.7-36.8,0.1-54.3,5.2C74.5,108,58.4,129.6,58.4,129.6z"/>
	<path class="st1" d="M57.8,129.1c0,0,11.6-15.7,47.3-12.2c38.7,3.8,64.3,16.5,104.9,4.6c57.8-16.8,45.6-61.8,45.6-61.8
		s-17.1,27.4-61.9,34.6c-23.2,3.7-59.6-3.1-80.1,2.3C97.3,100.9,76.5,105,57.8,129.1z"/>
	<path class="st2" d="M59.1,128.7c0,0,5.2-7.8,27.2-7.8c10.5,0,32.1,8.3,41,12.8c7.6,3.8,24.4,20.6,52.3,18.6
		C224,149,229.2,113,229.2,113s-17.5,9.6-40.7,12.4c-17.5,2.1-62.1-11.4-76.1-14.1c-23.4-4.4-47.9,9.4-54,18.3"/>
	<path class="st3" d="M58.4,129.6c0,0,12-46.7,99.8-65C226.5,50.4,242,0,242,0s24.7,5.8,8.1,41.5c-11.5,24.7-36.4,39.8-88.7,38.8
		c-22-0.4-30.3,2.5-48.1,6.1C77.4,93.6,58.4,129.6,58.4,129.6z"/>
	<path class="st4" d="M57.5,128.7c0,0,26.6-28.3,62.3-24.8c38.7,3.8,58.8,12.2,89.8,3.5c60.7-17.1,45.7-48.9,45.7-48.9
		s-16.3,29.9-61.9,35.4c-23.3,2.8-59.6-3.1-80.1,2.3C97,100.4,76.3,104.6,57.5,128.7z"/>
	<path class="st5" d="M86.3,121.9c16.8-0.2,32.1,7.3,41,11.7c7.6,3.8,20.5,18.6,52.3,18.6c42.3,0,49.6-39.3,49.6-39.3
		s-1.8,27.4-47.5,27.4c-30.5,0-46.5-19.3-73.2-20.4c-9.1-0.4-36.2-5.2-50.1,9.6C69.3,122.9,71,122.1,86.3,121.9z"/>
	<path class="st6" d="M86.3,121.9c16.8-0.2,32.1,7.3,41,11.7c7.6,3.8,25.6,18.6,52.3,18.6c27.6,0,39.4-17.9,39.4-17.9
		s-11.5,28.4-44,28.4c-30.5,0-47.6-29-73.5-35.4c-8.8-2.2-22.6-7.4-43,2.3C69.3,122.9,71,122.1,86.3,121.9z"/>
</g>
<g>
	<g>
		<path class="st7" d="M29,230.8c0,4-2.5,7.2-6.4,8.4c4.9,1.3,7.7,5.3,7.7,9.9c0,8.1-7.5,10.2-14.2,10.2c-5.7,0-10.4,0-16.1,0v-39.2
			c5.7,0,10.4,0,16.1,0C22.7,220.1,29,223.4,29,230.8z M3,237.9h13.4c4.7,0,9.6-1.5,9.6-7.1c0-5.7-5.2-8.1-10-8.1H3V237.9z M3,256.4
			h13c4.9,0,11.3-1.2,11.3-7.4c-0.1-6.1-5.6-8.3-10.9-8.3c-4.7,0-8.7,0-13.4,0V256.4z"/>
		<path class="st7" d="M83.1,259.3l-4.3-9.6H55.4l-4.3,9.6h-3.2l17.6-39.2h3.3l17.6,39.2H83.1z M77.6,246.9l-10.5-23.9l-10.5,23.9
			H77.6z"/>
		<path class="st7" d="M141.5,224.5l-15,23h-1l-15.1-23v34.8h-3v-39.2c1.5,0,2.1,0,3.6,0l15,22.8l14.8-22.8h3.7v39.2h-3V224.5z"/>
		<path class="st7" d="M199.1,220.1v24.4c0,20.5-30,20.6-30,0v-24.4h3v24.4c0,16.9,24.1,16.8,24.1,0v-24.4H199.1z"/>
		<path class="st7" d="M256.9,239.3c0.2,10-6.2,20-19.9,20c-4.4,0-8.8,0-13.3,0v-39.2c4.4,0,8.8,0,13.3,0
			C250.3,220.1,256.7,229.7,256.9,239.3z M226.8,223v33.4H237c11.6,0,17-8.7,16.9-17.1c-0.2-8.2-5.5-16.3-16.9-16.3H226.8z"/>
		<path class="st7" d="M308.9,259.3l-4.3-9.6h-23.4l-4.3,9.6h-3.2l17.6-39.2h3.3l17.6,39.2H308.9z M303.5,246.9l-10.5-23.9
			l-10.5,23.9H303.5z"/>
		<path class="st7" d="M108.9,285.8c-1.3-1.3-3.3-2-5.1-2c-4.4,0-7,3.3-7,7.3c0,3.5,2.1,6.8,7,6.8c1.6,0,3.1-0.4,4.6-1.7v-3.8h-5.3
			v-2.7h8.1v7.7c-1.9,2.1-4.2,3.3-7.4,3.3c-6.9,0-9.9-4.6-9.9-9.6c0-5.5,3.5-10.1,9.9-10.1c2.5,0,5,0.9,7,2.9L108.9,285.8z"/>
		<path class="st7" d="M136.8,300.3h-3.5l-5.7-6.5h-4v6.5h-3v-18.9c2.9,0,5.9,0,8.8,0c4.4,0,6.7,3,6.7,6.2c0,2.7-1.4,5.3-5.1,5.9
			l5.6,6.3L136.8,300.3z M123.5,284.2v6.9h5.7c2.5,0,3.6-1.6,3.6-3.4c0-1.7-1.1-3.5-3.6-3.5H123.5z"/>
		<path class="st7" d="M163.5,291c0,5.1-3.1,9.8-9.7,9.8c-6.6,0-9.7-4.8-9.7-9.7c0-5.8,4-9.9,9.7-9.9
			C160.4,281.1,163.5,285.9,163.5,291z M153.8,298c4.7,0,6.7-3.3,6.7-6.9c0-3.5-2-7.1-6.6-7.2c-4.4,0-6.7,3-6.7,7.2
			C147.2,294.4,149.2,298,153.8,298z"/>
		<path class="st7" d="M188.3,281.5v11c0,5.6-3.7,8.3-8.2,8.2c-4.2-0.1-7.8-2.8-7.8-8.2v-11h3v11c0,3.4,2,5.3,4.8,5.4
			c3,0.2,5.2-1.8,5.2-5.4v-11H188.3z"/>
		<path class="st7" d="M201.2,294.5v5.8h-3v-18.9c2.9,0,5.9,0,8.7,0c9,0,9,13.1,0,13.1H201.2z M201.2,291.8h5.7c5,0,5-7.6,0-7.6
			h-5.7V291.8z"/>
	</g>
</g>
</svg>
