<?xml version="1.0" encoding="utf-8"?>
<!-- Generator: Adobe Illustrator 23.0.5, SVG Export Plug-In . SVG Version: 6.00 Build 0)  -->
<svg version="1.1" id="Layer_1" xmlns="http://www.w3.org/2000/svg" xmlns:xlink="http://www.w3.org/1999/xlink" x="0px" y="0px"
	 viewBox="0 0 477.4 220.9" style="enable-background:new 0 0 477.4 220.9;" xml:space="preserve">
<style type="text/css">
	.st0{fill:#FFFFFF;}
	.st1{fill:none;}
</style>
<g>
	<path d="M46.2,220.9C30.7,205.1,15.3,189.3,0,173.6c0-3.5,0-6.7,0-10.3C25.5,138,51.3,112.5,77,87c-0.1-0.2-0.2-0.4-0.3-0.6
		c-20,0-39.9,0-60.3,0c1.2-9.9,3.5-19.3,5.1-28.7c1.6-9.6,3.6-19.1,5.4-28.7c1.8-9.5,3.6-18.9,5.4-28.3c0.2-0.1,0.2-0.2,0.3-0.3
		c0.1-0.1,0.1-0.2,0.2-0.2C33.2,0.1,33.5,0,33.8,0c47.3,0,94.6,0,141.9,0c0.4,0,0.8,0.1,1.2,0.2c0.1,0,0.1,0.1,0.4,0.5
		c-11.2,11.4-22.5,22.8-33.9,34.3c-24.7,0-49.5,0-74.6,0c-0.3,4.1-0.6,8-0.9,12.2c23.3,0,46.2,0,69.3,0c5.6,6,11.2,11.9,16.8,17.8
		c-32.9,32.6-65.6,64.9-98.6,97.5c5.6,0,10.6,0,15.7,0c11.9-11.5,23.8-23.1,35.5-34.4c16.1,0,31.9,0,48.4,0c-1.2,1.3-2,2.2-2.8,3
		c-23.1,23.1-46.2,46.2-69.4,69.4c-6.8,6.8-13.5,13.6-20.3,20.4C57,220.9,51.6,220.9,46.2,220.9z"/>
	<path d="M354.7,75.5c-2.7-1.7-5-3.3-7.9-5.1c8.8-3.5,17.1-6.7,25.1-9.9c3.2,1.8,5.9,3.7,8.9,4.9c3,1.2,6.3,1.6,9.8,2.4
		c-2.2,10.4-4.3,20.6-6.5,30.7c0.1,0,0.2,0.1,0.3,0.1c4.6-10.3,9.2-20.7,13.8-30.9c5.4-2.3,10.6-4.5,16.3-6.9
		c0.6,6.1,1.1,11.8,1.7,17.7c-3,1.4-5.9,2.8-9.2,4.3c-0.6-2.2-1.2-4-1.9-6.5c-4.9,10.2-9.6,20-14.3,30.1c3.8,3.6,7.6,7.2,11.7,11
		c2.2-3.7,4.2-7.1,6.5-10.9c-3.4,1.4-6.2,2.6-9.1,3.9c-1.9-1.2-3.9-2.4-5.8-3.6c1.3-1.7,16.4-10.6,22.7-13.4c1.1,0.6,2.4,1.2,4,2
		c1.5-10.2,3-20.3,4.5-30.7c3.3,0.7,6.1,1.3,9.4,2c-1.1,6.6-2.1,12.9-3.3,19.8c3-1.9,5.5-3.5,8-5.1c0.3-1.6,0.5-3.1,0.8-4.6
		c-1.2-0.9-2.3-1.8-3.9-2.9c1.7-0.8,2.9-1.4,4.6-2.2c0.8-4.6,1.6-9.5,2.4-14.8c3.4,1,6.5,1.9,9.9,2.9c-0.3,2.2-0.5,4.4-0.8,7
		c6.2-2.7,12.1-5.2,18.1-7.8c2.1,1.2,4.2,2.4,6.8,3.9c-4.8,2.6-9.1,4.9-13.9,7.5c0.9,0.6,1.6,1,2.4,1.5c-2.1,17.7-4.2,35.3-6.3,52.9
		c-1.7,1.1-3.2-0.1-4.7-0.3c-1.6-0.2-3.1-0.8-4.9-1.3c0-1.2-0.1-2.5,0-3.7c0.7-6.1,1.5-12.3,2.3-18.4c0.7-5.6,1.5-11.2,2.2-16.9
		c0.4-3,0.6-5.9,1-9.4c-2,1-3.5,1.8-5.3,2.7c-3.2,16.2-6.5,32.5-9.8,49c-2.6-0.8-4.8-1.4-7.4-2.2c1.3-10.7,3.3-21.1,4.8-32.1
		c-2.8,1.1-5.3,2.2-8,3.3c-1.9,10.9-3.8,21.8-5.8,33c-2.6-0.9-4.9-1.6-7.5-2.5c1.1-7.8,2.2-15.3,3.3-23.6c-1,2-1.8,3.5-2.5,4.9
		c-2.4,4.7-4.7,9.4-7,14.2c-0.7,1.5-1.8,2.6-3.3,3.2c-2.9,1.2-5.7,2.4-8.8,3.8c-5.3-5.8-10.7-11.5-16.4-17.7
		c-1.1,5.1-2.1,9.8-3.2,14.6c-3.1,0.1-5.7-1-8.4-1.9c0.7-4.5,1.3-8.7,2-13.2c-8.3,4.7-16.2,9.2-24.4,13.9c-4-1.6-8.1-3.3-12.7-5.1
		c4.6-2.5,8.6-4.8,12.7-7.1c1-5,2-10.1,3-15.5c-1.9-1.7-3.9-3.5-6.2-5.7c2.9-1.4,5.3-2.6,8-3.9C353.2,83,353.9,79.3,354.7,75.5z
		 M359.8,107.3c5.1-2.1,9.4-3.9,13.6-5.7c0.9-6.4,1.8-12.6,2.8-19.2c-5.1,2.9-9.8,5.5-14.2,8C361.3,96,360.6,101.3,359.8,107.3z
		 M378.7,65.5c-5,2.1-9.5,4-14.3,6c0.2,3.2-1.3,6.2-0.5,9.6c2.3-1,4.4-2,6.4-2.9c2.1,1.2,4,2.3,6.1,3.5
		C377.2,76.2,377.9,71.1,378.7,65.5z"/>
	<path d="M262.2,103.4c-1.5,2.8-3.1,5.5-4.5,8.3c-1.6,3.2-3.2,6.4-4.7,9.7c-0.7,1.5-1.7,2.4-3.1,3c-2.9,1.2-5.8,2.5-8.9,3.8
		c-5.4-5.9-10.8-11.6-16.4-17.7c-1.2,5.2-2.2,9.9-3.4,15c-2.9-0.7-5.5-1.4-8.3-2.1c0.6-4.4,1.2-8.5,1.9-13.3
		c-8.4,4.7-16.3,9.2-24.4,13.8c-4-1.6-8.1-3.3-12.8-5.2c4.6-2.5,8.6-4.7,12.9-7c0.9-5,1.9-10.2,2.9-15.6c-1.9-1.7-3.9-3.5-6.2-5.6
		c2.9-1.4,5.3-2.6,8-3.9c0.7-3.6,1.4-7.2,2.2-11c-2.5-1.7-4.9-3.2-7.9-5.1c8.9-3.5,17.2-6.8,25.7-10.1c4.9,4.9,11.3,6.1,18,7.4
		c-2.1,10.5-4.2,20.6-6.3,30.8c0.1,0,0.2,0.1,0.3,0.1c4.6-10.2,9.2-20.5,13.8-30.9c5.3-2.2,10.5-4.5,16.3-6.9
		c0.5,6.2,1,11.9,1.6,17.7c-3.2,1.5-6,2.8-9.1,4.2c-0.7-2.2-1.3-4-2-6.5c-4.8,10.3-9.5,20-14.2,30.1c3.8,3.6,7.6,7.2,11.7,11
		c2.2-3.7,4.2-7.1,6.5-10.9c-3.4,1.4-6.2,2.6-9.3,3.9c-1.9-1.2-3.9-2.4-6.5-4c8-4.8,15.7-8.8,23.1-13.1c1.5,0.7,2.7,1.3,4.3,2.1
		c1.5-10.2,2.9-20.3,4.4-30.7c3.4,0.7,6.3,1.4,9.6,2.1c-1.1,6.5-2.2,12.8-3.4,19.7c3.1-1.9,5.6-3.5,8.2-5c0.3-1.6,0.5-3,0.7-4.6
		c-1.1-0.9-2.3-1.7-3.9-3c1.6-0.8,2.9-1.4,4.6-2.2c0.8-4.7,1.6-9.6,2.5-14.9c3.5,1,6.5,1.9,9.9,2.9c-0.2,2.3-0.5,4.5-0.7,7
		c6.2-2.7,12-5.2,18-7.8c2,1.2,4.2,2.4,6.9,3.9c-4.7,2.5-9,4.9-13.6,7.3c0.6,0.7,1.1,1.2,1.9,2c-2.1,17.4-4.2,35.1-6.4,53.1
		c-1.8-0.4-3.3-0.6-4.8-1c-1.4-0.3-2.9-0.8-4.7-1.3c0.4-8,1.8-15.9,2.6-23.9c0.8-8,2-16,3-24.6c-2.1,1.1-3.6,1.9-5.5,2.9
		c-3.2,16.1-6.5,32.4-9.8,49c-2.5-0.8-4.7-1.4-7.3-2.2c1.2-10.7,3.4-21.1,4.8-32.1c-2.7,1.1-5.2,2.2-8,3.3
		c-1.9,10.9-3.8,21.8-5.8,33c-2.7-0.9-5.1-1.6-7.6-2.5C260.2,118.1,261.2,110.7,262.2,103.4c0.1-0.2,0.1-0.4,0-0.2
		C262.3,103,262.2,103.2,262.2,103.4z M216.3,101.6c0.9-6.5,1.8-12.6,2.8-19.3c-5.2,2.9-9.7,5.5-14.2,8.1
		c-0.4,5.6-1.8,10.9-1.9,16.7C207.6,105.2,211.9,103.4,216.3,101.6z M213.1,78.2c2.1,1.2,4,2.4,6.1,3.6c0.8-5.6,1.5-10.8,2.3-16.4
		c-5,2.1-9.5,4-14.1,5.9c-0.5,3.3-0.9,6.5-1.4,9.9C208.5,80.3,210.7,79.3,213.1,78.2z"/>
	<path d="M325.2,110.6c-3,0-5.6,0-8.3,0c-1.5-11.3-2.9-22.3-4.4-33.6c3.2-0.3,6.3-0.6,9.6-0.9c1.6,10.1,2.3,20.1,3.9,30.6
		c3.5-14.2,6.9-27.9,10.4-41.7c3.2-0.7,6.2-1.3,9.8-2.1c-8.5,34.6-16.8,68.7-25.3,103.1c-3.2-1.3-5.8-2.9-8.5-4.5
		C316.7,144.7,320.9,128,325.2,110.6z"/>
	<path class="st0" d="M359.8,107.3c0.8-6,1.5-11.3,2.2-16.9c4.5-2.5,9.1-5.1,14.2-8c-1,6.7-1.9,12.9-2.8,19.2
		C369.2,103.3,365,105.1,359.8,107.3z"/>
	<path class="st0" d="M378.7,65.5c-0.8,5.6-1.5,10.7-2.3,16.3c-2.1-1.2-4-2.3-6.1-3.5c-2,0.9-4.1,1.8-6.4,2.9
		c-0.8-3.4,0.8-6.4,0.5-9.6C369.2,69.5,373.7,67.6,378.7,65.5z"/>
	<path class="st0" d="M216.3,101.6c-4.3,1.8-8.6,3.6-13.3,5.5c0.1-5.9,1.5-11.2,1.9-16.7c4.5-2.6,9.1-5.2,14.2-8.1
		C218.1,88.9,217.2,95.1,216.3,101.6z"/>
	<path class="st0" d="M213.1,78.2c-2.4,1.1-4.6,2-7,3.2c0.5-3.5,0.9-6.6,1.4-9.9c4.6-1.9,9-3.8,14.1-5.9c-0.8,5.6-1.5,10.7-2.3,16.4
		C217,80.6,215.1,79.4,213.1,78.2z"/>
	<path class="st0" d="M262.2,103.4c0-0.2,0.1-0.4,0-0.2C262.4,103,262.3,103.2,262.2,103.4L262.2,103.4z"/>
	<path class="st0" d="M364,154c0-3.4,0-6.8,0-10.2c2.4-0.3,4.4,0,5.5,2.3c1,2.2,1,4.5-0.4,6.5C367.9,154.4,366,154.4,364,154z"/>
	<g>
		<path class="st1" d="M365,143.7c-0.7,0-1.2,0-1.7,0.1v11.3c0.4,0,0.9,0,1.3,0c3.9,0,6-2.1,6-6c0-1.7-0.4-3-1.3-3.9
			C368.4,144.2,366.9,143.7,365,143.7z"/>
		<path d="M364.9,140.6c-1.5,0-3,0.1-4.5,0.3l-0.6,0.1v17l0.7,0.1c1.1,0.1,2.4,0.2,3.8,0.2c3.3,0,5.9-0.9,7.6-2.5
			c1.6-1.6,2.5-3.9,2.5-6.7c0-2.6-0.8-4.8-2.5-6.3C370.3,141.3,368,140.6,364.9,140.6z M370.7,149.1c0,3.9-2.1,6-6,6
			c-0.4,0-0.9,0-1.3,0v-11.3c0.4-0.1,1-0.1,1.7-0.1c1.9,0,3.4,0.5,4.4,1.5C370.3,146.1,370.7,147.4,370.7,149.1z"/>
		<polygon points="383.8,150.7 390,150.7 390,147.5 383.8,147.5 383.8,143.9 390.4,143.9 390.4,140.7 380.3,140.7 380.3,158.1 
			390.7,158.1 390.7,154.9 383.8,154.9 		"/>
		<path d="M402.4,147.6c-2.3-0.9-2.7-1.5-2.7-2.4c0-0.8,0.6-1.6,2.3-1.6c1.2,0,2.1,0.4,2.7,0.7l0.8,0.4l1.1-3.1l-0.5-0.3
			c-0.6-0.3-1.9-0.9-3.9-0.9c-3.4,0-5.9,2.1-5.9,5.1c0,2.4,1.5,4.1,4.7,5.2c2.1,0.8,2.5,1.5,2.5,2.5c0,1.2-1,2-2.6,2
			c-1.1,0-2.3-0.3-3.3-0.9l-0.8-0.5l-1,3.2l0.5,0.3c1,0.7,2.9,1.1,4.5,1.1c4.4,0,6.3-2.7,6.3-5.3
			C406.9,149.8,404.6,148.5,402.4,147.6z"/>
		<rect x="413" y="140.7" width="3.6" height="17.4"/>
		<path d="M430.2,151.4h3.2v3.5c-0.4,0.1-1.1,0.2-2,0.2c-3.4,0-5.4-2.1-5.4-5.7c0-3.5,2.1-5.7,5.7-5.7c1.6,0,2.6,0.3,3.2,0.6
			l0.8,0.3l0.9-3.1l-0.6-0.3c-0.8-0.4-2.4-0.8-4.3-0.8c-5.6,0-9.3,3.6-9.4,9c0,2.6,0.9,5,2.5,6.5c1.6,1.6,3.7,2.3,6.5,2.3
			c2.1,0,4-0.5,5.1-0.9l0.5-0.2v-8.9h-6.7V151.4z"/>
		<path d="M453.3,140.7v7.4c0,1.1,0,2.2,0,3.2c-0.4-0.7-0.8-1.5-1.3-2.2l-5.3-8.4h-3.4v17.4h3.4v-7.6c0-1.3,0-2.4,0-3.4
			c0.4,0.8,1,1.6,1.5,2.5l5.3,8.4h3.2v-17.4H453.3z"/>
	</g>
</g>
</svg>
