<?xml version="1.0" encoding="utf-8"?>
<!-- Generator: Adobe Illustrator 23.0.2, SVG Export Plug-In . SVG Version: 6.00 Build 0)  -->
<svg version="1.1" id="Layer_2" xmlns="http://www.w3.org/2000/svg" xmlns:xlink="http://www.w3.org/1999/xlink" x="0px" y="0px"
	 viewBox="0 0 1052 1280" style="enable-background:new 0 0 1052 1280;" xml:space="preserve">
<style type="text/css">
	.st0{fill:#49C2D4;}
	.st1{fill:#FCFEFE;}
	.st2{fill:#F9FDFC;}
	.st3{fill:#F8FDFC;}
	.st4{fill:#79C8D3;}
	.st5{fill:#85E3F1;}
	.st6{fill:#4CC2D3;}
	.st7{fill:#4DC2D3;}
	.st8{fill:#7DC9D2;}
	.st9{fill:#ACD7DC;}
</style>
<g>
	<ellipse class="st0" cx="525.5" cy="528.5" rx="522.5" ry="523.2"/>
	<path class="st1" d="M846.8,546c-4.6,11-9.8,21.7-13.6,33c-3.5,10.4-6.3,21.3-8.2,32.1c-6.1,35.4-5.8,71.1-5.5,106.8
		c0.2,19.9,1.2,39.9,1.8,59.8c0,1.4,0,2.8-0.7,4.4C794.6,756,774,726.2,757.2,693c-1.6,1.4-2.8,1.9-3.2,2.8
		c-8.4,17.7-21.5,31.7-35.9,44.4c-17.5,15.5-37.5,27.6-59.3,36.3c-14,5.5-28,11.4-42.5,14.9c-19.2,4.7-38.9,7.7-58.5,10.5
		c-25.5,3.6-51.1,1.8-76.6-1.2c-13.4-1.6-26.6-4.8-39.8-8c-16.6-3.9-33-8.1-49.4-12.8c-10.5-3-20.6-7.2-31-10.4
		c-17-5.3-34.1-10.4-51.3-15.1c-7.3-2-14.8-3.1-22.2-4.5c-16.5-3-32.5-1.5-48,5.3c-20.4,9-42,11-63.8,8.7
		c-11.3-1.2-22.6-3.7-33.4-7.2c-11.1-3.5-21.6-8.9-32.3-13.5c-1.2-0.5-2.2-1.5-4-2.7c2.3-2.7,4.3-5.6,6.7-7.8
		c8.5-7.8,16.9-15.7,25.8-23c14.7-12.1,30-23.5,47.9-30.5c10.5-4.1,21.5-6.2,33.2-3.5c10.6,2.5,21.6,3.4,32.4,4.9
		c1.6,0.2,3.2,0,4.9,0c-1.5-10.7-3.3-20.8-4.2-31c-1.6-19.3,0.4-38.3,9.9-55.5c9.6-17.3,20.7-33.8,30.7-50.9
		c8.4-14.4,16.3-29.1,24.4-43.6c1.6-2.8,3.4-5.5,5.7-9.2c2.4,3.2,4.9,5.6,6.3,8.6c9.1,19.6,17.3,39.5,20.9,60.9
		c1.7,10,1.2,20-1.9,30c-2.8,9.1-4.7,18.6-6,28c-2.1,15.4-3,31-4.9,46.5c-2.2,17.5,7,29.4,19.3,39.5c10.6,8.8,23.3,13.3,36.6,16.9
		c21.9,5.8,44.1,5.5,66.2,3c9.6-1.1,19.1-6.3,27.8-11.1c20.9-11.7,37.3-28.7,53-46.5c18.7-21.2,35.4-44,50.7-67.8
		c13.8-21.4,27.4-42.9,40.4-64.7c12.6-21.1,24.2-42.8,36.4-64.2c10.9-19.2,21.8-38.5,33.1-57.5c7.2-12.2,14.3-24.6,22.7-36
		c7.8-10.5,17.3-19.9,26.2-29.6c13.6-14.6,27-29.4,41.2-43.4c7.7-7.6,16.6-13.9,25.3-20.3c3.2-2.4,7.4-3.8,11.3-5
		c8.3-2.6,15,1.2,18.9,9.2c8.4,17.4,11.8,36,14.2,55c4.4,35,6.8,70.1,5.3,105.3c-0.6,13.9-2.2,27.8-3.9,41.6c-0.2,2-3.3,4.5-5.5,5.2
		c-11.7,3.5-23.9,4.2-35.9,2.6c-10.8-1.4-21.4-4.5-31-10.1c-2.1-1.2-4.6-1.8-6.9-2.7c-0.9-0.7-1.8-1.4-2.8-2c-1.1-1-2.1-2-3.2-3
		c0,0,0,0,0,0c-3.4-2.9-6.8-5.9-10.2-8.8c-1.6-1.9-3.1-3.7-4.7-5.6c-0.7,0.6-1.4,1.1-2,1.7c1.9,2.3,3.8,4.7,5.7,7l0,0
		c0.3,0.4,0.5,0.8,0.8,1.2c2.1,2.2,4.1,4.5,6.2,6.7c0.9,0.7,1.9,1.4,2.8,2.2c0.5,1,0.7,2.3,1.5,2.9c6.7,5.3,13.2,10.7,20.2,15.4
		c3.7,2.5,8.3,3.6,12.5,5.3c0,0,0,0,0,0c0.9,0.7,1.7,1.6,2.7,2c12.5,4.8,25.5,6.9,38.9,6c1.9-0.1,3.8,0,6.1,0
		c-0.4,1.9-0.4,3-0.8,4.1C853.4,528.1,850.1,537,846.8,546z"/>
	<path class="st2" d="M206.2,497.9c-1.7-21.4,1.6-42.4,6.2-63.2c5.9-26.3,14.8-51.6,27.1-75.8c14.2-27.7,31.7-53,52.9-75.6
		c14.4-15.4,30.5-29.1,47.8-41.4c18.5-13.2,38.1-24.4,58.8-33.4c12.2-5.3,25.1-9.3,37.9-13c12.1-3.5,24.4-6.6,36.8-8.7
		c23.6-4.1,47.4-6.3,71.3-4.3c23.3,1.9,46.5,4.7,68.8,12.1c13.1,4.4,26.5,8.2,39.2,13.5c11.2,4.7,22,10.6,32.5,16.7
		c11.9,7,23.3,14.9,35,22.5c8,5.2,12.8,11.7,10.4,21.9c-2.1,8.9-13.7,14.8-21.6,9.9c-6.9-4.2-13.1-9.4-19.8-14
		c-16.2-11.1-33.5-20.4-51.6-28.2c-22.5-9.7-46.1-15.2-70-19.7c-4.1-0.8-8.2-0.9-12.4-1.2c-7.9-0.6-15.9-1.5-23.8-1.4
		c-26.8,0.4-53.2,2.6-79.2,10c-17,4.8-33.9,10-49.7,17.9c-16.2,8.1-32.4,16.4-46.6,28c-11.2,9.2-22.9,17.9-33.3,28
		c-9.7,9.4-18.5,19.9-26.5,30.7c-8.8,11.9-17.4,24.2-24.3,37.2c-7.2,13.5-13,27.8-18.1,42.2c-4.7,13.2-8.6,26.8-11.3,40.5
		c-2.7,13.9-4,28.2-4.8,42.4c-0.7,12.8,0.1,25.7,0.4,38.5c0.2,6.2-1.4,11.7-6.6,15.2c-5.9,4-12.2,4-18.3,0.2
		c-4.5-2.8-7.1-7.1-7.2-12.3C206,521.5,206.2,509.7,206.2,497.9z"/>
	<path class="st2" d="M549.8,291.7c17.2,2.1,34.6,3.3,51.6,6.6c12.9,2.6,25.3,7.5,37.7,12.2c10,3.8,19.9,8,29.2,13.3
		c10.4,6,20.1,13.1,29.8,20.2c5.1,3.7,6.8,13.8,3.5,19.1c-3.9,6.3-10.2,10-18.2,7.7c-4.4-1.3-8.4-4.3-12.3-6.9
		c-15.6-10.4-31.6-20.1-49.4-26c-15.2-5-30.5-10.2-46.8-10.8c-12.3-0.4-24.5-2-36.7-1.5c-18.7,0.8-37,4.3-55,10.1
		c-14.6,4.7-28.5,10.7-41.6,18.4c-15.3,8.9-29.3,19.7-41.9,32.4c-16,16.1-29.7,33.7-39.6,54.1c-3.6,7.5-8.7,13-17.8,12.5
		c-11.4-0.7-18.1-12.8-14-20.9c6.3-12.3,13-24.6,20.8-36c6.9-10.1,14.8-19.9,23.7-28.4c11.5-11.1,23.9-21.3,36.8-30.8
		c10.3-7.6,21.4-14.4,33.1-19.7c13.9-6.3,28.6-11,43.2-15.7c20.7-6.6,42-9,63.7-8.5C549.7,292.6,549.8,292.1,549.8,291.7z"/>
	<path class="st3" d="M413.4,538.7c0.3-20.6,5.5-39.6,14.3-58c9.9-20.5,24.5-36.8,42.8-49.8c13.9-9.8,29.4-16.1,46.2-19.8
		c16.3-3.6,32.7-3.8,48.9-1.4c11,1.6,21.6,5.9,32.1,9.7c13.1,4.7,23.8,13.4,34.4,22.1c7,5.7,9.4,13.3,6.6,20.7
		c-3.5,9.2-15.6,13-23.6,7.2c-7.2-5.2-13.8-11.3-21.4-15.9c-17-10.3-35.7-13.9-55.6-12.8c-25.5,1.4-46.6,11.8-63.9,29.9
		c-22.9,23.9-31.6,52.4-26.1,85.1c1.3,7.6-4.1,16.4-11.2,18.2c-9.1,2.3-17.8-1.4-20-9.9C414.9,555.9,414.5,547.2,413.4,538.7z"/>
	<path class="st4" d="M846.8,546c3.3-9,6.6-17.9,9.9-26.9c0.4-1,0.5-2.2,0.8-4.1c-2.3,0-4.2-0.1-6.1,0c-13.4,0.9-26.4-1.1-38.9-6
		c-1-0.4-1.8-1.3-2.7-2c6.1,1.4,12.1,3.2,18.2,4c8,1.1,16,1.6,24.1,1.9c8.1,0.2,8.7,0.4,6.3,8.1c-2.3,7.6-5.5,14.9-8.5,22.3
		C849.5,544.4,847.9,545.1,846.8,546z"/>
	<path class="st4" d="M809.8,507.1c-4.2-1.7-8.8-2.8-12.5-5.3c-7-4.7-13.6-10.2-20.2-15.4c-0.8-0.6-1-1.9-1.5-2.9
		c1.1-0.4,2.2-0.8,3.3-1.3c0.4,0,0.8-0.1,1.2-0.1c0.9,0.7,1.8,1.4,2.8,2c-3.9,2-1.8,3.8,0.4,5.3c8,5.3,16,10.4,24,15.6
		C808.1,505.6,808.9,506.4,809.8,507.1z"/>
	<path class="st5" d="M426.8,12.1c6.3-1.2,12.6-2.4,18.8-3.6C439.3,9.6,433.1,10.9,426.8,12.1z"/>
	<path class="st6" d="M632.7,1229.3c-25.4,0.4-45-14.8-48.2-38.9c-1.2-9,0.4-18.5,1.4-27.7c1.4-12.8,3.2-25.6,8.9-37.6
		c13.6-28.5,48.9-42.9,78.4-32c16.8,6.2,28.8,23.1,28.7,42.2c-0.1,17.3-2.4,34.5-7.9,50.9C685,1212.9,661.8,1228.8,632.7,1229.3z
		 M611.2,1174.8c-0.2,15.3,1.7,25.4,12.1,30.6c10.1,5.1,20.5,3.5,29.7-2.9c7.6-5.3,13.2-12.6,15.1-21.5c2.9-13.6,5.1-27.4,6.5-41.2
		c0.8-7.4-0.9-15-6.1-21c-8.8-10-27.1-10.2-38-0.7c-6.7,5.9-11.7,13-13.4,21.6C614.4,1152.8,612.6,1166.1,611.2,1174.8z"/>
	<path class="st6" d="M469.4,1227.2c0.9-6.5,1.5-12.4,2.4-18.2c3.5-23.8,7.2-47.6,10.7-71.4c2.5-16.7,5.1-33.5,7.4-50.2
		c0.6-4.3,2.4-5.8,6.8-5.6c6.9,0.3,13.9,0.1,21.5,0.1c-2.7,18.4-5.4,36-8.2,55.1c2.6-1.9,4.1-2.8,5.4-3.9c8.5-6.9,18.2-9.4,28.9-8
		c15,2,24.2,15.1,22.4,32.9c-1.8,17.2-4.5,34.2-6.9,51.3c-0.8,5.7-1.8,11.4-2.8,17.9c-8.1,0-16.2,0.1-24.3-0.2
		c-0.8,0-2.4-2.9-2.2-4.2c1.6-12.3,3.7-24.6,5.4-37c1.3-9.2,2.6-18.4,3.1-27.6c0.4-8.4-3.8-12.6-12.1-12.1c-5,0.3-9.9,2.2-14.7,4.1
		c-3.9,1.5-5.1,5.3-5.6,9.3c-3,20.9-6.3,41.7-9.2,62.5c-0.5,3.9-1.7,5.5-5.9,5.4C484.5,1226.9,477.4,1227.2,469.4,1227.2z"/>
	<path class="st7" d="M768.9,1227.2c1.5-10,3-19.1,4.3-28.3c1.8-12.3,3.8-24.6,5.2-36.9c1.5-12.8-5-18.2-17.7-15.4
		c-10.3,2.3-13.8,6.2-15.4,16.6c-3,20-6.2,40-9,60c-0.5,3.2-1.7,4.2-4.8,4.1c-7.3-0.2-14.6-0.1-22.8-0.1c0.9-6.5,1.6-12.5,2.4-18.5
		c3.8-25.6,7.8-51.1,11.5-76.7c0.6-4.2,2.1-5.8,6.3-5.5c5.1,0.3,10.3,0.2,15.4,0c3.9-0.2,5.1,1.4,4.3,5.1c-0.4,2-0.4,4.2-0.7,7
		c5.3-3.7,9.6-7.4,14.5-9.8c10.8-5.4,22-6.1,32.8,0.3c8.7,5.1,11.6,13.9,11.1,23c-0.7,13-2.9,26-4.6,39c-1.4,10.2-3.1,20.3-4.4,30.5
		c-0.5,4.1-1.9,6.1-6.5,5.8C783.8,1226.9,776.7,1227.2,768.9,1227.2z"/>
	<path class="st7" d="M273.4,1146c-5.3,0-9.5,0-14.7,0c0.9-6.3,1.5-11.9,2.7-17.4c0.2-1,2.8-1.9,4.4-2c10.1-0.6,10.1-0.5,12.2-10.2
		c4.8-22.2,20.5-35.2,43.7-36.4c12.1-0.6,23.8,1.6,35.8,5.8c-2.1,6.5-3.9,12.8-6.3,18.9c-0.3,0.9-3,1.4-4.5,1.2
		c-6.7-0.8-13.4-2.4-20.1-2.6c-15-0.4-21.9,6.8-22.3,23.3c4.7,0,9.4,0.2,14.1-0.1c3.9-0.2,5.2,1.4,4.5,5c-0.3,1.5-0.6,2.9-0.9,4.4
		c-1.7,10-1.7,10-11.9,10c-0.8,0-1.7,0.1-2.5,0c-5-0.6-7.2,1.1-8,6.6c-3.2,23.7-6.9,47.3-10.6,70.9c-0.2,1.4-2,3.7-3.2,3.7
		c-7.8,0.3-15.5,0.2-24.5,0.2C265.4,1200.1,269.4,1173.6,273.4,1146z"/>
	<path class="st7" d="M396.3,1195.2c2.3,14.5,17.9,20.4,29.2,11.8c6.5-4.9,6-13.5-1.5-16.8c-5.1-2.3-10.7-3.4-16.2-4.8
		c-8.6-2.2-17-5-23.3-11.6c-7.5-7.9-6.4-23.3,1.7-33.1c7.5-9,17.2-14,28.7-15.3c13.8-1.6,27.3-1.1,38.7,8.6c6.1,5.2,9,11.9,7.9,19.9
		c-0.2,1.2-2.3,3.1-3.6,3.2c-6.1,0.3-12.3,0.3-18.4,0c-1.5-0.1-3.7-1.1-4.1-2.3c-3.7-10.6-12.6-14.3-22.3-9c-4.2,2.3-7,5.8-7,10.7
		c0.1,5.1,4,7,8.1,8.3c5.1,1.5,10.3,2.5,15.4,4c4.1,1.2,8.3,2.5,12.2,4.3c17.5,8.2,20.9,27.7,7.4,41.9c-6.5,6.9-14.5,11.1-23.7,12.8
		c-13.6,2.6-27.2,3.2-39.6-4.3c-8.8-5.3-14.7-12.8-14.6-23.9c0-3.2,1.1-4.5,4.4-4.4C382.4,1195.3,389.2,1195.2,396.3,1195.2z"/>
	<path class="st7" d="M321.9,1227.2c1.2-8.5,2.3-16.1,3.4-23.8c3.6-24,7.2-47.9,10.6-71.9c0.5-3.6,1.8-5.2,5.7-5.1
		c7.2,0.3,14.5,0.1,22.4,0.1c-1,7.5-1.9,14-2.9,20.5c-3.8,25.3-7.7,50.5-11.3,75.8c-0.5,3.4-1.6,4.5-4.9,4.4
		C337.4,1227,330,1227.2,321.9,1227.2z"/>
	<path class="st8" d="M772.7,481.2c-2.1-2.2-4.1-4.5-6.2-6.7c-0.3-0.4-0.5-0.8-0.8-1.2c0,0,0,0,0,0c0.3-1,0.7-2.1,1-3.1
		c3.4,2.9,6.8,5.9,10.2,8.8C775.5,479.8,774.1,480.5,772.7,481.2z"/>
	<path class="st9" d="M766.7,470.3c-0.3,1-0.7,2.1-1,3.1c-1.9-2.3-3.8-4.7-5.7-7c0.7-0.6,1.4-1.1,2-1.7
		C763.5,466.6,765.1,468.4,766.7,470.3z"/>
	<path class="st0" d="M772.7,481.2c1.4-0.7,2.8-1.4,4.2-2.2c0,0,0,0,0,0c0.6,1,1.3,2,1.9,3.1c-1.1,0.4-2.2,0.8-3.3,1.3
		C774.6,482.7,773.6,482,772.7,481.2z"/>
	<path class="st8" d="M778.9,482.1c-0.6-1-1.3-2-1.9-3.1c1.1,1,2.1,2,3.2,3C779.7,482.1,779.3,482.1,778.9,482.1z"/>
	<path class="st9" d="M765.7,473.3c0.3,0.4,0.5,0.8,0.8,1.2C766.3,474.1,766,473.7,765.7,473.3z"/>
</g>
</svg>
